<svg height="50" viewBox="0 0 59 50" width="59" xmlns="http://www.w3.org/2000/svg"><g><path d="m-.00051922 14.2857143.41051922 11.2244898c.13 3.5714286-.29 7.755102.41 11.2244898.86 4.3469388 4.14 2.9489796 8.09 2.7857143 16.1299935-.6516589 32.2840255-.2870204 48.37 1.0918367.343532-.0106298.6195828-.2923143.63-.6428571.22-9.0816327.17-18.1632654-.22-27.244898-.14-3.37755102 1.31-10.76530613-2.6-12-3.44-1.10204082-8.59-.14285715-12.27-.19387755l-13.82-.17346939-27.74-.35714286c-.31479331.04071236-.5507851.3139677-.5507851.6377551 0 .32378741.23599179.59704275.5507851.6377551l41.56.53061225c3.06 0 8-.87755102 10.88.14285714 3.3 1.18367347 2.6 7.48979592 2.74 10.76530611.2933333 6.8027211.4066667 13.6054422.34 20.4081633 0 4.255102.38 6.122449-4.42 5.7857143-3.62-.2653062-7.2366667-.4795919-10.85-.6428572-6.9066667-.3061224-13.8233333-.42517-20.75-.3571428-3.62 0-7.24.1224489-10.87.2653061-1.29130797.1489572-2.59061248.2137145-3.89.1938775-3.1-.2755102-3.38-.5-4-3.510204-1.32-6.3775511-.51-14.0714286-.75-20.5714286 0-.8163265-1.28-.8163265-1.25051922 0z"/><path d="m28.64 39.1530612-.49 8.377551c0 .8265307 1.21.8163266 1.25 0l.49-8.377551c.05-.8265306-1.2-.8163265-1.25 0z"/><path d="m17.12 49.6122449c7.9210123-.6683874 15.8799899-.729784 23.81-.1836735.8.0612245.8-1.2142857 0-1.2755102-7.9300101-.5461105-15.8889877-.4847139-23.81.1836735-.79.0714286-.8 1.3469388 0 1.2755102z"/></g></svg>