<svg height="28" viewBox="0 0 40 28" width="40" xmlns="http://www.w3.org/2000/svg"><g fill="#1d1d1b" transform="matrix(.99756405 .06975647 -.06975647 .99756405 1.883361 .703858)"><path d="m.217 2.86999995c3.82207166 2.08189588 7.45900273 4.48700096 10.8709998 7.18899985 2.023 1.617 4.8369999 5.2849999 7.6999999 5.4319999 2.6739999.133 5.0189999-2.9049999 6.8389999-4.4239999l11.1229998-9.31699983c.322-.273 0-.69999999-.308-.74899999-11.6776011-1.3241068-23.4667843-1.33584668-35.14699942-.035-.55299999.056-.55999999.93799999 0 .87499999 11.68021512-1.30084668 23.46939832-1.28910681 35.14699942.035l-.308-.74899999-8.4909999 7.10499988c-3.4999999 2.91199994-7.6579998 8.21099984-12.2989998 4.31199994-4.5355031-3.961477-9.45524195-7.46016637-14.68599971-10.44399984-.49699999-.25899999-.93799999.497-.44099999.76999999z"/><path d="m.182.97299998c.07466666 7.46666654.39433332 14.90066642.95899998 22.30199962.00729202.2404724.20052762.433708.44099999.441l35.93099943-2.429c.2408195-.003823.434-.2001501.434-.441-.5226667-6.3186665-.8703334-12.65366641-1.043-19.00499963-.0279287-.22035532-.2153819-.38554957-.4375-.38554957-.2221182 0-.4095713.16519425-.4375.38554957.084 3.17799994.21 6.35133322.378 9.51999983.112 1.988 1.4 7.8399999-.28 9.1419999-.7.5249999-3.164.2169999-4.1439999.2799999l-5.53.378-8.9529998.602-9.00899984.637c-1.16199998.077-4.53599993.903-5.52999991.371-1.39999998-.756-1.12699998-1.925-1.22499998-3.3879999-.40599999-6.1249999-.61599999-12.24999982-.69999999-18.38199972-.02792868-.22035531-.21538183-.38554956-.43749999-.38554956s-.40957131.16519425-.43749999.38554956z"/><path d="m23.1769996 12.7889998c3.7489119 3.2825208 7.9705304 5.9820912 12.5229998 8.0079998.511.224.959-.5319999.441-.7559999-4.4851021-1.9916492-8.6452674-4.6463208-12.3409998-7.8749999-.42-.364-1.043.252-.616.623z"/><path d="m13.7479998 11.5219998c-4.46222595 3.2013214-8.39295763 7.0848087-11.64799984 11.5079998-.33599999.455.427.889.75599999.441 3.16580598-4.3055376 6.99039141-8.0852391 11.33299985-11.1999998.455-.322 0-1.085-.441-.756z"/></g></svg>