<svg height="19" viewBox="0 0 19 19" width="19" xmlns="http://www.w3.org/2000/svg"><path d="m29.7096063 16.7388699c-.4153007-.7267808-.9121711-1.3793867-1.4906303-1.9578459s-1.2310651-1.0753296-1.9578459-1.4906303c-.7267809-.4301376-1.4869188-.7527336-2.2804515-.9677976-.7935233-.2150641-1.6204035-.3225961-2.4806786-.3225961-.8602675 0-1.6871525.107532-2.4806776.3225961-.7935242.215064-1.5536659.53766-2.2804449.9677976-.7267799.4153007-1.3793886.9121711-1.9578459 1.4906303-.5784583.5784592-1.0753306 1.2310651-1.4906332 1.9578459-.430135.7267809-.7527313 1.4869188-.9677987 2.2804515-.2150676.7935233-.3225997 1.6204035-.3225997 2.4806786 0 .8602675.1075321 1.6871525.3225997 2.4806776.2150674.7935242.5376637 1.5536659.9677987 2.2804449.4153026.7267799.9121749 1.3793886 1.4906332 1.9578459.5784573.5784583 1.231066 1.0753306 1.9578459 1.4906332.726779.430135 1.4869207.7527313 2.2804449.9677987.7935251.2150676 1.6204101.3225997 2.4806776.3225997.8602751 0 1.6871553-.1075321 2.4806786-.3225997.7935327-.2150674 1.5536706-.5376637 2.2804515-.9677987.7267808-.4153026 1.3793867-.9121749 1.9578459-1.4906332.5784592-.5784573 1.0827434-1.231066 1.5128809-1.9578459.4153007-.726779.730483-1.4869207.945547-2.2804449.2150641-.7935251.3225961-1.6204101.3225961-2.4806776 0-.8602751-.107532-1.6871553-.3225961-2.4806786-.215064-.7935327-.53766-1.5536706-.9677976-2.2804515zm-8.2096063-3.1592466c.9492681 0 1.8428907.1520238 2.6809152.4560903.8380245.304057 1.6278267.7601378 2.369435 1.3682614-.4301281.5636318-.9714998 1.0716276-1.6241151 1.5240062-.6526248.4523882-1.409051.8639773-2.2693261 1.2347767-.4746294-.8602656-.9714998-1.6500678-1.4906304-2.369435-.5191286-.7193672-1.0530809-1.3682614-1.6018739-1.9467206.3263096-.088993.6489056-.1557354.9677986-.2002366.318893-.0445013.64149-.0667424.9677967-.0667424zm-6.1627626 2.9812606c.3559739-.4449649.749022-.8417171 1.1791567-1.1902753.4301357-.3485583.8973437-.656327 1.4016402-.9233059.5784573.5784592 1.1309495 1.2236513 1.6574948 1.9355953.5265442.7119534 1.0271244 1.4906303 1.5017565 2.3360685-.9492633.2966433-1.9244681.5154189-2.9256445.6563269-1.0011764.1408985-2.0282932.2113524-3.0813827.2113524-.2818121 0-.5228327-.0037021-.7230684-.0111253-.2002347-.0074137-.374511-.018539-.5228336-.0333664.1483226-.5487949.3485545-1.0716276.6007032-1.5685075.2521478-.49688.5562039-.9677977.9121778-1.4127627zm-1.7576122 4.9391161c0-.0296643 0-.0593287 0-.088993s.0074166-.0667424.0222487-.1112436c0-.0296643 0-.0593287 0-.088993s0-.0593287 0-.088993c.1186583 0 .2706859.0037116.4560894.0111253.1854025.0074137.4041753.0111253.6563231.0111253.6229538 0 1.2384825-.0222506 1.8466051-.0667424.6229539-.0445012 1.2273582-.1112436 1.8132321-.2002366.5858729-.088993 1.1606139-.2002366 1.7242391-.3337213.5636251-.1186669 1.1198261-.266979 1.6686163-.4449745.088993.1779955.177986.3670973.266979.5673339s.1853997.411589.2892296.6340763c-.6377879.1334942-1.2755634.3708022-1.9133494.711944-.637786.3411417-1.2903947.7786863-1.957846 1.3126462-.6526181.5339608-1.2199435 1.086454-1.7019913 1.6574948-.4820477.5710417-.871388 1.1531983-1.1680323 1.7464878-.6674513-.7564443-1.1680314-1.5684971-1.5017575-2.4361831-.3337252-.867686-.5005859-1.7983951-.5005859-2.7921531zm7.9203748 7.9203748c-.904764 0-1.7576055-.1409051-2.5585463-.4227172-.8009407-.2818121-1.5647902-.697109-2.2915692-1.245902.2966443-.5636251.6637369-1.1161174 1.1012881-1.6574948.4375513-.5413764.9529636-1.0642053 1.5462531-1.5685008.5784573-.5191287 1.1643217-.9381333 1.7576112-1.2570263.5932943-.318893 1.1791577-.5450814 1.7576074-.6785719.3708089 1.0234242.6785776 2.0579576.9233059 3.1036305.2447379 1.045673.426426 2.1098707.5450833 3.1926245-.4598019.177986-.9195943.3114745-1.3793867.4004675-.4598019.088994-.9270175.1334905-1.4016468.1334905zm6.718976-3.7599546c-.3114803.5042965-.6711543.9640889-1.0790413 1.3793915-.4078869.4153025-.8639677.7861029-1.3682709 1.1124124-.1186573-.9937599-.285518-1.9726733-.500582-2.9367689-.215064-.9640955-.4857546-1.9133446-.8120623-2.8477759.444965-.0296643.8639677-.0519121 1.2570273-.0667442.39305-.0148331.767561-.0222488 1.123533-.0222488.3708089 0 .767561.0074157 1.1902849.0222488.4227143.0148321.8639677.0370799 1.3237696.0667442-.0593287.5932895-.1853997 1.1643227-.3782226 1.7131157-.1928134.548792-.444965 1.0753287-.7564357 1.5796252zm-1.1791596-4.7388794c-.5487949 0-1.0790413.0111253-1.5907486.0333759-.5117169.0222506-.997462.0556171-1.4572639.1001183-.1186573-.3114802-.2336031-.5969982-.3448467-.8565635s-.2113524-.4931683-.3003549-.7008187c.9789325-.430128 1.816938-.9047574 2.5140545-1.4238879.6971166-.5191306 1.245902-1.0827434 1.6463752-1.6908669.5784592.6674522 1.0234147 1.3830983 1.334895 2.1469572.3114707.7638589.4894567 1.5759117.5339579 2.4361868-.3856363-.0148369-.7712726-.0259622-1.1569089-.0333759s-.7786864-.0111253-1.1791596-.0111253z" fill="#fff" fill-rule="evenodd" transform="translate(-12 -12)"/></svg>