<svg height="13" viewBox="0 0 20 13" width="20" xmlns="http://www.w3.org/2000/svg"><path d="m20.0555556 20.833795c1.504637.4321353 2.2569481 1.5124569 2.2569481 3.2409972 0 1.2243829-.4166667 2.1486581-1.25 2.7728532-.8333407.6241952-1.8634237.9362881-3.0902815.9362881h-5.9722222v-12.7839335h5.7986111c2.6157519 0 3.9236111 1.0563173 3.9236111 3.1689751 0 1.2243844-.5555481 2.11265-1.6666666 2.6648199zm-5.3472223-3.6371229v2.9889235h2.7430556c1.0879681 0 1.6319444-.516155 1.6319444-1.5484803 0-.9602955-.61342-1.4404432-1.8402777-1.4404432zm2.8819445 8.4265966c1.3425992 0 2.0138852-.5641682 2.0138852-1.6925208 0-1.2243829-.6481378-1.8365651-1.9444408-1.8365651h-2.9513889v3.5290859zm12.4652778-8.6786704h-5v-1.2603839h5zm1.9444444 6.3379502c0 .1200377-.0115704.2760842-.0347259.468144h-6.4236074c0 .7682402.1909703 1.3564151.5729185 1.764543.3819481.4081278.9201333.6121883 1.6145852.6121883.2546296 0 .5150444-.048014.7812444-.1440443.2662074-.0960303.5092593-.2340709.7291704-.4141278.2199037-.1800562.3645778-.4021218.4340296-.6662046h2.1527704c-.6481482 2.0646453-2.0370222 3.0969529-4.1666667 3.0969529-1.3888889 0-2.4942074-.4441322-3.3159704-1.33241-.8217629-.8882779-1.232637-2.0526246-1.232637-3.4930748 0-1.4164427.4224519-2.5867909 1.267363-3.5110822.8449111-.9242883 1.9386518-1.3864208 3.2812444-1.3864208 1.3426 0 2.4016222.48014 3.1770889 1.4404432.7754667.9602962 1.1631926 2.1486503 1.1631926 3.5650931zm-6.4583333-1.1163435h3.9930592c-.1157481-1.3204132-.7638889-1.9806094-1.9444444-1.9806094-.5787111 0-1.0532445.1800538-1.4236148.5401662-.3703704.3601123-.5787037.8402554-.625 1.4404432z" fill="#fff" fill-rule="evenodd" transform="translate(-12 -15)"/></svg>