<svg height="19" viewBox="0 0 15 19" width="15" xmlns="http://www.w3.org/2000/svg"><path d="m29 25.4017857c-.2604167 1.6964367-.46875 3.5624901-.625 5.5982143-4.45315-.1696437-9.2447658-.1696437-14.375 0v-1.1026786c.130209-.0282738.3059885-.0636156.5273438-.1060272.2213552-.0424107.3841137-.0706836.4882812-.0848214.1041675-.0141369.2343742-.0424098.390625-.0848215.1562508-.0424107.2669267-.0777525.3320317-.1060263.0651041-.0282738.1432283-.0706845.234375-.1272321.0911458-.0565477.1562491-.1060264.1953116-.1484371.0390634-.0424116.078125-.1060272.1171884-.1908487.0390625-.0848214.0651033-.1767108.078125-.2756701.0130208-.0989583.0195308-.2191206.0195308-.3604906.1302092-5.8809813.1302092-10.4330221 0-13.6562454 0-.1131043-.00651-.2191243-.0195308-.3180872-.0130217-.0989538-.0325525-.1837752-.0585942-.2544643-.0260417-.07068-.0585933-.1342938-.0976558-.1908505-.0390634-.0565476-.078125-.1130861-.1171884-.1696428-.0390625-.0565476-.1041658-.0989538-.1953116-.1272276-.0911467-.0282738-.1692709-.0565476-.234375-.0848215-.065105-.0282738-.1692709-.0565476-.3125-.0848214-.14323-.0282738-.2669267-.0565476-.3710942-.0848214s-.2604157-.0636138-.46875-.1060291c-.2083343-.0424062-.3776035-.0777462-.5078125-.10602v-1.0602723c6.744825.2261904 11.4713417.1696428 14.1796833-.1696429l-.3125 5.34375h-.8984333c-.0260417-.1130952-.0716167-.3110119-.1367167-.59375-.0651083-.2827381-.1171916-.487721-.15625-.6149576-.0390666-.1272276-.09115-.3180781-.15625-.5725424-.0651083-.2544643-.1237-.4453148-.1757833-.5725424-.0520833-.1272366-.1171833-.2827381-.1953167-.4665224-.078125-.1837752-.1562416-.3251442-.2343666-.4241071-.0781334-.0989538-.1757834-.1979167-.292975-.2968705-.1171834-.0989628-.2408834-.1696428-.3710917-.2120581-.1302083-.0424062-.2734333-.0636138-.4296833-.0636138h-5.3515667c-.1822925 0-.2929683.0282738-.3320317.0848214-.0390625.0565477-.0585933.1696429-.0585933.3392858v6.9553571l3.4375-.1272367c.1302083 0 .234375-.0070662.3125-.0211985.078125-.0141415.15625-.0282738.234375-.0424153.078125-.0141324.1497417-.0494724.2148417-.106029.0651083-.0565476.1171916-.0989538.15625-.1272276.0390666-.0282739.078125-.0989539.1171916-.2120581.0390584-.1130953.0716084-.1979077.09765-.2544553.02605-.0565566.0586-.1767181.0976584-.3604933.0390666-.1837843.0716166-.3322195.0976583-.4453148.0260417-.1130952.0651-.2968704.1171833-.5513347.0520917-.2544734.1041667-.4665224.15625-.6361653h.9765667c-.078125 2.1205448-.1171833 3.2656205-.1171833 3.4352634 0 .1696519.0260333 1.2864529.0781166 3.3504509h-1.0156166c-.02605-.141369-.0716167-.3604897-.136725-.6573656-.0651-.2968768-.110675-.5018597-.1367167-.6149558-.0260417-.1130962-.0651-.2686003-.1171917-.4665179-.0520833-.1979175-.1041583-.3251488-.15625-.3816964-.0520833-.0565476-.1302-.1343001-.2343666-.2332585-.104175-.0989592-.21485-.1625748-.3320334-.1908486-.1171916-.0282739-.266925-.0565477-.4492166-.0848215-.5468817-.0565476-1.6927042-.0848214-3.4375042-.0848214v5.8950893c0 1.102684.5859317 1.6540178 1.7578125 1.6540178h3.4765583c.3125084 0 .59245-.0282738.83985-.0848214.2473917-.0565476.455725-.0989583.625-.1272321.1692667-.0282738.34505-.1342993.5273417-.3180808.1822917-.1837807.3125-.311011.390625-.3816956.078125-.0706854.1953083-.2756682.3515667-.6149558.15625-.3392875.266925-.5725442.332025-.6997772.0651083-.1272322.1953166-.4453093.390625-.9542406.1953166-.5089313.3320333-.8623503.4101583-1.0602679z" fill="#fff" fill-rule="evenodd" transform="translate(-14 -12)"/></svg>