<svg height="19" viewBox="0 0 19 19" width="19" xmlns="http://www.w3.org/2000/svg"><path d="m18.02232 18.0647276c.9613138-.9613095 2.120528-1.4419552 3.4776823-1.4419552 1.3571425 0 2.5092932.4735795 3.4564701 1.4207566.9471769.9471772 1.4207563 2.0993191 1.4207563 3.456471 0 1.3571492-.4735794 2.5092956-1.4207563 3.4564728-.9471769.947178-2.0993276 1.4207593-3.4564701 1.4207593-1.3571543 0-2.5092996-.4735813-3.4564774-1.4207593-.9471769-.9471772-1.4207581-2.0993236-1.4207581-3.4564728 0-1.3571519.4665132-2.5022276 1.3995532-3.4352724zm1.2299104 5.6830403c.6220264.6220265 1.3712749.9330357 2.2477719.9330357.8764878 0 1.6257391-.3110092 2.2477628-.9330357.6220236-.6220266.9330355-1.3712753.9330355-2.2477679 0-.8764881-.3110119-1.6257395-.9330355-2.2477724-.6220237-.6220238-1.371275-.9330266-2.2477628-.9330266-.876497 0-1.6257455.3110028-2.2477719.9330266-.6220264.6220329-.9330355 1.3712843-.9330355 2.2477724 0 .8764926.3110091 1.6257413.9330355 2.2477679zm8.10044-8.1004465c.2261995.1979167.3392856.452381.3392856.7633929s-.1060199.5796086-.318078.805799c-.212049.2261996-.4735794.3392857-.7845912.3392857-.3110209 0-.5796175-.1130861-.8058079-.3392857-.2261905-.2261904-.3392857-.4947871-.3392857-.805799s.1130952-.5725424.3392857-.7846005c.2261904-.212049.494787-.3180781.8058079-.3180781.3110118 0 .565467.1130953.7633836.3392857zm3.6049144 1.9508929c.0282738.7633928.0424152 2.063979.0424152 3.9017857s-.0141414 3.1383892-.0424152 3.9017857c-.0848214 1.7247114-.6008161 3.0606349-1.547993 4.007813-.9471769.9471768-2.2831028 1.449032-4.0078048 1.5055799-.7634017.0565479-2.0639785.0848214-3.901787.0848214s-3.1383908-.0282735-3.901787-.0848214c-1.7247111-.0848219-3.0535662-.5937453-3.9866062-1.5267857-.3675613-.3392876-.6644335-.7351173-.8906248-1.1875-.2261915-.4523828-.3887644-.8906232-.4877231-1.3147322-.0989588-.4241089-.1484375-.9188961-.1484375-1.484375-.0565479-.7633965-.0848214-2.063979-.0848214-3.9017857s.0282735-3.1525252.0848214-3.944201c.0848219-1.6964285.5937452-3.0111471 1.5267854-3.9441919.93304-.9613185 2.2618951-1.4843704 3.9866062-1.5691919.7633962-.0282828 2.0639785-.0424152 3.901787-.0424152s3.1383853.0141324 3.901787.0424152c1.724702.0848215 3.0606279.6008072 4.0078048 1.5479843.9471769.9471772 1.4631716 2.2831034 1.547993 4.0078148zm-2.0357138 9.5c.0848214-.2261914.1555014-.5159957.212058-.8694201.0565476-.3534235.0989538-.7775271.1272276-1.2723214.0282738-.4947935.0424152-.8976912.0424152-1.2087049 0-.3110138 0-.7492533 0-1.3147322 0-.5654762 0-.8835543 0-.9542433 0-.07068 0-.3816919 0-.9330357s0-.9825081 0-1.2935291c0-.3110119-.0141414-.7139024-.0424152-1.2086986-.0282738-.4947961-.07068-.9189033-.1272276-1.2723214-.0565566-.3534271-.1272366-.6432314-.212058-.8694219-.3392857-.8764881-.9471679-1.4843705-1.8236558-1.8236562-.2261995-.0848305-.5160037-.1555105-.8694217-.2120581-.353427-.0565476-.777525-.0989538-1.2723211-.1272276-.4947961-.0282828-.8906293-.0424152-1.1874997-.0424152-.2968795 0-.7351189 0-1.3147364 0s-.8976864 0-.954234 0c-.0565567 0-.3675595 0-.9330401 0-.5654787 0-1.0037181 0-1.3147318 0-.3110136 0-.7139112.0141324-1.2087055.0424152-.4947934.0282738-.9188968.07068-1.2723211.1272276-.3534235.0565476-.6432277.1272276-.869419.2120581-.8764924.3392857-1.4843729.9471681-1.8236603 1.8236562-.0848214.2261905-.1555059.5159948-.2120535.8694219-.0565476.3534181-.0989583.7775253-.1272321 1.2723214-.0282738.4947962-.0424107.8906205-.0424107 1.1875v1.3147277.9542433.7845987 1.0178571c0 .2686021.007068.6149531.0212049 1.0390621.0141378.4241089.0353427.7845968.0636165 1.0814736.0282738.2968759.0706845.6008162.1272321.9118299s.1130952.5654753.1696428.7633929c.3675613.8764926.9754417 1.4843732 1.8236603 1.8236607.2261913.0848214.5159955.155506.869419.2120536.3534243.0565476.7775277.0989583 1.2723211.1272321.4947943.0282738.8906239.0424107 1.1874997.0424107h1.3147327.954245.954234 1.2935288c.3110118 0 .7139112-.0141369 1.2087073-.0424107s.9188941-.0706845 1.2723211-.1272321c.353418-.0565476.6432222-.1272322.8694217-.2120536.8764879-.3675613 1.4843701-.9754419 1.8236558-1.8236607z" fill="#fff" fill-rule="evenodd" transform="translate(-12 -12)"/></svg>