<svg height="19" viewBox="0 0 19 19" width="19" xmlns="http://www.w3.org/2000/svg"><path d="m17.2410714 30h-3.9441964v-12.680799h3.9441964zm-1.9508928-14.4196429c-.6220266 0-1.1592235-.2261904-1.6116072-.6785714-.4523832-.4523809-.6785714-.9895833-.6785714-1.6116071s.2261882-1.1592262.6785714-1.6116072c.4523837-.4523809.9895806-.6785714 1.6116072-.6785714.3958351 0 .7704599.0989538 1.1238844.2968705.3534235.1979257.6361589.4735885.8482142.8270157.2120545.3534181.3180799.735119.3180799 1.1450848 0 .4099747-.1060254.7916666-.3180799 1.1450938-.2120553.3534181-.4947907.6361562-.8482142.8482142-.3534245.2120491-.7280493.3180781-1.1238844.3180781zm16.7098214 14.4196429h-3.944201v-6.1919643c0-.4806575-.0141323-.8694183-.0424061-1.1662942-.0282739-.2968768-.0989539-.6361589-.2120491-1.0178571-.1131043-.3816992-.3180871-.6715025-.6149576-.8694201-.2968795-.1979167-.6856376-.2968795-1.1663014-.2968795-.9330358 0-1.5621258.2968795-1.88727.8906295-.3251534.5937527-.48773 1.3854121-.48773 2.375v6.2767857h-3.9441919v-12.680799h3.8169642v1.7388347h.0424153c.2827381-.5654762.7492514-1.0531971 1.399549-1.4631719.6502976-.4099657 1.4278229-.6149486 2.3325938-.6149486.9613096 0 1.7600334.1484353 2.3961986.4453058.6361652.2968795 1.11682.735119 1.4419643 1.3147366.3251533.5796176.5513438 1.2086986.6785714 1.88727.1272367.6785796.1908505 1.484375.1908505 2.4174153z" fill="#fff" fill-rule="evenodd" transform="translate(-13 -11)"/></svg>