<svg height="54" viewBox="0 0 84 54" width="84" xmlns="http://www.w3.org/2000/svg"><path d="m.61719279 19.3729781c5.19546029-5.7486264 12.28552781-10.11267516 20.25229251-10.29378026s16.1512328 4.00768066 18.9460727 11.68420006c1.2437316 3.3569471 1.3450043 7.0261322.2883098 10.4456748-1.3179877 4.08947-5.5720282 8.8916762-10.42034 7.5187827-3.9127758-1.109999-4.6188407-5.5616792-3.8715887-8.9734656.83551-3.8090492 3.5303241-7.0806252 6.8488287-9.0961497 3.5303241-2.1440507 7.9314615-2.6756818 11.6794889-.7886835 4.8247762 2.4303136 5.8838735 7.7992035 4.9954086 12.677357-1.0473295 5.7603106-6.2663253 12.6539887-4.1187115 18.6421412 1.7651621 4.9015219 6.7076158 2.512103 9.0611652-.5141048 2.2652913-2.92105 3.6244661-6.4730468 6.1309962-9.2129917 1.5003877-1.6357881 3.4832531-3.0846289 5.719125-3.5052601 2.5241817-.467368 4.1187115 1.0632622 6.4722609 1.4371566 6.8547126 1.1099991 6.2957446-9.464202 5.4778862-13.3959353-.9649553-4.67368-2.653627-9.3064653-1.7122072-14.1203557.9138612-4.55755236 3.5983288-8.57455434 7.4725193-11.18177949.3883357-.2628945 0-.8996834-.370684-.6309468-5.97877 4.04660469-9.039145 11.17784469-7.8373195 18.26240469.7649036 4.9833113 3.2067111 10.2119908 2.1123106 15.3179862-.1961876 1.1546752-.6222457 2.258931-1.2532651 3.2482076-1.8769556 2.6406292-3.7303758 1.6007354-6.1251123.8821571-1.5356909-.4615259-2.788956-.817894-4.4070212-.4965785-3.347924.6659994-5.9191767 3.2189972-7.766713 5.9297316-1.1473553 1.6766827-2.094659 3.50526-3.1890594 5.1936269-.6966379 1.1556739-1.5173232 2.2330111-2.4476914 3.213155-1.7651621 1.75263-4.5070471 2.3894189-6.1486478.1518946-2.7301173-3.7097335.8060907-10.1126751 2.1181944-13.7639877 1.3121038-3.6513125 2.3888527-7.6356247 1.582762-11.567358-1.3827103-6.7651518-8.6728295-9.9257279-14.9803419-7.711572-5.7897315 1.986314-10.6262755 7.8108877-10.3085464 14.0853031.2765421 5.4857319 5.3484411 8.4827293 10.3144303 5.8012053 6.0545058-3.2482076 7.5078225-11.158411 5.6544024-17.2225108-2.3535494-7.7232562-9.8672558-12.39109416-17.7163431-12.98114626-8.9493716-.6659994-17.18679444 4.02520696-22.97064208 10.45151696-.31772917.3446839.2000517.8646308.51778087.5141048z" fill="#1d1d1b"/></svg>