<svg width="56" height="56" viewBox="0 0 56 56" fill="none" xmlns="http://www.w3.org/2000/svg">
<circle opacity="0.5" cx="28" cy="28" r="23" fill="url(#paint0_linear)"/>
<path d="M50.5534 19.6875C50.7727 19.0391 50.2905 18.3671 49.6061 18.3671H15.6657L12.9963 7.32125C12.8879 6.87237 12.4861 6.55615 12.0243 6.55615H5.77411C5.31206 6.55615 4.9375 6.93071 4.9375 7.39276C4.9375 7.8548 5.31206 8.22936 5.77411 8.22936H11.5319L19.7011 41.9888C19.3074 42.1201 18.9137 42.3169 18.52 42.5794C18.1263 42.8419 17.7983 43.1371 17.5358 43.4652C17.2733 43.8589 17.0601 44.269 16.896 44.6955C16.732 45.122 16.65 45.5649 16.65 46.0242C16.65 46.6148 16.7648 47.1561 16.9945 47.6482C17.2241 48.1404 17.5358 48.5833 17.9295 48.977C18.3232 49.3707 18.7661 49.6823 19.2582 49.912C19.7503 50.1416 20.2917 50.2565 20.8822 50.2565C21.4728 50.2565 22.0141 50.1416 22.5062 49.912C22.9983 49.6823 23.4412 49.3707 23.8349 48.977C24.2286 48.5833 24.5403 48.1404 24.77 47.6482C24.9996 47.1561 25.1144 46.6148 25.1144 46.0242C25.1144 45.5649 25.0324 45.122 24.8684 44.6955C24.7043 44.269 24.4911 43.8917 24.2286 43.5636H36.0395C35.7771 43.8917 35.5638 44.269 35.3998 44.6955C35.2357 45.122 35.1537 45.5649 35.1537 46.0242C35.1537 46.6148 35.2685 47.1561 35.4982 47.6482C35.7279 48.1404 36.0395 48.5833 36.4332 48.977C36.7613 49.3707 37.1878 49.6823 37.7127 49.912C38.2377 50.1416 38.7954 50.2565 39.3859 50.2565C39.9765 50.2565 40.5178 50.1416 41.0099 49.912C41.5021 49.6823 41.945 49.3707 42.3387 48.977C42.7324 48.5833 43.0276 48.1404 43.2245 47.6482C43.4213 47.1561 43.5198 46.6148 43.5198 46.0242C43.5198 45.4337 43.4213 44.8924 43.2245 44.4002C43.0276 43.9081 42.7324 43.4652 42.3387 43.0715C41.945 42.6778 41.5021 42.3661 41.0099 42.1365C40.5178 41.9068 39.9765 41.792 39.3859 41.792H21.3743L20.5869 38.4456H42.7739C43.6315 38.4456 44.3937 37.8988 44.6685 37.0864L50.5534 19.6875ZM23.4412 46.0242C23.4412 46.3523 23.3756 46.6804 23.2444 47.0085C23.1132 47.3366 22.9163 47.599 22.6538 47.7959C22.457 48.0583 22.1945 48.2552 21.8665 48.3864C21.5384 48.5177 21.2103 48.5833 20.8822 48.5833C20.5541 48.5833 20.2425 48.5177 19.9472 48.3864C19.6519 48.2552 19.373 48.0583 19.1106 47.7959C18.9137 47.599 18.7497 47.3366 18.6185 47.0085C18.4872 46.6804 18.4216 46.3523 18.4216 46.0242C18.4216 45.6962 18.4872 45.3845 18.6185 45.0892C18.7497 44.7939 18.9137 44.5151 19.1106 44.2526C19.373 44.0558 19.6519 43.8917 19.9472 43.7605C20.2425 43.6292 20.5541 43.5636 20.8822 43.5636C21.2103 43.5636 21.5384 43.6292 21.8665 43.7605C22.1945 43.8917 22.457 44.0558 22.6538 44.2526C22.9163 44.5151 23.1132 44.7939 23.2444 45.0892C23.3756 45.3845 23.4412 45.6962 23.4412 46.0242ZM41.8466 46.0242C41.8466 46.3523 41.7809 46.6804 41.6497 47.0085C41.5185 47.3366 41.3544 47.599 41.1576 47.7959C40.8951 48.0583 40.6163 48.2552 40.321 48.3864C40.0257 48.5177 39.714 48.5833 39.3859 48.5833C38.9922 48.5833 38.6478 48.5177 38.3525 48.3864C38.1005 48.2744 37.8839 48.1146 37.7035 47.907C37.6413 47.8355 37.574 47.7685 37.5031 47.7055C37.2954 47.5211 37.1359 47.2887 37.0238 47.0085C36.8925 46.6804 36.8269 46.3523 36.8269 46.0242C36.8269 45.6962 36.8925 45.3845 37.0238 45.0892C37.155 44.7939 37.3518 44.5151 37.6143 44.2526C37.8112 44.0558 38.0572 43.8917 38.3525 43.7605C38.6478 43.6292 38.9922 43.5636 39.3859 43.5636C39.714 43.5636 40.0257 43.6292 40.321 43.7605C40.6163 43.8917 40.8951 44.0558 41.1576 44.2526C41.3544 44.5151 41.5185 44.7939 41.6497 45.0892C41.7809 45.3845 41.8466 45.6962 41.8466 46.0242ZM20.1932 36.7724L16.1579 20.0403H48.6378L42.9292 36.7724H20.1932Z" fill="black"/>
<defs>
<linearGradient id="paint0_linear" x1="9" y1="16" x2="47.5" y2="42" gradientUnits="userSpaceOnUse">
<stop stop-color="#ECFF0C"/>
<stop offset="1" stop-color="#07FDC2"/>
</linearGradient>
</defs>
</svg>
