<svg height="55" viewBox="0 0 60 55" width="60" xmlns="http://www.w3.org/2000/svg"><g><path d="m32.5208019 2.92560017-31.63040185-.39220002c-.33368093.042292-.58383224.32614966-.58383224.66250004 0 .33635037.25015131.62020803.58383224.66250004l31.63040185.38160002c.3336809-.042292.5838322-.32614966.5838322-.66250004s-.2501513-.62020804-.5838322-.66250004z"/><path d="m.23320001 3.18000019c.08480001 8.84040051.10600001 17.68080101.11660001 26.50000151 0 3.2966002-1.6324001 11.8826007 2.12000012 14.0344009 1.99280012 1.1342 6.43420038.2226 8.78740056.1908 4.7594002-.0742 9.5400005-.1908 14.2782008-.265 9.6354006-.1484001 19.2602011-.1060001 28.8744017.5512.848 0 .848-1.2720001 0-1.3250001-15.3912009-1.0600001-30.7400018-.4134-46.20540272-.2544-1.44160008 0-4.55800027.4028-5.72400033-.8268001-1.16600007-1.2296-.81620005-4.7806002-.82680005-6.4342003 0-3.4768002 0-6.9642004 0-10.4516006 0-7.2433338-.03533334-14.4866676-.10600001-21.73000131-.059853-.31755605-.33849373-.54669508-.66163059-.54411114-.32313687.00262794-.59804581.23623109-.65276949.55471114z"/><path d="m29.9238017 43.1950025-.5194 8.7450005c0 .8480001 1.2720001.8480001 1.3250001 0l.5194-8.7132005c0-.848-1.2826-.848-1.3250001 0z"/><path d="m17.712601 54.0600032c8.3927357-.6942677 16.825725-.7580466 25.2280015-.1908.8480001.0636.8480001-1.2614001 0-1.3250001-8.4022765-.5672466-16.8352658-.5034677-25.2280015.1908-.848.0742-.8586 1.3992001 0 1.3250001z"/><path d="m49.2582029 4.10220024c-3.2224002 3.04573351-6.4024004 6.14093366-9.5400006 9.28560056-1.4840001 1.4522001-6.0102003 4.6322003-6.3388003 6.7522004-.3286001 2.1200001 4.4732002 7.1868004 6.4236003 6.9854004 2.1200002-.212 5.3742003-4.8336003 6.8688004-6.2752004 2.8938002-2.7772001 5.8194004-5.5226003 8.6814005-8.3422005 1.0600001-1.06 1.8444001-1.3886 1.7172001-2.84080013-.1908-2.24720014-4.0704002-4.54740027-5.7134003-5.69220034-.6996-.48760003-1.3674001.66780004-.6678 1.14480007 1.2402.84800005 5.0774003 3.3602002 4.9608003 5.3000003 0 1.0600001-4.1552003 3.9962002-4.9608003 4.7594003l-4.9608003 4.7700003c-1.2190001 1.1766-3.3814002 4.2400002-4.9608003 4.7700002-3.0952002 1.0812001-5.7876004-2.7984001-4.7276003-5.6392003.5724-1.5476001 3.4662002-3.5828002 4.6428003-4.7594003 3.1270002-3.1800001 6.3600004-6.24340033 9.5400005-9.29620051.6254001-.58300003-.318-1.51580008-.9434-.93280005z"/><path d="m33.782202 19.6630011c-1.5133377 2.8985272-2.7792343 5.9196585-3.7842002 9.0312006-.0607129.2298504.0053469.474647.17345.64275.168103.1681031.4128996.2341629.64275.17345 3.0892219-.6340377 6.1370434-1.4552858 9.1266005-2.4592001.8056001-.2756.4558001-1.5476001-.3498-1.2826001-2.9895571 1.0039143-6.0373786 1.8251624-9.1266005 2.4592002l.8056.8162c.9699895-3.0011405 2.1897224-5.9157349 3.6464002-8.7132005.4028001-.7526001-.742-1.4204001-1.1342-.6678001z"/><path d="m31.8000019 26.0654015-.0954-.053c-.4451654.8990588-.8002302 1.8399808-1.0600001 2.8090002 1.0266468-.1465957 2.0428086-.3590337 3.0422002-.6360001z"/><path d="m32.0756019 25.4930015-.0848-.053c-.3163323-.185898-.7233957-.0817655-.9116001.2332-.4653512.9464064-.8449366 1.932619-1.1342 2.9468002-.0607129.2298504.0053469.4746469.17345.64275.168103.1681031.4128996.2341629.64275.17345 1.0227607-.1440396 2.0353345-.3529272 3.0316002-.6254.2283008-.0632075.4060296-.2426316.4670671-.4715221.0610375-.2288906-.0037527-.4729864-.1702671-.641478l-1.8762001-2.1200001c-.5618-.6466-1.5052001.2968-.9328001.9328001l1.8762001 2.1200001.2862001-1.0706001c-.996322.2748465-2.0088225.4872592-3.0316002.636l.8056.8162001c.2548953-.9153706.5919306-1.8058533 1.0070001-2.6606002l-.9116001.2438001.0954.053c.3172163.1665975.7093777.0531647.888676-.2570498.1792982-.3102144.0818285-.706645-.2208759-.8983503z"/><path d="m56.8266033 10.9180006c1.0600001-.99640002 3.1800002-2.63940012 3.0846002-4.24000021s-2.5546001-3.28600019-3.6464002-4.34600025c-.8904001-.85860005-2.1200001-2.78780017-3.6464002-2.23660013-1.5264001.55120003-2.7242002 2.88320016-3.4556002 4.14460024-.1324348.30974395-.0134356.669629.2775442.8393672.2909797.1697382.6628223.09617747.8672558-.17156716.5206428-1.15551776 1.2833735-2.18574632 2.2366002-3.02100018.6572-.41340002.6254-.51940003 1.3780001 0 .5012805.42612817.9723482.88657024 1.4098 1.37800008.9269576.72262394 1.7728339 1.54362151 2.5228002 2.44860014 1.06 1.7066001-.8374001 3.18000019-1.9610001 4.24000025-.6254001.59360002.3074 1.52640012.9328.94340002z"/><path d="m55.7030033 43.4600025c-.3462667-6.5508003-.4452001-13.0980674-.2968001-19.6418011-.042292-.3336809-.3261496-.5838322-.6625-.5838322s-.620208.2501513-.6625.5838322c-.1625334 6.5508004-.0636 13.0980674.2968 19.6418011.053.8480001 1.3780001.8480001 1.3250001 0z"/></g></svg>