<svg height="62" viewBox="0 0 48 62" width="48" xmlns="http://www.w3.org/2000/svg"><g fill="#1d1d1b"><path d="m5.99101124.41797753-1.55348315 58.09887637c.02779419.2192942.21434469.383693.43539326.383693s.40759907-.1643988.43539326-.383693l1.55348314-58.09887637c-.02779419-.21929422-.21434469-.38369299-.43539326-.38369299s-.40759906.16439877-.43539325.38369299z"/><path d="m16.2941573.77325843c.3831461 10.30314607.7662921 20.62022467.3831461 30.93730337-.3413483 9.2024719-2.4451686 18.7253933-.5155056 27.8651685.1184269.5503371.954382.3204495.8429213-.2298876-1.9993258-9.4393258.2995506-19.4638202.5921348-29.0006742.2995506-9.850337-.0696629-19.7146067-.4319101-29.55797749 0-.56426966-.8916854-.56426966-.8707865 0z"/><path d="m25.3503371.42494382c1.0588764 20.13258428 1.1564045 40.28142318.2925842 60.44651688 0 .5573033.8429214.5573033.8707866 0 .859176-20.1465169.7616479-40.2953558-.2925843-60.44651688 0-.55730337-.8986517-.56426966-.8707865 0z"/><path d="m34.9498876 2.44516854.6339326 58.77460676c.0277942.2192942.2143447.383693.4353933.383693s.4075991-.1643988.4353932-.383693l-.6339325-58.77460676c-.0277942-.21929422-.2143447-.38369299-.4353933-.38369299s-.4075991.16439877-.4353933.38369299z"/><path d="m45.2808989 3.14179775-1.0170787 29.90629215c-.3134831 9.3905618-1.2260674 18.9761798.0487641 28.3249438.0766292.5503371.9125842.3134832.835955-.2368539-1.3235955-9.6901124-.2995505-19.7076405 0-29.4465169l.9613483-28.56179773c0-.55730337-.8498876-.55730337-.8707865 0z"/><path d="m42.5361798 11.78 2.2919101 2.9537079c.170483.1663662.4425507.1663662.6130337 0 .7851647-.8198589 1.5269263-1.6802093 2.2222472-2.5775281.3413483-.4458427-.4179775-.8777528-.7523596-.4458427-.6494249.84098-1.3472334 1.6434597-2.0898876 2.4033708h.6130337l-2.2849438-2.9676405c-.3413483-.4388764-.954382.1811236-.6130337.62z"/><path d="m42.2644944 27.4541573c.8274377.6826855 1.5339534 1.4998886 2.0898876 2.4173034.0793503.1320468.2221252.2128205.3761798.2128205s.2968295-.0807737.3761798-.2128205l2.2919101-3.4831461c.3134831-.4667416-.4388764-.905618-.7523596-.4388764l-2.2919101 3.4831461h.7523596c-.5816367-.9823187-1.326022-1.8586204-2.2013483-2.5914607-.4319102-.3552809-1.0519102.2577528-.62.6130337z"/><path d="m40.9826966 42.0276404 2.6820225 3.5388765c.0793503.1320468.2221252.2128204.3761798.2128204s.2968295-.0807736.3761798-.2128204c.7502552-1.1851055 1.6466604-2.2710898 2.6680898-3.2323596.404045-.3831461-.2089887-.9961798-.62-.6130337-1.0665581 1.0155132-2.0025901 2.1598123-2.7865168 3.4065168h.7523595l-2.695955-3.5388764c-.334382-.4388764-1.0937079 0-.7523596.4388764z"/><path d="m41.4355056 55.3750562c.9733891 1.3417607 1.7042793 2.8436222 2.1595506 4.4375281.0523721.1650599.1955844.2848626.3672992.3072602s.3408657-.0566621.4338244-.2027658l2.6889887-5.2525843c.2577528-.4946068-.4946067-.9404495-.7523595-.4388764l-2.6889888 5.245618.7941573.1044943c-.474841-1.6667668-1.2388125-3.2371527-2.2570786-4.6395505-.3204495-.452809-1.0797753 0-.7453933.4388764z"/><path d="m33.2988764 21.3307865c.3471984-1.3559534 1.0354521-2.6005654 1.9993258-3.6155056h-.62l3.0721349 3.8802247c.3483146.4388764.9613483-.1811236.6130337-.62l-3.0651686-3.8662921c-.1728425-.1672163-.4471574-.1672163-.62 0-1.0682124 1.1215199-1.8309379 2.4982633-2.2152809 3.9986517-.0634817.2308426.0721911.4694396.3030338.5329213.2308426.0634817.4694396-.0721911.5329213-.3030337z"/><path d="m32.4489888 8.26202247c.3622472-.94044944 1.4629213-3.42741573 2.8352809-3.06516854.4249438.11146068 1.0937078.98224719 1.3932584 1.28876405l1.4280899 1.28179775c.4179775.37617978 1.0310112-.23685393.6130337-.61303371-.9125843-.84988764-1.7973034-1.79730337-2.8213483-2.5705618-.348217-.39141721-.8953581-.53914531-1.3932585-.37617977-1.3932584.54337079-2.3894382 2.54966292-2.8770786 3.82449438-.2020225.52247191.6408989.75235955.835955.22988764z"/><path d="m34.1975281 36.8377528c.4167006-1.1478601 1.0166064-2.2206328 1.7764045-3.1766292l-.5294382.0626966c1.3900803.8624504 2.5232059 2.0821844 3.2811236 3.5319101.2577528.4946068 1.0101123.0557304.7523595-.4388764-.8361835-1.5755076-2.0738397-2.9020828-3.5876404-3.8453932-.1719287-.0991677-.389014-.0706038-.5294382.0696629-.8574908 1.0724294-1.5350792 2.2770309-2.0062922 3.5667416-.1950561.5224719.6478652.7523595.8429214.2298876z"/><path d="m33.3755056 51.3276404 1.1285393-1.6579775c.4737079-.6966292.6130338-1.2051685 1.4698877-1.3375281.8568539-.1323595 1.0867416.3065169 1.7067416.8429214l1.455955 1.2469663c.4249438.3692135 1.0379775-.2507865.6130337-.6130337-.8429213-.6966292-1.6649438-1.5047191-2.5426966-2.1874158-.3611964-.3826935-.8671246-.5951833-1.3932584-.5851685-.4995326.1529112-.9210861.4921495-1.1773034.9474157-.6966292.9334832-1.3235955 1.9366292-1.978427 2.9049438-.3204494.4597753.4388764.8986517.7523596.4388764z"/><path d="m22.988764 12.8319101 3.0442697 3.5946068c.1097375.0961743.260616.1304382.401129.0910945.1405129-.0393436.2516608-.1469748.2955002-.2861507.3397243-1.2789234.9555934-2.4678599 1.8042697-3.4831461.3622472-.4249438-.2507865-1.0449438-.6130337-.6130337-.9416037 1.1326436-1.6197465 2.4603758-1.9853933 3.887191l.6966292-.1880899-3.0373033-3.601573c-.3622472-.4249438-.9752809.1880899-.62.62z"/><path d="m23.1002247 27.8164045c1.3623746 1.057738 2.4417396 2.4362617 3.1417978 4.0125843.1602247.3622472.6966292.215955.7941573-.1044944.5205959-1.5794698 1.3101046-3.0571474 2.3337078-4.3678652.3413484-.4388764-.2716854-1.0588764-.6130337-.6130337-1.1237086 1.4229385-1.9911848 3.0305982-2.5635955 4.7510112l.8011236-.1044943c-.7366172-1.6379553-1.8602422-3.0723701-3.2741573-4.1797753-.4388764-.3413483-1.0588764.2716854-.62.62z"/><path d="m22.772809 43.4139326c1.4125479.6542773 2.5652459 1.7628294 3.2741573 3.148764.0793502.1320468.2221252.2128205.3761798.2128205s.2968295-.0807737.3761797-.2128205l2.3058427-3.7757303c.0989751-.2052229.024447-.4520545-.1715645-.5682095-.1960116-.116155-.4483103-.0629985-.580795.1223668l-2.3058427 3.7826966h.7523595c-.7774691-1.523644-2.0361464-2.7480383-3.5806741-3.483146-.5085393-.236854-.9474157.5085393-.4458427.7523595z"/><path d="m22.5847191 55.5701124c1.1839155 1.3478877 2.0208784 2.9644218 2.4382022 4.7092134.049533.1657057.1917661.2868697.3632386.3094319.1714726.0225622.3402071-.057685.4309188-.2049375 1.0036582-1.9434052 2.2642571-3.7429218 3.7478651-5.3501123.3831461-.4110113-.2298876-1.024045-.6130337-.6130337-1.5373196 1.6558905-2.8405236 3.514597-3.8732584 5.5242696l.7941573.1044944c-.4595785-1.888657-1.3730349-3.6366587-2.6611236-5.0923595-.3692135-.4249439-.9822472.1950561-.6130337.6130337z"/><path d="m14.5038202 8.28292135 2.1595506-2.93977528-.5921348.16022472c1.2652415.56708442 2.2736614 1.58543953 2.8283146 2.85617977.2298876.51550562.9822472.06966292.7523595-.4388764-.6230462-1.40614434-1.7412096-2.53422495-3.1417977-3.16966292-.2093599-.11089998-.4687141-.04455357-.5991012.15325842l-2.1595505 2.93977528c-.3274158.4458427.4249438.8847191.7523595.43887641z"/><path d="m13.1593258 22.8633708c1.1429813-1.441359 2.4393714-2.7541 3.8662922-3.9150562h-.6130337c1.2960805 1.1945051 2.3282517 2.6466632 3.030337 4.2633708.2229214.5085393.9752809.0696629.7523596-.4458427-.737917-1.6806572-1.81733-3.1894631-3.1696629-4.4305618-.1719305-.1627716-.4411033-.1627716-.6130337 0-1.4293563 1.1605709-2.7280959 2.4733257-3.8732585 3.9150562-.3483146.4319101.2647191 1.0519101.6130338.6130337z"/><path d="m13.068764 38.1195506c1.2102844-1.6150915 2.577722-3.1062052 4.0822472-4.4514607l-.6966292-.1950562 2.3546068 5.7262921c.215955.5085394 1.0588764.285618.8429213-.2368539l-2.3685393-5.7193258c-.0482938-.1356411-.160048-.2389668-.2990523-.276498s-.2875766-.0044936-.3975769.0884081c-1.5583557 1.3967991-2.9726302 2.9464331-4.2215731 4.625618-.334382.4458427.4179776.8847191.7523596.4388764z"/><path d="m11.9889888 51.6132584c1.2817977-1.5186517 2.6100374-2.9978277 3.9847191-4.4375281l-.6966292-.0905618 3.3647191 4.5489888c.3274157.4458427 1.0867415 0 .7523595-.4388764l-3.3716854-4.5211236c-.0698588-.1180756-.1901892-.1974135-.3262381-.2150999-.1360489-.0176863-.2726648.0282486-.3703911.1245381-1.3932584 1.4443446-2.719176 2.9258427-3.9777528 4.4444944-.3622472.4249438.2507865 1.0449438.6130337.6130337z"/><path d="m1.87393258 10.1011236 4.39573034 4.0404494c.0964436.0990181.2338997.1468151.37097059.1289959s.2577375-.0991721.32565862-.2195577c1.14943821-1.5465168 2.37550562-3.030337 3.67123597-4.46539322.3761798-.41101124-.2368539-1.03101124-.6130337-.61303371-1.35146069 1.48382023-2.61235957 3.03033703-3.81056182 4.63955053l.69662922-.0835955-4.40269663-4.04044941c-.41101124-.38314607-1.03101124.22988764-.62.61303371z"/><path d="m1.99235955 25.8867416c1.11460674.2925842 1.60921348 2.0898876 2.02022472 2.9676404l1.39325843 3.0024719c.07935025.1320468.22212518.2128205.37617977.2128205.1540546 0 .29682953-.0807737.37617978-.2128205l3.28112359-6.081573c.2647191-.4946067-.48764045-.9334831-.75235955-.4388764l-3.2741573 6.081573h.75235955c-.69662921-1.4629213-1.35146067-2.932809-2.0411236-4.388764-.4388764-.9125843-.87078651-1.7137079-1.89483146-1.9505618-.22562542-.0465189-.4488167.0893309-.51113558.3111128-.06231887.2217818.05744833.4540001.27428165.5318085z"/><path d="m1.30966292 43.6995506c1.47434629.6890337 2.67590144 1.8513544 3.41348315 3.3020224.09071167.1472525.25944618.2274997.43091873.2049375s.31370559-.1437262.36323857-.3094318c.55578716-1.72226 1.69049064-3.1990975 3.21146067-4.1797753.46674158-.3065169 0-1.0588764-.4388764-.7523596-1.71200807 1.1060078-2.98924813 2.7696191-3.61550562 4.7092135l.8011236-.1044944c-.80466809-1.585163-2.11665444-2.8554601-3.72696629-3.6085393-.50157304-.2438202-.94741573.5085393-.43887641.7453933z"/><path d="m.15325843 54.8247191c1.47802228 1.1546305 2.80918977 2.4857979 3.96382022 3.9638202.170483.1663662.44255071.1663662.61303371 0l3.74786517-4.674382c.3483146-.4319101-.2647191-1.0519101-.61303371-.6130337l-3.74786517 4.6674157h.61303371c-1.15448946-1.4760856-2.48570611-2.8049627-3.96382022-3.9568539-.43887641-.3413483-1.05887641.2716854-.61303371.6130337z"/><path d="m10.8883146 14.9008989h-.334382c-.2192942.0277942-.383693.2143447-.383693.4353932 0 .2210486.1643988.4075991.383693.4353933h.334382c.2192942-.0277942.383693-.2143447.383693-.4353933 0-.2210485-.1643988-.407599-.383693-.4353932z"/><path d="m11.2226966 30.8885393c.2192942-.0277942.383693-.2143447.383693-.4353932 0-.2210486-.1643988-.4075991-.383693-.4353933-.2192942.0277942-.383693.2143447-.383693.4353933 0 .2210485.1643988.407599.383693.4353932z"/><path d="m10.6514607 45.5595506v-.3343821c-.0277942-.2192942-.2143447-.383693-.4353933-.383693-.22104855 0-.40759905.1643988-.43539324.383693v.3343821c.02779419.2192942.21434469.383693.43539324.383693.2210486 0 .4075991-.1643988.4353933-.383693z"/><path d="m21.6442697 47.2802247c.3154849 0 .5712359-.255751.5712359-.5712359s-.255751-.571236-.5712359-.571236c-.2192943.0277942-.383693.2143447-.383693.4353933 0 .2210485.1643987.407599.383693.4353932v-.5991011c-.5573034 0-.5573034.905618 0 .8707865z"/><path d="m32.0449438 44.9883146c.2192942-.0277942.383693-.2143447.383693-.4353933 0-.2210485-.1643988-.407599-.383693-.4353932-.2192942.0277942-.383693.2143447-.383693.4353932 0 .2210486.1643988.4075991.383693.4353933z"/><path d="m40.5368539 46.9040449v-.334382c-.0277942-.2192942-.2143447-.383693-.4353932-.383693-.2210486 0-.4075991.1643988-.4353933.383693v.334382c.0277942.2192943.2143447.383693.4353933.383693.2210485 0 .407599-.1643987.4353932-.383693z"/><path d="m41.1011236 31.3483146h-.3413483c-.2192942.0277942-.383693.2143447-.383693.4353933 0 .2210485.1643988.407599.383693.4353932h.3413483c.2192942-.0277942.383693-.2143447.383693-.4353932 0-.2210486-.1643988-.4075991-.383693-.4353933z"/><path d="m31.7105618 31.8916854c.2192942-.0277942.383693-.2143447.383693-.4353933 0-.2210485-.1643988-.407599-.383693-.4353932-.2192942.0277942-.383693.2143447-.383693.4353932 0 .2210486.1643988.4075991.383693.4353933z"/><path d="m22.0692135 33.4730337v-.334382c-.0277942-.2192942-.2143447-.383693-.4353933-.383693-.2210485 0-.407599.1643988-.4353932.383693v.334382c.0277942.2192942.2143447.383693.4353932.383693.2210486 0 .4075991-.1643988.4353933-.383693z"/><path d="m21.2959551 19.1294382c.2192942-.0277942.3836929-.2143447.3836929-.4353933 0-.2210485-.1643987-.407599-.3836929-.4353932-.2192943.0277942-.383693.2143447-.383693.4353932 0 .2210486.1643987.4075991.383693.4353933z"/><path d="m31.0348315 15.7716854c.2192942-.0277942.383693-.2143447.383693-.4353933 0-.2210485-.1643988-.407599-.383693-.4353932-.2192943.0277942-.383693.2143447-.383693.4353932 0 .2210486.1643987.4075991.383693.4353933z"/><path d="m40.4393258 16.7817978c.2192943-.0277942.383693-.2143447.383693-.4353933s-.1643987-.4075991-.383693-.4353933c-.2192942.0277942-.3836929.2143447-.3836929.4353933s.1643987.4075991.3836929.4353933z"/><path d="m40.7737079 4.35393258c.2192942-.02779419.383693-.21434468.383693-.43539325s-.1643988-.40759907-.383693-.43539326c-.2192943.02779419-.383693.21434469-.383693.43539326s.1643987.40759906.383693.43539325z"/><path d="m31.0348315 4.01955056c.2192942-.02779419.383693-.21434469.383693-.43539326s-.1643988-.40759906-.383693-.43539326c-.2192943.0277942-.383693.21434469-.383693.43539326s.1643987.40759907.383693.43539326z"/><path d="m20.627191 3.14876404h-.334382c-.2192942.0277942-.383693.21434469-.383693.43539326s.1643988.40759907.383693.43539326h.334382c.2192942-.02779419.383693-.21434469.383693-.43539326s-.1643988-.40759906-.383693-.43539326z"/><path d="m10.8883146 4.01955056c.2192942-.02779419.383693-.21434469.383693-.43539326s-.1643988-.40759906-.383693-.43539326c-.2192942.0277942-.383693.21434469-.383693.43539326s.1643988.40759907.383693.43539326z"/><path d="m10.8883146 58.4262921c.2192942-.0277942.383693-.2143447.383693-.4353932 0-.2210486-.1643988-.4075991-.383693-.4353933-.2192942.0277942-.383693.2143447-.383693.4353933 0 .2210485.1643988.407599.383693.4353932z"/><path d="m19.9514607 59.0950562c.2192942-.0277942.383693-.2143447.383693-.4353933 0-.2210485-.1643988-.407599-.383693-.4353932-.2192942.0277942-.383693.2143447-.383693.4353932 0 .2210486.1643988.4075991.383693.4353933z"/><path d="m31.3483146 60.1051685c.2462321 0 .4458427-.1996105.4458427-.4458427 0-.2462321-.1996106-.4458427-.4458427-.4458427-.2192942.0277942-.383693.2143447-.383693.4353933s.1643988.4075991.383693.4353933z"/><path d="m39.4361798 60.1051685c.2192942-.0277942.383693-.2143446.383693-.4353932s-.1643988-.4075991-.383693-.4353933c-.2192942.0277942-.383693.2143447-.383693.4353933s.1643988.407599.383693.4353932z"/></g></svg>