<svg height="39" viewBox="0 0 27 39" width="27" xmlns="http://www.w3.org/2000/svg"><path d="m924.457939 3158.82184-5.929905 15.17816-2.313082-5.12831-5.214952 2.27465 5.845792-14.97136c-1.345792-1.10289-2.425229-2.45387-3.238316-4.05304-.813088-1.59915-1.219626-3.33615-1.219626-5.21102 0-1.65431.308408-3.1983.925232-4.63202.644864-1.4613 1.514013-2.72958 2.607478-3.80488 1.093463-1.0753 2.383168-1.91623 3.869158-2.5228 1.45795-.63416 3.028027-.95122 4.710282-.95122 1.654209 0 3.224285.31706 4.710279.95122 1.457943.60657 2.740646 1.4475 3.848127 2.5228s1.969614 2.34358 2.586455 3.80488c.64485 1.43372.967285 2.97771.967285 4.63202 0 1.87487-.406538 3.61187-1.219631 5.21102-.813093 1.59917-1.906541 2.95015-3.280381 4.05304l5.887866 14.97136-5.214969-2.27465-2.35514 5.12831-5.929891-15.17816s-.007014 0-.021032 0c-.01402 0-.021029 0-.021029 0zm-1.38785-.08271c-.925237-.11029-1.815415-.31707-2.67056-.62036-.855144-.30329-1.66121-.68929-2.418223-1.15801l-4.58411 11.70414 3.490653-1.53022 1.556075 3.43266zm7.948596-1.77837c-.757018.46872-1.563077.85472-2.418223 1.15801-.855144.30329-1.745323.51007-2.670561.62036l4.626172 11.82821 1.556061-3.43266 3.448606 1.53022zm-6.518689.53765c1.485988 0 2.873823-.27572 4.16355-.82715 1.317765-.55143 2.467288-1.30965 3.448588-2.27466.981317-.965 1.752349-2.08165 2.313096-3.34994.560748-1.29587.841122-2.67443.841122-4.13574 0-1.4613-.280374-2.83986-.841122-4.13573-.560747-1.26831-1.331779-2.38494-2.313096-3.34996-.9813-.96501-2.130823-1.72321-3.448588-2.27465-1.289727-.55143-2.677562-.82714-4.16355-.82714-1.485989 0-2.887844.27571-4.205606.82714-1.289726.55144-2.425228 1.30964-3.406541 2.27465-.981314.96502-1.752334 2.08165-2.313083 3.34996-.560751 1.29587-.841121 2.67443-.841121 4.13573 0 1.46131.28037 2.83987.841121 4.13574.560749 1.26829 1.331769 2.38494 2.313083 3.34994.981313.96501 2.116815 1.72323 3.406541 2.27466 1.317762.55143 2.719617.82715 4.205606.82715zm0-2.64687c-2.243002 0-4.149524-.772-5.719624-2.31601-1.570102-1.54403-2.355139-3.41888-2.355139-5.62461 0-2.20574.785037-4.08059 2.355139-5.6246 1.5701-1.54403 3.476622-2.31601 5.719624-2.31601 2.214964 0 4.114477.77198 5.698598 2.31601 1.584125 1.54401 2.37617 3.41886 2.37617 5.6246 0 2.20573-.792045 4.08058-2.37617 5.62461-1.584121 1.54401-3.483634 2.31601-5.698598 2.31601zm0-1.32344c1.850476 0 3.434571-.64793 4.752343-1.94379 1.317748-1.29587 1.976631-2.85366 1.976631-4.67339 0-1.81974-.658883-3.37751-1.976631-4.67338-1.317772-1.29588-2.901867-1.9438-4.752343-1.9438-1.850477 0-3.434572.64792-4.752335 1.9438-1.317764 1.29587-1.976634 2.85364-1.976634 4.67338 0 1.81973.65887 3.37752 1.976634 4.67339 1.317763 1.29586 2.901858 1.94379 4.752335 1.94379z" fill="#fff" fill-rule="evenodd" opacity=".495768" transform="translate(-911 -3135)"/></svg>