<svg width="87" height="31" viewBox="0 0 87 31" fill="none" xmlns="http://www.w3.org/2000/svg">
<path d="M13.5326 27.488L4.95016 5.19678V25.4432L7.71496 26.5952V27.2H1.55176V26.5952L4.25896 25.4432V5.19678L1.60936 4.79358V4.15999H7.97416L15.203 22.6496L22.5758 4.15999H28.3934V4.79358L25.7438 5.19678V26.1632L28.3934 26.5952V27.2H19.9262V26.5952L22.5758 26.1632V6.06078L14.051 27.488H13.5326Z" fill="black"/>
<path d="M41.5181 27.776C39.4253 27.776 37.5917 27.2672 36.0173 26.2496C34.4429 25.232 33.2237 23.8112 32.3597 21.9872C31.5149 20.1632 31.0925 18.0608 31.0925 15.68C31.0925 13.2992 31.5437 11.1968 32.4461 9.37279C33.3485 7.54878 34.6061 6.12798 36.2189 5.11038C37.8509 4.09278 39.7133 3.58398 41.8061 3.58398C43.7837 3.58398 45.4541 4.08318 46.8173 5.08159L48.5741 3.58398H49.1789V10.7264H48.5741L46.6733 5.97438C45.2909 4.82238 43.6685 4.24638 41.8061 4.24638C40.4621 4.24638 39.2525 4.59198 38.1773 5.28318C37.1213 5.97438 36.2861 6.98238 35.6717 8.30718C35.0765 9.63198 34.7789 11.2064 34.7789 13.0304V18.3008C34.7789 20.1248 35.0573 21.6992 35.6141 23.024C36.1901 24.3488 36.9773 25.3664 37.9757 26.0768C38.9933 26.768 40.1741 27.1136 41.5181 27.1136C43.1693 27.1136 44.4461 26.6048 45.3485 25.5872C46.2701 24.5696 46.7309 23.2064 46.7309 21.4976V18.8192L44.0525 18.416V17.7824H52.6637V18.416L49.9853 18.8192V21.4976C49.9853 22.592 49.6877 23.6192 49.0925 24.5792C48.4973 25.52 47.5661 26.288 46.2989 26.8832C45.0317 27.4784 43.4381 27.776 41.5181 27.776Z" fill="black"/>
<path d="M62.6543 26.5954L65.3039 26.1634V5.19696L62.6543 4.79376V4.16016H73.6847C75.7967 4.16016 77.6687 4.64016 79.3007 5.60015C80.9519 6.54096 82.2383 7.88496 83.1599 9.63216C84.0815 11.3602 84.5423 13.3762 84.5423 15.6802C84.5423 17.9842 84.0815 20.0098 83.1599 21.757C82.2383 23.485 80.9519 24.829 79.3007 25.789C77.6495 26.7298 75.7775 27.2002 73.6847 27.2002H62.6543V26.5954ZM73.6847 26.509C75.0863 26.509 76.3247 26.1826 77.3999 25.5298C78.4943 24.877 79.3487 23.9074 79.9631 22.621C80.5775 21.3154 80.8847 19.741 80.8847 17.8978V13.4626C80.8847 11.6194 80.5775 10.0546 79.9631 8.76816C79.3487 7.48176 78.4943 6.51216 77.3999 5.85935C76.3247 5.20656 75.0863 4.88016 73.6847 4.88016H68.4719V26.509H73.6847Z" fill="black"/>
<path fill-rule="evenodd" clip-rule="evenodd" d="M58.1396 2.6001V27.0801H55.9796V2.6001H58.1396Z" fill="#737373"/>
</svg>
