<svg height="54" viewBox="0 0 42 54" width="42" xmlns="http://www.w3.org/2000/svg"><g fill="#1d1d1b"><path d="m5.2121798.36364045-1.35153034 50.54602275c.02418095.190786.18647988.3338129.37879214.3338129.19231225 0 .35461119-.1430269.37879213-.3338129l1.35153035-50.54602275c-.02418095-.19078597-.18647988-.3338129-.37879214-.3338129s-.35461119.14302693-.37879214.3338129z"/><path d="m14.1759169.67273484c.3333371 8.96373712.6666742 17.93959556.3333371 26.91545406-.296973 8.0061506-2.1272966 16.2910922-.4484899 24.2426968.1030315.4787932.8303124.278791.7333416-.2000023-1.7394135-8.2122135.260609-16.9335237.5151573-25.2305866.260609-8.5697933-.0606067-17.15170799-.3757618-25.71544062 0-.49091461-.7757663-.49091461-.7575843 0z"/><path d="m22.0547934.36970113c.9212225 17.51534837 1.0060719 35.04483837.2545483 52.58846997 0 .4848539.7333416.4848539.7575843 0 .7474831-17.5274698.6626337-35.0569598-.2545483-52.58846997 0-.48485394-.781827-.49091461-.7575843 0z"/><path d="m30.4064024 2.12729664.5515214 51.13390816c.0241809.190786.1864798.3338129.3787921.3338129s.3546112-.1430269.3787921-.3338129l-.5515213-51.13390816c-.024181-.19078597-.1864799-.3338129-.3787921-.3338129-.1923123 0-.3546112.14302693-.3787922.3338129z"/><path d="m39.3943822 2.73336406-.8848584 26.01847434c-.2727303 8.1697888-1.0666787 16.5092765.0424247 24.6427012.0666674.4787933.7939483.2727304.7272809-.2060629-1.1515281-8.4303978-.260609-17.1456473 0-25.6184698l.8363731-24.84876419c0-.48485393-.7394023-.48485393-.7575843 0z"/><path d="m37.0064766 10.2486001 1.9939618 2.5697258c.1483202.1447386.3850191.1447386.5333393 0 .6830933-.7132772 1.3284259-1.4617821 1.9333551-2.2424494.296973-.3878832-.3636404-.76364499-.6545528-.3878832-.5649997.7316526-1.1720931 1.42981-1.8182023 2.0909326h.5333394l-1.9879012-2.5818472c-.296973-.38182247-.8303123.15757753-.5333393.5394z"/><path d="m36.7701103 23.885117c.7198708.5939363 1.3345395 1.3049031 1.8182023 2.1030539.0690347.1148807.1932489.1851539.3272764.1851539s.2582417-.0702732.3272764-.1851539l1.9939618-3.0303371c.2727303-.4060651-.3818225-.7878876-.6545528-.3818224l-1.9939618 3.0303371h.6545528c-.5060239-.8546173-1.1536391-1.6169997-1.9151731-2.2545708-.3757618-.3090944-.9151618.2242449-.5394.5333393z"/><path d="m35.6549463 36.5640474 2.3333595 3.0788225c.0690347.1148807.1932489.1851538.3272764.1851538s.2582417-.0702731.3272764-.1851538c.6527221-1.0310417 1.4325946-1.9758481 2.3212383-2.8121528.3515191-.3333371-.1818203-.8666765-.5394-.5333394-.9279057.8834965-1.7422535 1.8790367-2.4242697 2.9636697h.6545528l-2.3454809-3.0788225c-.2909124-.3818225-.9515259 0-.6545528.3818225z"/><path d="m36.0488901 48.1762991c.8468485 1.1673319 1.4827229 2.4739513 1.878809 3.8606495.0455637.1436021.1701585.2478305.3195503.2673164.1493919.0194859.2965532-.0492961.3774272-.1764063l2.3394203-4.5697483c.2242449-.4303079-.4303079-.818191-.6545529-.3818225l-2.3394202 4.5636877.6909169.0909101c-.4131117-1.4500872-1.0777669-2.8163229-1.9636585-4.036409-.278791-.3939439-.9394045 0-.6484921.3818224z"/><path d="m28.9700226 18.5577844c.3020626-1.1796795.9008433-2.2624919 1.7394135-3.1454899h-.5394l2.6727573 3.3757955c.3030337.3818225.8363731-.1575775.5333394-.5394l-2.6666967-3.3636742c-.150373-.1454781-.389027-.1454781-.5394 0-.9293448.9757223-1.592916 2.1734891-1.9272944 3.478827-.0552291.2008331.0628063.4084125.2636394.4636416.200833.0552291.4084124-.0628063.4636415-.2636394z"/><path d="m28.2306204 7.18795959c.315155-.81819102 1.2727416-2.9818517 2.4666944-2.66669664.3697011.09697078.9515258.85455506 1.2121348 1.12122472l1.2424382 1.11516405c.3636405.32727641.8969798-.20606292.5333394-.53333933-.7939484-.73940225-1.563654-1.56365394-2.4545731-2.23638877-.3029488-.34053298-.7789615-.46905643-1.2121348-.32727641-1.2121349.47273259-2.0788113 2.21820675-2.5030585 3.32731013-.1757595.45455057.5575821.65455281.7272809.20000225z"/><path d="m29.7518496 32.0488451c.3625295-.9986383.8844476-1.9319505 1.5454719-2.7636674l-.4606112.0545461c1.2093699.7503318 2.1951892 1.8115004 2.8545775 3.0727618.224245.4303078.8787978.0484854.6545528-.3818225-.7274796-1.3706917-1.8042405-2.5248121-3.1212472-3.3454922-.149578-.0862758-.3384422-.0614253-.4606112.0606068-.746017.9330135-1.3355189 1.9810169-1.7454742 3.1030652-.1696989.4545505.5636427.6545528.7333416.2000022z"/><path d="m29.03669 44.6550474.9818293-1.4424404c.4121258-.6060674.5333393-1.0484967 1.2788022-1.1636495s.9454652.2666697 1.4848652.7333416l1.2666809 1.0848607c.3697011.3212157.9030405-.2181843.5333393-.5333393-.7333415-.6060675-1.4485011-1.3091057-2.212146-1.9030517-.3142409-.3329434-.7543984-.5178096-1.2121349-.5090967-.4345933.1330327-.8013449.4281701-1.0242539.8242517-.6060674.8121304-1.1515281 1.6848674-1.7212315 2.5273012-.278791.4000045.3818225.7818269.6545528.3818224z"/><path d="m20.0002248 11.1637619 2.6485146 3.1273078c.0954716.0836718.2267359.1134813.3489822.0792523.1222463-.0342289.218945-.1278681.2570853-.2489511.2955601-1.1126634.8313662-2.1470381 1.5697146-3.0303371.315155-.3697012-.2181843-.9091012-.5333393-.5333394-.8191952.9854-1.4091795 2.140527-1.7272922 3.3818562l.6060674-.1636382-2.6424539-3.1333685c-.3151551-.3697011-.8484944.1636382-.5394.5394z"/><path d="m20.0971956 24.200272c1.1852659.9202321 2.1243135 2.1195478 2.7333641 3.4909484.1393955.315155.6060674.1878809.6909168-.0909101.4529185-1.3741387 1.1397911-2.6597182 2.0303259-3.8000428.296973-.3818224-.2363663-.9212224-.5333393-.5333393-.9776265 1.2379565-1.7323308 2.6366205-2.2303281 4.1333798l.6969775-.0909101c-.640857-1.4250211-1.6184107-2.672962-2.8485169-3.6364045-.3818225-.296973-.9212225.2363663-.5394.5394z"/><path d="m19.8123439 37.7701216c1.2289167.5692212 2.231764 1.5336616 2.8485169 2.7394247.0690347.1148807.1932489.1851538.3272764.1851538s.2582417-.0702731.3272764-.1851538l2.0060832-3.2848854c.0861082-.1785439.0212688-.3932875-.1492612-.4943423s-.39003-.0548087-.5052916.1064591l-2.0060832 3.2909461h.6545528c-.6763981-1.3255703-1.7714474-2.3907933-3.1151865-3.0303371-.4424292-.2060629-.8242517.4424292-.3878832.6545528z"/><path d="m19.6487057 48.345998c1.0300065 1.1726623 1.7581642 2.579047 2.121236 4.0970158.0430937.1441639.1668364.2495766.3160175.2692057.1491812.0196291.2959802-.050186.3748994-.1782956.8731827-1.6907626 1.9699037-3.2563421 3.2606427-4.6545978.333337-.3575798-.2000023-.8909191-.5333394-.5333393-1.3374681 1.4406248-2.4712556 3.0576994-3.3697348 4.8061146l.6909168.0909101c-.3998332-1.6431316-1.1945403-3.163893-2.3151775-4.4303528-.3212157-.3697011-.8545551.1696989-.5333393.5333393z"/><path d="m12.6183237 7.20614161 1.878809-2.55760451-.5151573.13939551c1.1007601.49336345 1.9780854 1.3793324 2.4606337 2.48487642.2000022.44848989.854555.06060674.6545528-.38182248-.5420502-1.22334557-1.5148524-2.20477571-2.7333641-2.75760675-.1821431-.09648298-.4077812-.0387616-.5212179.13333483l-1.878809 2.55760451c-.2848517.38788315.3697011.76970562.6545528.38182247z"/><path d="m11.4486135 19.8911327c.9943937-1.2539824 2.1222532-2.396067 3.3636742-3.4060989h-.5333393c1.1275901 1.0392195 2.025579 2.302597 2.6363933 3.7091326.1939415.4424292.8484944.0606067.6545528-.3878831-.6419878-1.4621718-1.5810772-2.774833-2.7576068-3.8545888-.1495795-.1416113-.3837598-.1416113-.5333393 0-1.2435399 1.0096966-2.3734434 2.1517933-3.3697349 3.4060989-.3030337.3757618.2303057.9151618.5333394.5333393z"/><path d="m11.3698248 33.1640092c1.0529474-1.4051296 2.2426181-2.7023985 3.5515551-3.8727708l-.6060675-.1696989 2.0485079 4.9818742c.1878809.4424292.9212225.2484876.7333416-.206063l-2.0606292-4.9758135c-.0420156-.1180077-.1392418-.2079011-.2601755-.2405532-.1209338-.0326521-.2501917-.0039094-.345892.076915-1.3557694 1.2152152-2.5861882 2.5633969-3.6727685 4.0242877-.2909124.3878831.3636404.7697056.6545528.3818225z"/><path d="m10.4304203 44.9035351c1.115164-1.321227 2.2707326-2.6081101 3.4667056-3.8606495l-.6060674-.0787887 2.9273056 3.9576202c.2848517.3878831.9454652 0 .6545528-.3818225l-2.9333663-3.9333775c-.0607772-.1027258-.1654646-.1717498-.2838271-.1871369-.1183626-.0153871-.2372184.0245762-.3222403.1083481-1.2121348 1.2565798-2.3656831 2.5454832-3.46064494 3.8667101-.31515506.3697012.21818424.9091012.53333934.5333394z"/><path d="m1.63032136 8.78797758 3.82428541 3.51519102c.08390593.0861458.20349274.1277291.32274441.1122264.11925168-.0155027.22423163-.0862798.28332301-.1910152 1.00001124-1.3454696 2.0666899-2.63639323 3.1939753-3.88489211.32727641-.35757978-.20606292-.89697978-.53333933-.53333933-1.17577079 1.2909236-2.27275282 2.63639324-3.31518878 4.03640904l.60606742-.0727281-3.83034609-3.51519105c-.35757978-.33333708-.89697978.20000225-.5394.53333933z"/><path d="m1.73335282 22.5214653c.96970787.2545483 1.40001574 1.8182022 1.75759551 2.5818472l1.21213484 2.6121506c.06903472.1148807.19324891.1851538.32727641.1851538s.25824169-.0702731.3272764-.1851538l2.85457755-5.2909686c.23030562-.4303079-.4242472-.8121303-.65455281-.3818225l-2.84851687 5.2909686h.65455281c-.60606742-1.2727416-1.17577079-2.5515438-1.77577754-3.8182247-.38182247-.7939484-.75758427-1.4909259-1.64850338-1.6969888-.19629412-.0404714-.39047054.0777179-.44468795.2706681-.05421742.1929502.04998003.3949802.23862503.4626735z"/><path d="m1.13940675 38.0186092c1.28268127.5994594 2.32803426 1.6106784 2.96973035 2.8727596.07891916.1281096.22571818.1979246.3748993.1782955.14918112-.019629.27292387-.1250417.31601756-.2692056.48353483-1.4983662 1.47072687-2.7832149 2.7939708-3.6364046.40606517-.2666696 0-.9212224-.38182247-.6545528-1.48944703.9622268-2.60064589 2.4095687-3.14548991 4.0970158l.69697753-.0909101c-.70006124-1.3790919-1.84148936-2.4842503-3.24246069-3.1394293-.43636854-.2121236-.82425169.4424292-.38182247.6484922z"/><path d="m.13333483 47.6975059c1.2858794 1.0045285 2.44399512 2.1626442 3.44852362 3.4485236.14832021.1447386.38501911.1447386.53333933 0l3.26064271-4.0667124c.30303371-.3757618-.23030562-.9151618-.53333933-.5333393l-3.26064271 4.0606517h.53333933c-1.00440584-1.2841945-2.16256434-2.4403176-3.44852362-3.4424629-.38182247-.2969731-.92122248.2363662-.53333933.5333393z"/><path d="m9.47283376 12.9637821h-.29091236c-.19078597.0241809-.33381291.1864799-.33381291.3787921 0 .1923123.14302694.3546112.33381291.3787922h.29091236c.19078597-.024181.33381291-.1864799.33381291-.3787922 0-.1923122-.14302694-.3546112-.33381291-.3787921z"/><path d="m9.76374612 26.8730294c.19078597-.024181.33381288-.1864799.33381288-.3787922 0-.1923122-.14302691-.3546112-.33381288-.3787921-.19078597.0241809-.3338129.1864799-.3338129.3787921 0 .1923123.14302693.3546112.3338129.3787922z"/><path d="m9.26677084 39.6368092v-.2909124c-.02418095-.1907859-.18647988-.3338129-.37879214-.3338129s-.35461119.143027-.37879214.3338129v.2909124c.02418095.190786.18647988.3338129.37879214.3338129s.35461119-.1430269.37879214-.3338129z"/><path d="m18.8305147 41.1337957c.2744719 0 .4969753-.2225034.4969753-.4969753 0-.2744718-.2225034-.4969752-.4969753-.4969752-.190786.0241809-.3338129.1864798-.3338129.3787921s.1430269.3546112.3338129.3787921v-.5212179c-.4848539 0-.4848539.7878876 0 .7575842z"/><path d="m27.8791013 39.1398339c.1907859-.0241809.3338129-.1864799.3338129-.3787921 0-.1923123-.143027-.3546112-.3338129-.3787922-.190786.024181-.3338129.1864799-.3338129.3787922 0 .1923122.1430269.3546112.3338129.3787921z"/><path d="m35.2670631 40.8065193v-.2909123c-.0241809-.190786-.1864799-.3338129-.3787921-.3338129-.1923123 0-.3546112.1430269-.3787922.3338129v.2909123c.024181.190786.1864799.3338129.3787922.3338129.1923122 0 .3546112-.1430269.3787921-.3338129z"/><path d="m35.7579777 27.2730339h-.296973c-.190786.0241809-.3338129.1864798-.3338129.3787921s.1430269.3546112.3338129.3787921h.296973c.190786-.0241809.3338129-.1864798.3338129-.3787921s-.1430269-.3546112-.3338129-.3787921z"/><path d="m27.5881889 27.7457664c.190786-.0241809.3338129-.1864798.3338129-.3787921s-.1430269-.3546112-.3338129-.3787921c-.190786.0241809-.3338129.1864798-.3338129.3787921s.1430269.3546112.3338129.3787921z"/><path d="m19.2002158 29.1215395v-.2909124c-.0241809-.1907859-.1864798-.3338129-.3787921-.3338129s-.3546112.143027-.3787921.3338129v.2909124c.0241809.190786.1864798.3338129.3787921.3338129s.3546112-.1430269.3787921-.3338129z"/><path d="m18.527481 16.6426113c.190786-.0241809.3338129-.1864799.3338129-.3787921 0-.1923123-.1430269-.3546112-.3338129-.3787921-.190786.0241809-.3338129.1864798-.3338129.3787921 0 .1923122.1430269.3546112.3338129.3787921z"/><path d="m27.0003035 13.7213664c.190786-.024181.3338129-.1864799.3338129-.3787922 0-.1923122-.1430269-.3546112-.3338129-.3787921-.190786.0241809-.3338129.1864799-.3338129.3787921 0 .1923123.1430269.3546112.3338129.3787922z"/><path d="m35.1822137 14.6001641c.1907859-.0241809.3338129-.1864799.3338129-.3787921 0-.1923123-.143027-.3546112-.3338129-.3787921-.190786.0241809-.3338129.1864798-.3338129.3787921 0 .1923122.1430269.3546112.3338129.3787921z"/><path d="m35.473126 3.78792137c.190786-.02418095.3338129-.18647988.3338129-.37879214s-.1430269-.35461119-.3338129-.37879213c-.1907859.02418094-.3338129.18647987-.3338129.37879213s.143027.35461119.3338129.37879214z"/><path d="m27.0003035 3.49700901c.190786-.02418095.3338129-.18647988.3338129-.37879214s-.1430269-.35461119-.3338129-.37879214c-.190786.02418095-.3338129.18647988-.3338129.37879214s.1430269.35461119.3338129.37879214z"/><path d="m17.9456563 2.73942473h-.2909124c-.190786.02418095-.3338129.18647988-.3338129.37879214s.1430269.35461119.3338129.37879214h.2909124c.1907859-.02418095.3338129-.18647988.3338129-.37879214s-.143027-.35461119-.3338129-.37879214z"/><path d="m9.47283376 3.49700901c.19078597-.02418095.33381291-.18647988.33381291-.37879214s-.14302694-.35461119-.33381291-.37879214c-.19078597.02418095-.33381291.18647988-.33381291.37879214s.14302694.35461119.33381291.37879214z"/><path d="m9.47283376 50.8308744c.19078597-.0241809.33381291-.1864798.33381291-.3787921s-.14302694-.3546112-.33381291-.3787921c-.19078597.0241809-.33381291.1864798-.33381291.3787921s.14302694.3546112.33381291.3787921z"/><path d="m17.3577709 51.4126992c.190786-.024181.3338129-.1864799.3338129-.3787922 0-.1923122-.1430269-.3546112-.3338129-.3787921-.190786.0241809-.3338129.1864799-.3338129.3787921 0 .1923123.1430269.3546112.3338129.3787922z"/><path d="m27.2730339 52.2914969c.2142219 0 .3878831-.1736612.3878831-.3878831 0-.214222-.1736612-.3878832-.3878831-.3878832-.190786.024181-.3338129.1864799-.3338129.3787922 0 .1923122.1430269.3546111.3338129.3787921z"/><path d="m34.3094766 52.2914969c.190786-.0241809.3338129-.1864799.3338129-.3787921 0-.1923123-.1430269-.3546112-.3338129-.3787922-.190786.024181-.3338129.1864799-.3338129.3787922 0 .1923122.1430269.3546112.3338129.3787921z"/></g></svg>