<?xml version="1.0" encoding="UTF-8"?>
<svg width="36px" height="22px" viewBox="0 0 36 22" version="1.1" xmlns="http://www.w3.org/2000/svg" xmlns:xlink="http://www.w3.org/1999/xlink">
    <title>Fill 1 Copy</title>
    <g id="Guidelines" stroke="none" stroke-width="1" fill="none" fill-rule="evenodd">
        <path d="M34.5,3.14285714 L1.5,3.14285714 C0.5,3.14285714 0,2.6190539 0,1.57142857 C0,0.523809524 0.5,0 1.5,0 L34.5,0 C35.5,0 36,0.523809524 36,1.57142857 C36,2.6190539 35.5,3.14285714 34.5,3.14285714 Z M34.5,12.5714286 L1.5,12.5714286 C0.5,12.5714286 0,12.0476253 0,11 C0,9.95237467 0.5,9.42857143 1.5,9.42857143 L34.5,9.42857143 C35.5,9.42857143 36,9.95237467 36,11 C36,12.0476253 35.5,12.5714286 34.5,12.5714286 Z M34.5,22 L1.5,22 C0.5,22 0,21.4761957 0,20.4285714 C0,19.3809482 0.5,18.8571429 1.5,18.8571429 L34.5,18.8571429 C35.5,18.8571429 36,19.3809482 36,20.4285714 C36,21.4761957 35.5,22 34.5,22 Z" id="Fill-1-Copy" fill="#000000"></path>
    </g>
</svg>