<svg width="56" height="56" viewBox="0 0 56 56" fill="none" xmlns="http://www.w3.org/2000/svg">
<circle opacity="0.5" cx="28" cy="28" r="23" fill="url(#paint0_linear)"/>
<path d="M31.5519 38.1578C28.0927 38.1578 24.6334 38.1578 21.1604 38.1578C15.6696 38.1578 10.1787 38.1578 4.70157 38.1578C3.43867 38.1578 2.18949 38.1578 0.926593 38.1578C1.15995 38.3912 1.37959 38.6108 1.61295 38.8442C1.61295 35.3712 1.61295 31.8982 1.61295 28.4253C1.61295 22.8932 1.61295 17.3612 1.61295 11.8291C1.61295 10.5662 1.61295 9.28959 1.61295 8.02669C1.37959 8.26005 1.15995 8.47969 0.926593 8.71305C5.66247 8.71305 10.3846 8.71305 15.1205 8.71305C22.6018 8.71305 30.0694 8.71305 37.5507 8.71305C39.2529 8.71305 40.9688 8.71305 42.6709 8.71305C42.4376 8.47969 42.2179 8.26005 41.9846 8.02669C41.9846 11.8428 41.9846 15.659 41.9846 19.4889C41.9846 20.3674 43.3573 20.3674 43.3573 19.4889C43.3573 15.6727 43.3573 11.8566 43.3573 8.02669C43.3573 7.65606 43.0416 7.34033 42.6709 7.34033C37.935 7.34033 33.2129 7.34033 28.477 7.34033C20.9957 7.34033 13.5281 7.34033 6.04683 7.34033C4.34466 7.34033 2.62876 7.34033 0.926593 7.34033C0.555959 7.34033 0.240234 7.65606 0.240234 8.02669C0.240234 11.4997 0.240234 14.9726 0.240234 18.4456C0.240234 23.9777 0.240234 29.5097 0.240234 35.0418C0.240234 36.3047 0.240234 37.5813 0.240234 38.8442C0.240234 39.2148 0.555959 39.5306 0.926593 39.5306C4.38584 39.5306 7.84509 39.5306 11.3181 39.5306C16.8089 39.5306 22.2998 39.5306 27.7769 39.5306C29.0398 39.5306 30.289 39.5306 31.5519 39.5306C32.4442 39.5306 32.4442 38.1578 31.5519 38.1578Z" fill="black"/>
<path d="M21.037 38.8579C21.037 41.7269 21.037 44.5821 21.037 47.4511C21.037 48.3297 22.4097 48.3297 22.4097 47.4511C22.4097 44.5821 22.4097 41.7269 22.4097 38.8579C22.4097 37.9657 21.037 37.9657 21.037 38.8579Z" fill="black"/>
<path d="M11.8808 48.2199C17.6325 48.2199 23.3842 48.2199 29.1496 48.2199C29.9595 48.2199 30.7557 48.2199 31.5656 48.2199C32.4441 48.2199 32.4441 46.8472 31.5656 46.8472C25.8139 46.8472 20.0622 46.8472 14.2968 46.8472C13.4869 46.8472 12.6907 46.8472 11.8808 46.8472C11.0023 46.8472 11.0023 48.2199 11.8808 48.2199Z" fill="black"/>
<path d="M55.3137 46.8197C50.2896 46.8197 45.2792 46.8197 40.255 46.8197C39.5275 46.8197 38.8 46.8197 38.0861 46.8197C38.3195 47.0531 38.5391 47.2727 38.7725 47.5061C38.7725 44.3351 38.7725 41.1778 38.7725 38.0069C38.7725 32.9827 38.7725 27.9723 38.7725 22.9482C38.7725 21.7951 38.7725 20.642 38.7725 19.4752C38.5391 19.7085 38.3195 19.9282 38.0861 20.1615C43.1103 20.1615 48.1207 20.1615 53.1448 20.1615C53.8724 20.1615 54.5999 20.1615 55.3137 20.1615C55.0804 19.9282 54.8607 19.7085 54.6274 19.4752C54.6274 22.6462 54.6274 25.8034 54.6274 28.9744C54.6274 33.9985 54.6274 39.0089 54.6274 44.0331C54.6274 45.1862 54.6274 46.3393 54.6274 47.5061C54.6274 48.3846 56.0001 48.3846 56.0001 47.5061C56.0001 44.3351 56.0001 41.1778 56.0001 38.0069C56.0001 32.9827 56.0001 27.9723 56.0001 22.9482C56.0001 21.7951 56.0001 20.642 56.0001 19.4752C56.0001 19.1045 55.6844 18.7888 55.3137 18.7888C50.2896 18.7888 45.2792 18.7888 40.255 18.7888C39.5275 18.7888 38.8 18.7888 38.0861 18.7888C37.7155 18.7888 37.3998 19.1045 37.3998 19.4752C37.3998 22.6462 37.3998 25.8034 37.3998 28.9744C37.3998 33.9985 37.3998 39.0089 37.3998 44.0331C37.3998 45.1862 37.3998 46.3393 37.3998 47.5061C37.3998 47.8767 37.7155 48.1924 38.0861 48.1924C43.1103 48.1924 48.1207 48.1924 53.1448 48.1924C53.8724 48.1924 54.5999 48.1924 55.3137 48.1924C56.1923 48.1924 56.1923 46.8197 55.3137 46.8197Z" fill="black"/>
<path d="M38.0038 43.7724C43.0142 43.7724 48.0109 43.7724 53.0213 43.7724C53.7351 43.7724 54.4489 43.7724 55.1627 43.7724C56.0413 43.7724 56.0413 42.3997 55.1627 42.3997C50.1523 42.3997 45.1556 42.3997 40.1452 42.3997C39.4314 42.3997 38.7176 42.3997 38.0038 42.3997C37.1252 42.3997 37.1252 43.7724 38.0038 43.7724Z" fill="black"/>
<defs>
<linearGradient id="paint0_linear" x1="9" y1="16" x2="47.5" y2="42" gradientUnits="userSpaceOnUse">
<stop stop-color="#ECFF0C"/>
<stop offset="1" stop-color="#07FDC2"/>
</linearGradient>
</defs>
</svg>
