<svg width="56" height="56" viewBox="0 0 56 56" fill="none" xmlns="http://www.w3.org/2000/svg">
<circle opacity="0.5" cx="28" cy="28" r="23" fill="url(#paint0_linear)"/>
<path d="M19.8044 16.4926C15.5165 16.4926 12.0059 12.982 12.0059 8.69409C12.0059 4.4078 15.5164 0.897119 19.8044 0.897119H36.5332C40.8196 0.897119 44.3302 4.40773 44.3302 8.69409C44.3302 12.982 40.8195 16.4926 36.5332 16.4926H19.8044Z" stroke="black" stroke-width="1.2"/>
<path d="M27.5319 20.1178V35.7178H19.5821C15.2958 35.7178 11.7866 32.2073 11.7866 27.9224C11.7866 25.7762 12.6625 23.8245 14.0779 22.4091C15.4936 20.9934 17.4439 20.1178 19.5821 20.1178H27.5319Z" stroke="black" stroke-width="1.2"/>
<path d="M29.5485 28.0882C29.5485 23.7807 33.0409 20.2897 37.347 20.2897C41.6531 20.2897 45.1455 23.7807 45.1455 28.0882C45.1455 32.3941 41.6531 35.8852 37.347 35.8852C33.0408 35.8852 29.5485 32.3941 29.5485 28.0882Z" stroke="black" stroke-width="1.2"/>
<path d="M19.4407 39.3296L19.8743 39.3134H27.5179V46.7789V46.791L27.5184 46.8032C27.5218 46.8871 27.5256 46.9365 27.5286 46.9764C27.5319 47.0196 27.5343 47.0516 27.5346 47.1041L27.5244 47.3055C27.5224 47.3353 27.5204 47.3715 27.5184 47.4187L27.5179 47.431V47.4336L27.5141 47.5084C27.3061 51.6296 23.9073 54.9088 19.7361 54.9088C15.43 54.9088 11.9391 51.4179 11.9391 47.1119C11.9391 42.9053 15.2717 39.4856 19.4407 39.3296Z" stroke="black" stroke-width="1.2"/>
<defs>
<linearGradient id="paint0_linear" x1="9" y1="16" x2="47.5" y2="42" gradientUnits="userSpaceOnUse">
<stop stop-color="#ECFF0C"/>
<stop offset="1" stop-color="#07FDC2"/>
</linearGradient>
</defs>
</svg>
