<svg height="50" viewBox="0 0 53 50" width="53" xmlns="http://www.w3.org/2000/svg"><g fill="#1d1d1b"><path d="m3.38400013 30.2860012c-1.13400004-6.3180003-2.08800008-11.2860005 1.56600007-17.1360007 3.13092332-4.55620045 7.826184-7.80380917 13.1940005-9.12600038 11.3220005-3.02400012 23.706001 3.16800013 29.3220012 13.17600048 14.4000006 25.9920011-31.9860013 43.8660018-42.12000169 18.0000008-.52200002-1.3320001-2.7000001-.7560001-2.16000008.594 10.51200037 26.8920011 58.44600227 12.0060005 47.84400187-16.2900007-4.6800002-12.49200046-19.2240007-20.84400079-32.2560013-17.92800068-6.2405593 1.28365137-11.78973917 4.82077298-15.58800057 9.93600038-4.53600018 6.4260003-3.18600013 12.0780005-1.96200008 19.3680008.25200001 1.422 2.41200009.828 2.16000008-.594z"/><path d="m21.4020009 15.2200006.324 15.3720006c.0718166.566628.553839.9914132 1.125.9914132s1.0531834-.4247852 1.1250001-.9914132l-.3240001-15.3720006c-.0718166-.566628-.553839-.9914133-1.125-.9914133s-1.0531834.4247853-1.125.9914133z"/><path d="m34.3080014 32.1580012-10.8000005-2.8620001c-.5757265-.0989502-1.1324219.2556542-1.2861266.8192383-.1537048.563584.1458798 1.1517193.6921266 1.3587618l10.8000004 2.8440001c.5964676.1640286 1.2129715-.1865325 1.3770001-.783.1640286-.5964676-.1865325-1.2129715-.783-1.3770001z"/></g></svg>