<svg width="19" height="19" viewBox="0 0 19 19" fill="none" xmlns="http://www.w3.org/2000/svg">
<path fill-rule="evenodd" clip-rule="evenodd" d="M6.02232 6.06473C6.98363 5.10342 8.14285 4.62277 9.5 4.62277C10.8571 4.62277 12.0093 5.09635 12.9565 6.04353C13.9036 6.99071 14.3772 8.14285 14.3772 9.5C14.3772 10.8571 13.9036 12.0093 12.9565 12.9565C12.0093 13.9037 10.8571 14.3772 9.5 14.3772C8.14285 14.3772 6.9907 13.9037 6.04353 12.9565C5.09635 12.0093 4.62277 10.8571 4.62277 9.5C4.62277 8.14285 5.08928 6.99777 6.02232 6.06473ZM7.25223 11.7478C7.87426 12.3698 8.6235 12.6808 9.5 12.6808C10.3765 12.6808 11.1257 12.3698 11.7478 11.7478C12.3698 11.1257 12.6808 10.3765 12.6808 9.5C12.6808 8.62351 12.3698 7.87426 11.7478 7.25223C11.1257 6.6302 10.3765 6.3192 9.5 6.3192C8.6235 6.3192 7.87426 6.6302 7.25223 7.25223C6.6302 7.87426 6.31919 8.62351 6.31919 9.5C6.31919 10.3765 6.6302 11.1257 7.25223 11.7478ZM15.3527 3.64732C15.5789 3.84524 15.692 4.0997 15.692 4.41072C15.692 4.72173 15.5859 4.99032 15.3739 5.21651C15.1618 5.44271 14.9003 5.5558 14.5893 5.5558C14.2783 5.5558 14.0097 5.44271 13.7835 5.21651C13.5573 4.99032 13.4442 4.72173 13.4442 4.41072C13.4442 4.0997 13.5573 3.83817 13.7835 3.62611C14.0097 3.41406 14.2783 3.30804 14.5893 3.30804C14.9003 3.30804 15.1548 3.42113 15.3527 3.64732ZM18.9576 5.59822C18.9859 6.36161 19 7.66219 19 9.5C19 11.3378 18.9859 12.6384 18.9576 13.4018C18.8728 15.1265 18.3568 16.4624 17.4096 17.4096C16.4624 18.3568 15.1265 18.8586 13.4018 18.9152C12.6384 18.9717 11.3378 19 9.5 19C7.66219 19 6.36161 18.9717 5.59821 18.9152C3.8735 18.8304 2.54465 18.3214 1.61161 17.3884C1.24405 17.0491 0.947173 16.6533 0.720982 16.2009C0.49479 15.7485 0.332218 15.3103 0.233259 14.8862C0.1343 14.4621 0.0848217 13.9673 0.0848217 13.4018C0.0282738 12.6384 0 11.3378 0 9.5C0 7.66219 0.0282738 6.34748 0.0848217 5.5558C0.169644 3.85937 0.678566 2.54465 1.61161 1.61161C2.54465 0.650289 3.8735 0.127237 5.59821 0.0424156C6.36161 0.0141328 7.66219 0 9.5 0C11.3378 0 12.6384 0.0141328 13.4018 0.0424156C15.1265 0.127237 16.4624 0.643223 17.4096 1.5904C18.3568 2.53758 18.8728 3.8735 18.9576 5.59822ZM16.9219 15.0982C17.0067 14.872 17.0774 14.5822 17.1339 14.2288C17.1905 13.8754 17.2329 13.4513 17.2612 12.9565C17.2894 12.4617 17.3036 12.0588 17.3036 11.7478C17.3036 11.4368 17.3036 10.9985 17.3036 10.433C17.3036 9.86756 17.3036 9.54948 17.3036 9.47879C17.3036 9.40811 17.3036 9.0971 17.3036 8.54576C17.3036 7.99441 17.3036 7.56325 17.3036 7.25223C17.3036 6.94122 17.2894 6.53833 17.2612 6.04353C17.2329 5.54873 17.1905 5.12463 17.1339 4.77121C17.0774 4.41778 17.0067 4.12798 16.9219 3.90179C16.5826 3.0253 15.9747 2.41742 15.0982 2.07813C14.872 1.9933 14.5822 1.92262 14.2288 1.86607C13.8754 1.80952 13.4513 1.76712 12.9565 1.73884C12.4617 1.71056 12.0658 1.69643 11.769 1.69643C11.4721 1.69643 11.0339 1.69643 10.4542 1.69643C9.87462 1.69643 9.55655 1.69643 9.5 1.69643C9.44345 1.69643 9.13244 1.69643 8.56696 1.69643C8.00148 1.69643 7.56324 1.69643 7.25223 1.69643C6.94122 1.69643 6.53832 1.71056 6.04353 1.73884C5.54873 1.76712 5.12463 1.80952 4.7712 1.86607C4.41778 1.92262 4.12798 1.9933 3.90178 2.07813C3.02529 2.41742 2.41741 3.0253 2.07812 3.90179C1.9933 4.12798 1.92262 4.41778 1.86607 4.77121C1.80952 5.12463 1.76711 5.54873 1.73884 6.04353C1.71057 6.53833 1.69643 6.93415 1.69643 7.23103V8.54576V9.5V10.2846V11.3025C1.69643 11.5711 1.7035 11.9174 1.71763 12.3415C1.73177 12.7656 1.75298 13.1261 1.78125 13.423C1.80952 13.7199 1.85193 14.0238 1.90848 14.3348C1.96503 14.6458 2.02158 14.9003 2.07812 15.0982C2.44569 15.9747 3.05357 16.5826 3.90178 16.9219C4.12798 17.0067 4.41778 17.0774 4.7712 17.1339C5.12463 17.1905 5.54873 17.2329 6.04353 17.2612C6.53832 17.2894 6.93415 17.3036 7.23102 17.3036H8.54576H9.5H10.4542H11.7478C12.0588 17.3036 12.4617 17.2894 12.9565 17.2612C13.4513 17.2329 13.8754 17.1905 14.2288 17.1339C14.5822 17.0774 14.872 17.0067 15.0982 16.9219C15.9747 16.5543 16.5826 15.9464 16.9219 15.0982Z" fill="black"/>
</svg>
