<svg width="56" height="56" viewBox="0 0 56 56" fill="none" xmlns="http://www.w3.org/2000/svg">
<circle opacity="0.5" cx="28" cy="28" r="23" fill="url(#paint0_linear)"/>
<path d="M53.0612 1.82143C52.8265 1.5085 52.5136 1.29337 52.1224 1.17602C51.7313 1.05867 51.3401 1 50.949 1C50.5578 1 50.1862 1.05867 49.8342 1.17602C49.4821 1.29337 49.1497 1.5085 48.8367 1.82143L40.0357 10.6224V8.97959H8V47H46.0204V14.9643H44.1429L53.0612 6.04592C53.3742 5.81122 53.6088 5.4983 53.7653 5.10714C53.9218 4.71598 54 4.32483 54 3.93367C54 3.54251 53.9218 3.17092 53.7653 2.81888C53.6088 2.46684 53.3742 2.13436 53.0612 1.82143ZM44.0255 45.0051H9.9949V10.9745H39.6837L24.0765 26.699V31.0408H28.1837L44.0255 15.199V45.0051ZM51.6531 4.63775L27.3622 29.0459H26.0714V27.5204L50.2449 3.22959C50.4014 3.15136 50.5383 3.09269 50.6556 3.05357C50.773 3.01445 50.8707 2.9949 50.949 2.9949C51.0272 2.9949 51.1446 3.01445 51.301 3.05357C51.4575 3.09269 51.5748 3.15136 51.6531 3.22959C51.8095 3.38605 51.9073 3.52296 51.9464 3.64031C51.9855 3.75765 52.0051 3.85544 52.0051 3.93367C52.0051 4.0119 51.9855 4.12925 51.9464 4.28571C51.9073 4.44218 51.8095 4.55952 51.6531 4.63775Z" fill="black"/>
<defs>
<linearGradient id="paint0_linear" x1="9" y1="16" x2="47.5" y2="42" gradientUnits="userSpaceOnUse">
<stop stop-color="#ECFF0C"/>
<stop offset="1" stop-color="#07FDC2"/>
</linearGradient>
</defs>
</svg>
