<svg height="50" viewBox="0 0 53 50" width="53" xmlns="http://www.w3.org/2000/svg"><g fill="#1d1d1b"><path d="m46.4977722 16.2044425c.1022222 4.2399995.0977778 8.4755546.1111111 12.7155541 0 2.0711108 0 4.1466661.0533334 6.2222214 0 1.0888888.04 2.1733331.0755555 3.2577774.0444444 1.431111.0711111 1.9333331-1.2666665 2.6177775-1.6444443.8444443-3.6355551 1.2711109-5.3333327 1.9866664-1.5955554.6622222-3.1688885 1.3777776-4.7288883 2.1111109-1.7111109.8044443-3.413333 1.6355553-5.1199994 2.4488886-.9288888.4444444-1.4888887 1.0577776-1.9244442 0-.4355555-1.0577777-.2711111-2.733333-.3511111-3.8266662-.3162825-4.4036737-.3504263-8.8230747-.1022222-13.2311096-.0090679-.9981892.0622738-1.9954873.2133333-2.9822218.4444444-1.9733331.7955555-1.7777776 2.0133331-2.3199998.7377777-.3377777 3.9599995-2.7911107 4.7066661-2.3111108.3466666.2177778-.04 4.2622217-.0488889 4.7777772s-.2755555 1.4577776.1955555 1.8133331c.8222222.6177777 5.3333327-1.2844443 5.706666-1.9999997.2622222-.4888889-.1466666-2.262222-.1866666-2.7199997-.0844445-.9688888-.1333333-1.9866664-.2755555-2.9511108-.0622223-.4444444-.3422222-.9733332-.3288889-1.4088887.04-1.1866665 1.6888887-1.3111109 2.7422219-1.7199998 1.5244443-.5866666 2.7955552-1.5999998 4.2888884-2.2222219.3288888-.1377778.0488889-.6177777-.28-.48-1.4533331.6177777-2.6666663 1.5999998-4.155555 2.1866664-.7466666.2977778-1.5333332.5066666-2.2577776.8622221-1.5111109.7288888-.8222221 1.2088888-.5866665 2.7688886.2044444 1.3333332.5333332 3.053333.3955555 4.4444439-.0888889.9199999.471111.5333333-.6088889 1.3333332-.6877369.3263474-1.3924485.6156501-2.1111108.8666666-.5555555.2177777-1.5111109.8533332-2.022222.2088888-.1333333-.1688889 0-1.6533331 0-1.8711109 0-1.4888887.1244444-2.9644441.04-4.4444439-.0012742-.0860705-.0420673-.1667714-.1106176-.218835-.0685503-.0520635-.1572384-.0697026-.2404935-.0478316-.9884822.369053-1.9406903.8287909-2.8444441 1.3733331-1.1199998.6355555-2.4044441 1.0844444-3.4933329 1.7288887-1.4266665.8444444-1.1333332 2.4844442-1.2444443 4.0488884-.4381411 6.5396988-.2640506 13.1060358.5199999 19.613331.0038339.0977944.0576743.1867496.1425374.2355008.0848632.0487512.1888292.0504506.2752404.0044992 6.1955548-2.9066663 12.2577763-6.0133326 18.8266644-7.999999.1198385-.0335757.2031328-.1422204.2044444-.2666667-.3422222-8.1911101-.1333333-16.3955536-.3288888-24.5911082-.0177325-.1399081-.1367504-.2447933-.2777778-.2447933s-.2600452.1048852-.2777777.2447933z"/><path d="m6.94666584 17.4399979c.82724167 4.4504725 1.04850803 8.9924131.6577777 13.5022206-.15555554 2.1066664-.40888884 4.1999995-.69333325 6.2933326-.13333332.9599999-.47999995 2.1244442.17777775 2.973333s2.41777749 1.1777776 3.35111076 1.5288887c1.7511109.6533333 3.5066662 1.2888887 5.2577771 1.9377775 4.2459649 1.5093762 8.3805958 3.3153069 12.3733319 5.4044438.086106.0486812.1915082.0483189.2772776-.0009529s.139178-.1401413.1405001-.239047c-.12-4.2133329-.3466666-8.4444435-.4444444-12.6399985-.0444444-1.9555553-.0577778-3.9111107 0-5.8711104.0266667-1.1866666.6399999-3.5022218-.0844444-4.5511106-.4755555-.6888888-1.7333332-.951111-2.4266664-1.2399998l-5.6533327-2.3511109-5.6577771-2.3466664-3.2222218-1.3333331c-.3822222-.16-3.30666628-1.1022221-3.34666628-1.431111l-.47111105.2-.2222222-.0355556c-.20888886.2933333.27555552.5688889.47999994.28l.19999998-.2755555c.0602166-.1102773.04224904-.2468308-.04444444-.3377777l-.00888889-.0177778c-.07997383-.0780747-.19871798-.1011115-.30208485-.0586054-.10336688.042506-.17155508.1424121-.17347065.2541609.04888889.4133333.2222222.3377777.52888883.6266666.67999992.631111 2.35999972.9777777 3.22666631 1.3333332l2.4177775 1.0088887 11.2799986 4.6844439 1.6133332.6711111c1.185185.5096295 1.6459257 1.2918517 1.382222 2.3466663.0359837.8586837.0077569 1.7188558-.0844444 2.5733331-.0355556 1.9599997 0 3.9155551 0 5.8711104s.1155555 3.8799995.1911111 5.8177771c.0355555.8888888.7377777 5.6444437.0933333 6.0799992-.5066666.3377778-4.0311106-1.7777775-4.7822217-2.1111108-1.4711109-.6533333-2.9777774-1.2622221-4.4977772-1.8488887-1.7511109-.6755555-3.5111107-1.3333332-5.266666-1.9688886-.8888888-.32-1.7511109-.64-2.622222-.9688888-1.2399998-.4444444-2.39555522-.5999999-2.99555515-1.8133331-.69333325-1.3999999.13777776-4.0666662.30666663-5.626666.19999998-1.8799998.34666663-3.764444.4044444-5.6577771.13882612-3.6227227-.1385439-7.2494103-.82666657-10.8088876-.06666666-.3511111-.60444437-.2-.53333327.1466666z"/><path d="m19.3155533 11.0799987 3.7377773-2.05333311c1.9199998-1.05333321 3.2355552-.47111105 5.0533327.32888885 2.0842349.87844886 4.216536 1.63818316 6.3866659 2.27555526 2.8177775.8888888 5.6711105 1.6844443 8.3733324 2.8755552.5022221.2222222 3.1111107 1.151111 3.2355551 1.6888887.0666667.2977778-1.0222221.6177777-1.4088887.7822222-1.3866665.5733332-2.6666663 1.5066664-4.0888884 1.9466664-2.1066664.6577777-4.4711106-1.4044443-6.4711103-2.222222-4.9866661-2.0711108-10.2533321-3.1955551-15.0711094-5.6977771-.3155555-.1644444-.5955554.3111111-.2799999.48 6.6666659 3.4533329 14.2222205 4.5111105 20.564442 8.5866656.0858258.0529414.1941741.0529414.2799999 0 1.6074751-.9444188 3.2832479-1.767449 5.0133328-2.4622219.6399999-.2666666 2.0444442-.5733333 2.3777775-1.2488888.0602166-.1102772.042249-.2468307-.0444445-.3377777-1.5866664-1.3333332-3.9999995-2.1155553-5.937777-2.8355552-2.6666664-1.0088888-5.4577772-1.7777776-8.1822213-2.6444441-1.5111109-.4933333-3.0088885-1.01777769-4.4666661-1.65333317-.9422221-.41333328-2.0088887-1.27999985-3.0622219-1.33333318-.8222221-.05333332-1.5244442.4444444-2.2222219.83111102-1.3688888.73333324-2.7199997 1.49333315-4.0755551 2.22222193-.3155555.1733333-.0355556.6533333.28.48z"/><path d="m7.60444354 17.2177757 3.73777736-2.0533331c1.9199997-1.0533332 3.2399996-.471111 5.0577771.3288889 2.0828117.8807491 4.2135961 1.6434393 6.3822215 2.2844442 2.8177774.8888887 5.6711104 1.6844442 8.3777768 2.8755552.4977777.2222222 3.1111107 1.1555554 3.2355552 1.6888887.0666666.2977777-1.0222221.6177777-1.4133332.7822221-1.3822221.5777777-2.6666664 1.5066665-4.0888884 1.9466664-2.1066664.6577777-4.4711106-1.4044443-6.4711104-2.2222219-4.986666-2.0711109-10.2488876-3.1955552-15.06666482-5.6977771-.31999996-.1644445-.59999993.3155555-.27999997.4799999 6.66666589 3.4533329 14.22222049 4.515555 20.56444199 8.5911101.086871.0491182.193129.0491182.28 0 1.6047015-.954342 3.2790771-1.7863299 5.0088883-2.4888886.6444443-.2666666 2.0488886-.5733333 2.3777775-1.2488887.0644174-.1087186.0480287-.247112-.04-.3377778-1.5866665-1.3333331-3.9999996-2.1155553-5.9422216-2.8355552-2.6666663-1.0088888-5.4577771-1.7777776-8.1822212-2.6666663-1.5066665-.4933333-3.0088885-1.0133333-4.4444439-1.6533332-.9466666-.4133333-2.0133331-1.2799998-3.0666663-1.3333332-.8222221-.0533333-1.5244443.4666667-2.222222.8311111-1.3688887.7333332-2.71999965 1.4933331-4.07999948 2.2222219-.31111108.1733333-.03111111.6533333.27999996.48z"/><path d="m13.4311095 14.2222205c2.1885416-.9310434 4.281354-2.0727127 6.2488882-3.4088885.2933333-.1999999 0-.6799999-.28-.4799999-1.9650711 1.3501244-4.058097 2.5038194-6.2488882 3.444444-.3288888.1422222-.0444444.6222222.28.48z"/><path d="m26.7599968 5.60888822c.1807407-1.77777757.317037-3.55555513.4088889-5.3333327 0-.35555551-.5377778-.35555551-.5555555 0-.0888889 1.77777757-.2251852 3.55555513-.4088889 5.3333327-.0355555.35555551.52.35111107.5555555 0z"/><path d="m36.133329 7.32444357c.8481001-1.39440366 1.7693879-2.74295534 2.7599997-4.03999952.2177777-.28444441-.2622222-.55999993-.4755555-.27999996-.9935712 1.29589466-1.9163976 2.6445269-2.7644441 4.03999951-.0555282.12987166-.0056334.28076683.1163707.35193588.1220041.07116904.2779129.04032597.3636292-.07193591z"/><path d="m4.75999943 13.275554-4.3422217-2.4399997c-.31111108-.1688889-.59555549.3066666-.27999997.4799999l4.34222171 2.4622219c.12987165.0555282.28076682.0056334.35193587-.1163707.07116904-.122004.04032597-.2779128-.07193591-.3636292z"/><path d="m8.98222115 8.76888784c-.9748147-1.30962947-2.01185161-2.5748145-3.11111074-3.7955551-.23999997-.26666663-.63111103.12888887-.39555551.39555551 1.06370358 1.18518504 2.0681479 2.41333304 3.01333298 3.684444.20888886.27999997.69333325 0 .47999994-.28444441z"/><path d="m16.1555536 6.96888806-.951111-5.47999935c-.0622222-.35111107-.5955555-.19999997-.5333332.15111109l.9466665 5.47111046c.0622222.35111107.5955555.19999998.5377777-.14666665z"/><path d="m49.0711053 13.7777761 3.6222218-2.4488886c.2933333-.1955555 0-.6799999-.28-.4799999l-3.6222218 2.4488886c-.2977777.2 0 .6799999.28.4799999z"/><path d="m44.2622169 10.8177765 2.8977775-3.42222183c.2311111-.27111107-.16-.66666658-.3911111-.39111106l-2.8977774 3.42222179c-.2311111.2711111.16.6666666.391111.3911111z"/></g></svg>