<svg height="50" viewBox="0 0 56 50" width="56" xmlns="http://www.w3.org/2000/svg"><g fill="#1d1d1b"><path d="m12.0109503 2.10617652c2.3184-.50955884 4.7439001-.37058825 7.0969501-.61764707 2.8014001-.29852942 5.5996502-.53735296 8.3947502-.71647061l-.28035-.65779413c-1.3419 1.47308827-2.835 2.77941183-4.2840001 4.15367656-1.3077583 1.31009455-2.5302665 2.69944907-3.6603001 4.15985304-2.52 3.08823539-5.4369001 5.99117659-8.2782002 8.77367669l.6741001.2717647c-.1512-5.2500001.315-10.50000025.63-15.75000037.0315-.49720589-.756-.49411766-.7875 0-.315 5.25000012-.7749001 10.50000027-.6300001 15.75000037.0038731.1539796.1000241.2912273.2452268.3500409.1452027.0588135.3121247.0281222.4257233-.0782762 2.83815-2.7794118 5.7676501-5.7008825 8.2876502-8.77058843 1.127116-1.4600284 2.3464559-2.84936917 3.65085-4.15985304 1.4395501-1.3804412 2.9421001-2.68058829 4.2840001-4.15367656.107709-.11210798.1385247-.27564201.0787811-.41807879s-.1989877-.23741085-.3559811-.24280358c-2.9799.18838236-5.9440501.48485295-8.9176502.76897061-2.25855.21617647-4.5612001.105-6.7882501.58985295-.49455.10808824-.2835.8554412.21105.74735296z"/><path d="m42.887251 1.4236765c-2.2239001-.50955883-4.5265501-.39220589-6.7882502-.61764707-2.97045-.30882354-5.9314501-.61764707-8.9113502-.80602943-.3717-.02470588-.4788.42617648-.28035.66088237 2.7405001 3.22411772 5.8086001 6.08073543 8.7192002 9.13191197 1.36395 1.42985296 2.7468001 2.75470596 4.0099501 4.28029426 1.13715 1.3742647 2.2869001 2.6929412 3.7548001 3.7336765.1220553.0676524.2714629.067149.393041-.0013243.1215782-.0684733.1972849-.1947552.199159-.3322051.13545-5.2500001-.4914-10.45367672-.8064-15.67588272-.02835-.49411766-.81585-.49720589-.7875 0 .315 5.222206.945 10.43823552.8064 15.67588272l.58905-.3335294c-1.60965-1.1426471-2.8350001-2.6775001-4.0603501-4.1783825s-2.6271001-2.6929412-3.8965501-4.10117654c-2.7027-2.99250007-5.7330001-5.64838248-8.3632502-8.74588255l-.2772.65779413c2.8035001.18941177 5.6059501.43852942 8.4073502.74735296 2.3530501.26250001 4.7817001.12044118 7.0969502.64852943.4914.1142647.70245-.61764708.2079-.74426473z"/><path d="m42.821101 2.04132358c1.42065 2.77941182 3.402 5.15735305 5.3707501 7.56926487 2.1735 2.66514715 4.2714001 5.40132365 6.2338501 8.22088255l.3402-.5805883c-3.6288-.4292647-7.2954001-.2254411-10.9431002-.3304411l.39375.3736764c-.1764-2.5385294.0819-5.0894118-.14805-7.62485307-.11655-1.28470592-.378-2.55088242-.4977-3.83250009-.0567-.58985296-.0945-1.18279415-.126-1.7726471 0-.10808824-.10395-2.54470594-.48825-2.21426476-.3843.33044119.1764.87088238.5544.54352943l.07245-.06176471c.104443-.09498948.1436911-.24048662.1008-.37367648-.054323-.20919225-.2254505-.36977408-.441-.41382354-.1374679-.0380824-.2851579.00108322-.3843.10191177-.5292.64235295-.2394 1.66455886-.2016 2.43044123.0693 1.3186765.2079 2.62191183.3969 3.92823538.4536 3.08823534.1575 6.17647074.37485 9.30176494.004991.2111381.1783891.3811362.39375.3860294 3.6477001.105 7.3143002-.0988235 10.9431002.3304412.140199-.0018373.2690065-.0760596.3388493-.1952539.0698428-.1191942.0703562-.2656723.0013508-.3853344-1.7923501-2.5725-3.7012501-5.0739707-5.6700002-7.52602955-2.13255-2.66205888-4.3785001-5.21911776-5.9409001-8.26411783-.2268-.44470589-.9072-.0525-.67725.38911766z"/><path d="m11.2455003 1.65220592c-1.39230008 2.81338242-3.35160012 5.25000012-5.28570016 7.702059-2.06325005 2.62808828-4.0446001 5.32102958-5.90625014 8.08808838-.06900547.1196621-.068492.2661402.00135076.3853344.06984276.1191943.1986503.1934166.33884925.1952539 3.49965008-.4292647 7.03710016-.2254412 10.55250019-.3304412.1061041-.0016253.2072024-.0445138.2810477-.1192278.0738452-.0747141.1143864-.1751313.1127024-.2791546.21105-3.0882353-.07245-6.1764707.36225-9.28941194.1827-1.30632355.315-2.60955888.38115-3.92823538.0378-.77205884.315-1.77882357-.19845-2.43044123-.0977762-.10091131-.2446556-.1401839-.38115-.10191177-.2177384.04708324-.3882543.21305303-.43785.42617648-.0398214.13324538-.0010026.27715098.1008.37367648l.0693.06176471c.37485.33352942.945-.21000001.55755-.54352943-.38745-.33352941-.4914 2.10926476-.4977 2.21426476-.02835.58985296-.06615 1.18279415-.1197 1.7726471-.11655 1.28161768-.3654001 2.54779418-.4788001 3.83250009-.22365 2.53544123.0126 5.08632363-.1449 7.61250013l.39375-.3860294c-3.51540003.105-7.05285011-.0988235-10.55250019.3304412l.34020001.5805883c1.89000004-2.8257354 3.93120009-5.5773531 6.04170013-8.26102965 1.89000005-2.40573535 3.78000005-4.78058834 5.15025015-7.52911782.2205-.44470589-.45675-.83691178-.6804-.38911765z"/><path d="m27.1057506.23779412c-2.81925 2.69911771-5.3959501 5.62985307-8.1112502 8.4092649-1.35765 1.39588238-2.835 2.68676478-4.1769001 4.09191188-1.3419 1.4051471-2.44755 2.9677942-3.8178001 4.3235295-.1088769.1117808-.1399512.2761401-.0791707.4187515.0607806.1426114.2018919.2364352.3595208.2390426 5.4148501.2902941 10.8391502.222353 16.2603003.1760294 5.4211501-.0463235 10.8013503.2686765 16.1847004.0463236.1570592-.0037971.2970518-.0980629.3570417-.2404185.0599898-.1423555.0286847-.3060045-.0798417-.4173757-3.1500001-2.8072059-5.4810001-6.3833825-8.5995002-9.19367665-1.2789-1.15500002-2.4727501-2.3841177-3.7579501-3.52985302-1.48365-1.30632356-2.92005-2.49529417-3.9249001-4.25250009-.0623193-.10569758-.1712894-.17691601-.2947775-.19265469s-.2474094.02579752-.3352225.11236057c-.2457.20691177-.4221.44161765-.6678.64544119-.3843.30882353.17325.8647059.55755.54352942.26145-.18220588.42525-.42926471.68355-.63308825l-.63-.07720588c.9072 1.5811765 2.1388501 2.75779418 3.5122501 3.95294126 1.3734 1.19514709 2.5641001 2.51073536 3.9375001 3.68735303 3.3169501 2.82573531 5.6983501 6.59647071 8.9649002 9.50250021l.2772-.6608824c-5.3833501.222353-10.7950503-.092647-16.1847004-.0463235s-10.8454502.1142647-16.2603003-.1760294l.2772.6577941c1.37025-1.3619118 2.48535-2.9369118 3.8178-4.3235295 1.3324501-1.3866177 2.8192501-2.6929412 4.1737501-4.08882361 2.7153001-2.77941183 5.2951502-5.71941189 8.1144002-8.4185296.3717-.35514707-.1953-.90176473-.55755-.55588237z"/><path d="m43.350301 17.9642651c3.7012501.1019118 7.4025002-.2377941 11.1006002-.0247059l-.2709-.6454412c-4.6998001 5.2273531-9.3261002 10.5247062-13.8789003 15.8920592-4.3501501 5.1388237-9.1350002 9.9039708-13.3308003 15.1632357l.65835.3767647c1.0458001-2.6002942 2.5483501-5.0029413 3.8304001-7.492059 1.3314-2.5817648 2.6743501-5.1552943 4.0288501-7.7205884 2.7436501-5.2500001 5.5062001-10.456765 8.2057502-15.7129416.22995-.4416176-.45045-.8338235-.67725-.3891176-2.7940501 5.432206-5.6511002 10.8335296-8.4861002 16.244118-1.3986 2.6641177-2.7867001 5.3333825-4.1643001 8.0077943-1.1844 2.2883824-2.5200001 4.4779413-3.4965001 6.8682354-.14175.3489706.41895.6732354.6552.3767648 4.2115501-5.2500002 8.9838002-10.024412 13.3339503-15.1632357 4.5402001-5.3529413 9.1665002-10.6502943 13.8789003-15.8920592.108877-.1117808.1399513-.27614.0791708-.4187514-.0607806-.1426114-.2018919-.2364353-.3595208-.2390427-3.6981-.2130882-7.3993501.1266177-11.1006002.0247059-.2174621 0-.39375.1728312-.39375.3860294s.1762879.3860294.39375.3860294z"/><path d="m11.2581003 17.1922063c-3.62250013.1019117-7.24500021-.2377942-10.86435029-.0247059-.1576289.0026074-.29874016.0964313-.35952073.2390426-.06078058.1426114-.0297062.3069707.07917072.4187515 4.4887501 5.0986766 8.93655021 10.2591179 13.2520503 15.4936768 4.3155001 5.234559 9.1129502 10.1201473 13.3119003 15.4751475.24255.3088235.89775.1544117.72135-.3088236-.9072-2.2945589-2.1672-4.4069118-3.2886001-6.599559-1.3923-2.7269118-2.7657-5.4630883-4.1643-8.1900001-2.7909001-5.4198531-5.6007002-10.8427944-8.3475002-16.3120592-.2268-.4447059-.9040501-.0555883-.6804001.3891176 2.6554501 5.2808825 5.3707502 10.5308826 8.0703002 15.7901474 1.3041001 2.5364707 2.6008501 5.0801472 3.8902501 7.6310296 1.26 2.4983824 2.7310501 4.9133825 3.7611001 7.5167649l.7182-.3088235c-4.1359501-5.2777943-8.8200002-10.076912-13.1071503-15.2404416-4.44150008-5.3508824-8.96805018-10.6400002-13.57965029-15.8673533l-.2772.6608824c3.61935008-.2130882 7.24500016.1266177 10.86435029.0247059.2174621 0 .39375-.1728313.39375-.3860294 0-.2131982-.1762879-.3860295-.39375-.3860295z"/></g></svg>