<svg width="56" height="56" viewBox="0 0 56 56" fill="none" xmlns="http://www.w3.org/2000/svg">
<circle opacity="0.5" cx="28" cy="28" r="23" fill="url(#paint0_linear)"/>
<g clip-path="url(#clip0)">
<path d="M37.1784 20.806V7.98438C37.1784 7.43209 36.7307 6.98438 36.1784 6.98438H6C5.44772 6.98438 5 7.43209 5 7.98437V30.8201C5 31.3723 5.44772 31.8201 6 31.8201H18.8216V44.6417C18.8216 45.1939 19.2693 45.6417 19.8216 45.6417H37.9343L45.031 52.7384C45.1885 52.8959 45.4021 52.9844 45.6249 52.9844V52.9844C46.0888 52.9844 46.4648 52.6083 46.4648 52.1445V45.6417H50C50.5523 45.6417 51 45.1939 51 44.6417V21.806C51 21.2537 50.5523 20.806 50 20.806H37.1784ZM6.83568 29.9844V8.82006H35.3427V20.806H18.8216V29.9844H6.83568ZM49.1643 43.806H44.6291V49.7449L38.6901 43.806H20.6573V22.6417H49.1643V43.806Z" fill="black"/>
</g>
<defs>
<linearGradient id="paint0_linear" x1="9" y1="16" x2="47.5" y2="42" gradientUnits="userSpaceOnUse">
<stop stop-color="#ECFF0C"/>
<stop offset="1" stop-color="#07FDC2"/>
</linearGradient>
<clipPath id="clip0">
<rect width="46" height="46" fill="white" transform="translate(5 6.98438)"/>
</clipPath>
</defs>
</svg>
