<svg height="48" viewBox="0 0 56 48" width="56" xmlns="http://www.w3.org/2000/svg"><path d="m27.3 8.45c-.65-.95-1.12-1.6-1.55-2.27-3.22-5-8-6.7-13.61-6-5.29.62-9 3.59-11.08 8.68-2.44 6-.37 11.25 3.22 15.85 3.34 4.29 7.35 8.01 11.05 12.03 2.78 3 5.59 6 8.28 9.14 2.06 2.38 3.23 2.64 5.64.49s4.41-4.35 6.61-6.51c1.0256284-1.1570069 2.1609309-2.2119341 3.39-3.15 4.2-2.76 7.5-6.43 10.8-10.13 2.3506885-2.6242454 4.0861902-5.7399493 5.08-9.12 2.1-7.1-3.13-16.07-10.53-16.74-1.1195151-.12374448-2.2509757-.08670261-3.36.11-4.3.86-8.33 2.33-11.52 5.55-.64.62-1.39 1.2-2.42 2.07zm1.36 31.88c-1.29-.95-2.4-2.28-3.76-2.64-1.8587587-.6181212-3.5075492-1.743871-4.76-3.25-3.62-3.67-7.14-7.44-10.73-11.15-1.73984173-1.9155866-3.04619321-4.1837948-3.83-6.65-1.36-3.92-.12-7.2 2.61-9.89 3.81-3.75 11.1-2.52 13.6 2.25.7929747 1.5624977 1.497421 3.1683682 2.11 4.81.51 1.3 1 2.54 2.61 2.73s2.61-.87 3.43-2.15 1.8-2.78 2.81-4.09c2.131616-2.63122566 5.2143653-4.31631824 8.58-4.69.5 2.61 2.36 3.55 4.43 4.32 1 .37 2.16.78 2.34 2.39-.59.19-1.17.6-1.65.51-1-.18-1.93-.73-2.92-.93-.5736938.0015823-1.1413539.1171539-1.67.34.23.6.27 1.49.71 1.76 1.21.76 2.6 1.22 3.89 1.87.75.37 1.93.33 1.88 1.9-.5120241.1738017-1.0492848.2616557-1.59.26-1.1037487-.2748636-2.1919755-.6086755-3.26-1-.79-.25-1.79-.69-2 .43-.12.53.55 1.42 1.1 1.88.6997708.429401 1.4441423.7814685 2.22 1.05.93.48 1.6 1.3.9 2.21-.33.43-1.47.49-2.14.34-.8846342-.3293206-1.7436523-.7237336-2.57-1.18-.6824447-.2261771-1.3811346-.4000139-2.09-.52-.06.67-.29 1.22-.11 1.42 1.06 1.18 2.22 2.28 3.36 3.41-.47 1.41-1.3 1.91-2.61 1.27-.8906643-.5160732-1.808681-.9834271-2.75-1.4-.6425761-.0739674-1.2932594-.0299107-1.92.13.0694697.6513198.2557823 1.2847825.55 1.87.55.72 1.44 1.17 2 1.88.21.25.05 1-.17 1.36-.3009895.2488398-.7076958.3279215-1.08.21-.83-.41-1.57-1-2.37-1.44s-1.51-.82-2.53-1.37c-1.06 3.42 2.53 3.75 3.17 6.26l-1.81 2.16c-1.9-1.38-3.27-2.47-4.74-3.39-.41-.26-1.11 0-1.68 0 0 .66-.26 1.51.05 1.94.7501164.8429765 1.5623941 1.6285126 2.43 2.35.59.55 1.19 1.2-.04 2.43z"/></svg>