<svg width="15" height="19" viewBox="0 0 15 19" fill="none" xmlns="http://www.w3.org/2000/svg">
<path fill-rule="evenodd" clip-rule="evenodd" d="M15 13.4018C14.7396 15.0982 14.5312 16.9643 14.375 19C9.92185 18.8304 5.13023 18.8304 0 19V17.8973C0.130209 17.869 0.305988 17.8337 0.527344 17.7913C0.748699 17.7489 0.911458 17.7206 1.01562 17.7065C1.11979 17.6923 1.25 17.6641 1.40625 17.6217C1.5625 17.5792 1.67318 17.5439 1.73828 17.5156C1.80339 17.4874 1.88151 17.4449 1.97266 17.3884C2.0638 17.3318 2.12891 17.2824 2.16797 17.24C2.20703 17.1975 2.24609 17.1339 2.28516 17.0491C2.32422 16.9643 2.35026 16.8724 2.36328 16.7734C2.3763 16.6745 2.38281 16.5543 2.38281 16.4129C2.51302 10.532 2.51302 5.97992 2.38281 2.7567C2.38281 2.6436 2.3763 2.53758 2.36328 2.43861C2.35026 2.33966 2.33073 2.25484 2.30469 2.18415C2.27865 2.11347 2.24609 2.04986 2.20703 1.9933C2.16797 1.93675 2.12891 1.88021 2.08984 1.82366C2.05078 1.76711 1.98568 1.7247 1.89453 1.69643C1.80338 1.66815 1.72526 1.63988 1.66016 1.61161C1.59505 1.58333 1.49089 1.55506 1.34766 1.52679C1.20443 1.49851 1.08073 1.47024 0.976562 1.44196C0.872395 1.41369 0.716147 1.37835 0.507812 1.33594C0.299478 1.29353 0.130209 1.25819 0 1.22992V0.169642C6.74482 0.395833 11.4713 0.339286 14.1797 0L13.8672 5.34375H12.9688C12.9427 5.23065 12.8971 5.03274 12.832 4.75C12.7669 4.46726 12.7148 4.26228 12.6758 4.13504C12.6367 4.00781 12.5846 3.81696 12.5195 3.5625C12.4544 3.30804 12.3958 3.11719 12.3438 2.98996C12.2917 2.86272 12.2266 2.70722 12.1484 2.52344C12.0703 2.33966 11.9922 2.19829 11.9141 2.09933C11.8359 2.00037 11.7383 1.90141 11.6211 1.80246C11.5039 1.7035 11.3802 1.63282 11.25 1.5904C11.1198 1.54799 10.9766 1.52679 10.8203 1.52679H5.46875C5.28646 1.52679 5.17578 1.55506 5.13672 1.61161C5.09766 1.66816 5.07812 1.78125 5.07812 1.95089V8.90625L8.51562 8.77901C8.64583 8.77901 8.75 8.77195 8.82812 8.75781C8.90625 8.74367 8.98438 8.72954 9.0625 8.7154C9.14062 8.70127 9.21224 8.66593 9.27734 8.60937C9.34245 8.55282 9.39453 8.51042 9.43359 8.48214C9.47266 8.45387 9.51172 8.38319 9.55078 8.27008C9.58984 8.15699 9.62239 8.07218 9.64843 8.01563C9.67448 7.95907 9.70703 7.83891 9.74609 7.65514C9.78516 7.47135 9.81771 7.32292 9.84375 7.20982C9.86979 7.09673 9.90885 6.91295 9.96093 6.65849C10.013 6.40401 10.0651 6.19196 10.1172 6.02232H11.0938C11.0156 8.14287 10.9766 9.28794 10.9766 9.45758C10.9766 9.62724 11.0026 10.744 11.0547 12.808H10.0391C10.013 12.6667 9.96745 12.4475 9.90234 12.1507C9.83724 11.8538 9.79167 11.6488 9.76562 11.5357C9.73958 11.4226 9.70053 11.2671 9.64843 11.0692C9.59635 10.8713 9.54428 10.744 9.49218 10.6875C9.4401 10.631 9.36198 10.5532 9.25782 10.4542C9.15364 10.3553 9.04297 10.2917 8.92578 10.2634C8.80859 10.2351 8.65886 10.2068 8.47657 10.1786C7.92968 10.122 6.78386 10.0938 5.03906 10.0938V15.9888C5.03906 17.0915 5.62499 17.6429 6.79688 17.6429H10.2734C10.5859 17.6429 10.8659 17.6146 11.1133 17.558C11.3607 17.5015 11.569 17.4591 11.7383 17.4308C11.9075 17.4025 12.0833 17.2965 12.2656 17.1127C12.4479 16.9289 12.5781 16.8017 12.6562 16.731C12.7344 16.6603 12.8516 16.4554 13.0078 16.1161C13.1641 15.7768 13.2747 15.5435 13.3398 15.4163C13.405 15.2891 13.5352 14.971 13.7305 14.4621C13.9258 13.9531 14.0625 13.5997 14.1406 13.4018H15Z" fill="black"/>
</svg>
