<svg width="19" height="19" viewBox="0 0 19 19" fill="none" xmlns="http://www.w3.org/2000/svg">
<path fill-rule="evenodd" clip-rule="evenodd" d="M4.24107 19H0.296875V6.3192H4.24107V19ZM2.29018 4.58036C1.66815 4.58036 1.13096 4.35417 0.678572 3.90179C0.226189 3.4494 0 2.9122 0 2.29018C0 1.66815 0.226189 1.13095 0.678572 0.678572C1.13096 0.226191 1.66815 0 2.29018 0C2.68601 0 3.06064 0.0989535 3.41406 0.29687C3.76749 0.494796 4.05022 0.770459 4.26228 1.12389C4.47433 1.4773 4.58036 1.85901 4.58036 2.26897C4.58036 2.67895 4.47433 3.06064 4.26228 3.41406C4.05022 3.76748 3.76749 4.05022 3.41406 4.26228C3.06064 4.47433 2.68601 4.58036 2.29018 4.58036V4.58036ZM19 19H15.0558V12.808C15.0558 12.3274 15.0417 11.9386 15.0134 11.6417C14.9851 11.3449 14.9144 11.0056 14.8013 10.6239C14.6882 10.2422 14.4833 9.95238 14.1864 9.75447C13.8895 9.55655 13.5007 9.45758 13.0201 9.45758C12.087 9.45758 11.458 9.75447 11.1328 10.3482C10.8077 10.942 10.6451 11.7336 10.6451 12.7232V19H6.70089V6.3192H10.5179V8.05803H10.5603C10.843 7.49256 11.3095 7.00484 11.9598 6.59486C12.6101 6.1849 13.3876 5.97992 14.2924 5.97992C15.2537 5.97992 16.0524 6.12835 16.6886 6.42522C17.3248 6.7221 17.8054 7.16034 18.1306 7.73996C18.4557 8.31958 18.6819 8.94866 18.8091 9.62723C18.9364 10.3058 19 11.1116 19 12.0446V19Z" fill="black"/>
</svg>
