<svg width="56" height="56" viewBox="0 0 56 56" fill="none" xmlns="http://www.w3.org/2000/svg">
<circle opacity="0.5" cx="28" cy="28" r="23" fill="url(#paint0_linear)"/>
<g clip-path="url(#clip0)">
<path d="M27.5022 31.9276C35.2021 31.9276 41.466 25.6643 41.466 17.9645C41.466 10.2639 35.2027 4 27.5022 4C19.8024 4 13.5385 10.2639 13.5385 17.9645C13.5385 25.6643 19.8031 31.9276 27.5022 31.9276ZM27.5022 6.04348C34.0754 6.04348 39.4225 11.3913 39.4225 17.9645C39.4225 24.537 34.0754 29.8841 27.5022 29.8841C20.9297 29.8841 15.5819 24.537 15.5819 17.9645C15.5819 11.3913 20.9297 6.04348 27.5022 6.04348Z" fill="black"/>
<path d="M27.8727 33.2886C17.9954 33.2886 9.53315 40.6743 8.23804 49.898C8.15492 50.49 8.62883 51.0001 9.22665 51.0001C9.75919 51.0001 10.1997 50.5917 10.2773 50.0648C11.4838 41.8748 19.0487 35.3321 27.8727 35.3321C36.4782 35.3321 43.6074 41.7537 44.7307 50.0569C44.8024 50.5874 45.2444 51.0001 45.7798 51.0001C46.3748 51.0001 46.8475 50.4944 46.7715 49.9042C45.5672 40.5452 37.554 33.2886 27.8727 33.2886Z" fill="black"/>
</g>
<defs>
<linearGradient id="paint0_linear" x1="9" y1="16" x2="47.5" y2="42" gradientUnits="userSpaceOnUse">
<stop stop-color="#ECFF0C"/>
<stop offset="1" stop-color="#07FDC2"/>
</linearGradient>
<clipPath id="clip0">
<rect width="47" height="47" fill="white" transform="translate(4 4)"/>
</clipPath>
</defs>
</svg>
