<svg width="56" height="56" viewBox="0 0 56 56" fill="none" xmlns="http://www.w3.org/2000/svg">
<circle opacity="0.5" cx="28" cy="28" r="23" fill="url(#paint0_linear)"/>
<path d="M1.39677 23.0969C4.73671 19.4013 9.29461 16.5959 14.4161 16.4794C19.5376 16.363 24.799 19.0558 26.5957 23.9907C27.3953 26.1488 27.4604 28.5075 26.7811 30.7058C25.9338 33.3347 23.199 36.4219 20.0823 35.5393C17.5669 34.8257 17.113 31.9639 17.5934 29.7706C18.1305 27.322 19.8629 25.2188 21.9962 23.9231C24.2657 22.5448 27.095 22.203 29.5044 23.4161C32.6061 24.9785 33.2869 28.4299 32.7158 31.5658C32.0425 35.2689 28.6874 39.7005 30.068 43.5501C31.2028 46.701 34.3801 45.165 35.8931 43.2196C37.3493 41.3418 38.2231 39.0583 39.8344 37.2969C40.799 36.2454 42.0737 35.314 43.511 35.0436C45.1337 34.7431 46.1588 35.7271 47.6717 35.9674C52.0784 36.681 51.719 29.8833 51.1932 27.3558C50.5729 24.3513 49.4873 21.373 50.0925 18.2784C50.68 15.3485 52.4058 12.7662 54.8963 11.0901C55.146 10.9211 54.8963 10.5117 54.658 10.6845C50.8145 13.2859 48.8471 17.8703 49.6197 22.4246C50.1115 25.6282 51.6812 28.9895 50.9776 32.2719C50.8515 33.0142 50.5776 33.7241 50.172 34.36C48.9654 36.0576 47.7739 35.3891 46.2344 34.9271C45.2472 34.6304 44.4415 34.4013 43.4013 34.6079C41.2491 35.036 39.5961 36.6773 38.4084 38.4199C37.6708 39.4977 37.0619 40.6733 36.3583 41.7586C35.9105 42.5016 35.3829 43.1941 34.7848 43.8242C33.6501 44.9509 31.8874 45.3603 30.8321 43.9219C29.077 41.5371 31.3503 37.4209 32.1938 35.0736C33.0373 32.7263 33.7295 30.165 33.2113 27.6374C32.3224 23.2884 27.6359 21.2566 23.5811 22.68C19.8591 23.9569 16.7499 27.7013 16.9541 31.7348C17.1319 35.2614 20.3924 37.188 23.5849 35.4642C27.477 33.3761 28.4113 28.2909 27.2198 24.3926C25.7068 19.4276 20.8766 16.4269 15.8307 16.0476C10.0776 15.6194 4.7821 18.6352 1.06391 22.7664C0.859653 22.988 1.19251 23.3222 1.39677 23.0969Z" fill="#1D1D1B" stroke="black" stroke-width="0.385714"/>
<defs>
<linearGradient id="paint0_linear" x1="9" y1="16" x2="47.5" y2="42" gradientUnits="userSpaceOnUse">
<stop stop-color="#ECFF0C"/>
<stop offset="1" stop-color="#07FDC2"/>
</linearGradient>
</defs>
</svg>
