<?xml version="1.0" encoding="UTF-8"?>
<svg width="56px" height="50px" viewBox="0 0 56 50" version="1.1" xmlns="http://www.w3.org/2000/svg" xmlns:xlink="http://www.w3.org/1999/xlink">
    <title>sketch-icon</title>
    <g id="Page-Designs" stroke="none" stroke-width="1" fill="none" fill-rule="evenodd">
        <g id="A-week-of-ui" transform="translate(-539.000000, -1064.000000)" fill="#1D1D1B" fill-rule="nonzero">
            <g id="sketch-icon" transform="translate(539.000000, 1064.000000)">
                <path d="M12.0109503,2.10617652 C14.3293503,1.59661768 16.7548504,1.73558827 19.1079004,1.48852945 C21.9093005,1.19000003 24.7075506,0.951176492 27.5026506,0.772058841 L27.2223006,0.114264708 C25.8804006,1.58735298 24.3873006,2.89367654 22.9383005,4.26794127 C21.6305422,5.57803582 20.408034,6.96739034 19.2780004,8.42779431 C16.7580004,11.5160297 13.8411003,14.4189709 10.9998002,17.201471 L11.6739003,17.4732357 C11.5227003,12.2232356 11.9889003,6.97323545 12.3039003,1.72323533 C12.3354003,1.22602944 11.5479003,1.22911767 11.5164003,1.72323533 C11.2014003,6.97323545 10.7415002,12.2232356 10.8864002,17.4732357 C10.8902733,17.6272153 10.9864243,17.764463 11.131627,17.8232766 C11.2768297,17.8820901 11.4437517,17.8513988 11.5573503,17.7450004 C14.3955003,14.9655886 17.3250004,12.0441179 19.8450005,8.97441197 C20.9721165,7.51438357 22.1914564,6.1250428 23.4958505,4.81455893 C24.9354006,3.43411773 26.4379506,2.13397064 27.7798506,0.660882368 C27.8875596,0.548774388 27.9183753,0.385240361 27.8586317,0.242803583 C27.7988881,0.100366804 27.659644,0.00539272511 27.5026506,0 C24.5227506,0.188382357 21.5586005,0.484852952 18.5850004,0.768970606 C16.3264504,0.985147081 14.0238003,0.873970608 11.7967503,1.35882356 C11.3022003,1.4669118 11.5132503,2.21426476 12.0078003,2.10617652 L12.0109503,2.10617652 Z" id="Path"></path>
                <path d="M42.887251,1.4236765 C40.6633509,0.914117668 38.3607009,1.03147061 36.0990008,0.80602943 C33.1285508,0.497205894 30.1675507,0.188382357 27.1876506,5.65411433e-16 C26.8159506,-0.0247058829 26.7088506,0.42617648 26.9073006,0.660882368 C29.6478007,3.88500009 32.7159007,6.7416178 35.6265008,9.79279434 C36.9904508,11.2226473 38.3733009,12.5475003 39.6364509,14.0730886 C40.7736009,15.4473533 41.923351,16.7660298 43.391251,17.8067651 C43.5133063,17.8744175 43.6627139,17.8739141 43.784292,17.8054408 C43.9058702,17.7369675 43.9815769,17.6106856 43.983451,17.4732357 C44.118901,12.2232356 43.492051,7.01955898 43.177051,1.79735298 C43.148701,1.30323532 42.361201,1.30014709 42.389551,1.79735298 C42.704551,7.01955898 43.334551,12.2355885 43.195951,17.4732357 L43.785001,17.1397063 C42.175351,15.9970592 40.9500009,14.4622062 39.7246509,12.9613238 C38.4993009,11.4604414 37.0975508,10.2683826 35.8281008,8.86014726 C33.1254008,5.86764719 30.0951007,3.21176478 27.4648506,0.114264708 L27.1876506,0.772058841 C29.9911507,0.96147061 32.7936007,1.21058826 35.5950008,1.5194118 C37.9480509,1.78191181 40.3767009,1.63985298 42.691951,2.16794123 C43.183351,2.28220593 43.394401,1.55029415 42.899851,1.4236765 L42.887251,1.4236765 Z" id="Path"></path>
                <path d="M42.821101,2.04132358 C44.241751,4.8207354 46.223101,7.19867663 48.1918511,9.61058845 C50.3653511,12.2757356 52.4632512,15.0119121 54.4257012,17.831471 L54.7659012,17.2508827 C51.1371012,16.821618 47.4705011,17.0254416 43.822801,16.9204416 L44.216551,17.294118 C44.040151,14.7555886 44.298451,12.2047062 44.068501,9.66926493 C43.951951,8.38455901 43.690501,7.11838251 43.570801,5.83676484 C43.514101,5.24691188 43.476301,4.65397069 43.444801,4.06411774 C43.444801,3.9560295 43.340851,1.5194118 42.956551,1.84985298 C42.572251,2.18029417 43.132951,2.72073536 43.510951,2.39338241 L43.583401,2.3316177 C43.687844,2.23662822 43.7270921,2.09113108 43.684201,1.95794122 C43.629878,1.74874897 43.4587505,1.58816714 43.243201,1.54411768 C43.1057331,1.50603528 42.9580431,1.5452009 42.858901,1.64602945 C42.329701,2.2883824 42.619501,3.31058831 42.657301,4.07647068 C42.726601,5.39514718 42.865201,6.69838251 43.054201,8.00470606 C43.507801,11.0929414 43.211701,14.1811768 43.429051,17.306471 C43.434042,17.5176091 43.6074401,17.6876072 43.822801,17.6925004 C47.4705011,17.7975004 51.1371012,17.5936769 54.7659012,18.0229416 C54.9061002,18.0211043 55.0349077,17.946882 55.1047505,17.8276877 C55.1745933,17.7084935 55.1751067,17.5620154 55.1061013,17.4423533 C53.3137512,14.8698533 51.4048512,12.3683826 49.4361011,9.91632375 C47.3035511,7.25426487 45.057601,4.69720599 43.495201,1.65220592 C43.268401,1.20750003 42.588001,1.59970592 42.817951,2.04132358 L42.821101,2.04132358 Z" id="Path"></path>
                <path d="M11.2455003,1.65220592 C9.85320022,4.46558834 7.89390018,6.90220604 5.95980014,9.35426492 C3.89655009,11.9823532 1.91520004,14.6752945 0.0535500012,17.4423533 C-0.0154554694,17.5620154 -0.0149420019,17.7084935 0.0549007611,17.8276877 C0.124743524,17.946882 0.253551063,18.0211043 0.393750009,18.0229416 C3.89340009,17.5936769 7.43085017,17.7975004 10.9462502,17.6925004 C11.0523543,17.6908751 11.1534526,17.6479866 11.2272979,17.5732726 C11.3011431,17.4985585 11.3416843,17.3981413 11.3400003,17.294118 C11.5510503,14.2058827 11.2675503,11.1176473 11.7022503,8.00470606 C11.8849503,6.69838251 12.0172503,5.39514718 12.0834003,4.07647068 C12.1212003,3.30441184 12.3984003,2.29764711 11.8849503,1.64602945 C11.7871741,1.54511814 11.6402947,1.50584555 11.5038003,1.54411768 C11.2860619,1.59120092 11.115546,1.75717071 11.0659503,1.97029416 C11.0261289,2.10353954 11.0649477,2.24744514 11.1667503,2.34397064 L11.2360503,2.40573535 C11.6109003,2.73926477 12.1810503,2.19573534 11.7936003,1.86220592 C11.4061503,1.52867651 11.3022003,3.97147068 11.2959003,4.07647068 C11.2675503,4.66632364 11.2297503,5.25926483 11.1762003,5.84911778 C11.0596503,7.13073546 10.8108002,8.39691196 10.6974002,9.68161787 C10.4737502,12.2170591 10.7100002,14.7679415 10.5525002,17.294118 L10.9462502,16.9080886 C7.43085017,17.0130886 3.89340009,16.8092651 0.393750009,17.2385298 L0.733950017,17.8191181 C2.62395006,14.9933827 4.66515011,12.241765 6.77565015,9.55808845 C8.6656502,7.1523531 10.5556502,4.77750011 11.9259003,2.02897063 C12.1464003,1.58426474 11.4691503,1.19205885 11.2455003,1.63985298 L11.2455003,1.65220592 Z" id="Path"></path>
                <path d="M27.1057506,0.237794123 C24.2865006,2.93691183 21.7098005,5.86764719 18.9945004,8.64705902 C17.6368504,10.0429414 16.1595004,11.3338238 14.8176003,12.7389709 C13.4757003,14.144118 12.3700503,15.7067651 10.9998002,17.0625004 C10.8909233,17.1742812 10.859849,17.3386405 10.9206295,17.4812519 C10.9814101,17.6238633 11.1225214,17.7176871 11.2801503,17.7202945 C16.6950004,18.0105886 22.1193005,17.9426475 27.5404506,17.8963239 C32.9616007,17.8500004 38.3418009,18.1650004 43.725151,17.9426475 C43.8822102,17.9388504 44.0222028,17.8445846 44.0821927,17.702229 C44.1421825,17.5598735 44.1108774,17.3962245 44.002351,17.2848533 C40.8523509,14.4776474 38.5213509,10.9014708 35.4028508,8.09117665 C34.1239508,6.93617663 32.9301007,5.70705895 31.6449007,4.56132363 C30.1612507,3.25500007 28.7248507,2.06602946 27.7200006,0.308823536 C27.6576813,0.203125961 27.5487112,0.131907526 27.4252231,0.116168846 C27.301735,0.100430166 27.1778137,0.141966368 27.0900006,0.228529417 C26.8443006,0.435441186 26.6679006,0.670147074 26.4222006,0.873970608 C26.0379006,1.18279414 26.5954506,1.73867651 26.9797506,1.41750003 C27.2412006,1.23529415 27.4050006,0.988235317 27.6633006,0.784411783 L27.0333006,0.707205898 C27.9405006,2.2883824 29.1721507,3.46500008 30.5455507,4.66014716 C31.9189507,5.85529425 33.1096508,7.17088252 34.4830508,8.34750019 C37.8000009,11.1732355 40.1814009,14.9439709 43.447951,17.8500004 L43.725151,17.189118 C38.3418009,17.411471 32.9301007,17.096471 27.5404506,17.1427945 C22.1508005,17.189118 16.6950004,17.2570592 11.2801503,16.9667651 L11.5573503,17.6245592 C12.9276003,16.2626474 14.0427003,14.6876474 15.3751503,13.3010297 C16.7076004,11.914412 18.1944004,10.6080885 19.5489004,9.21220609 C22.2642005,6.43279426 24.8440506,3.4927942 27.6633006,0.793676489 C28.0350006,0.438529422 27.4680006,-0.108088238 27.1057506,0.237794123 Z" id="Path"></path>
                <path d="M43.350301,17.9642651 C47.0515511,18.0661769 50.7528012,17.726471 54.4509012,17.9395592 L54.1800012,17.294118 C49.4802011,22.5214711 44.853901,27.8188242 40.3011009,33.1861772 C35.9509508,38.3250009 31.1661007,43.090148 26.9703006,48.3494129 L27.6286506,48.7261776 C28.6744507,46.1258834 30.1770007,43.7232363 31.4590507,41.2341186 C32.7904507,38.6523538 34.1334008,36.0788243 35.4879008,33.5135302 C38.2315509,28.2635301 40.9941009,23.0567652 43.693651,17.8005886 C43.923601,17.358971 43.243201,16.9667651 43.016401,17.411471 C40.2223509,22.843677 37.3653008,28.2450006 34.5303008,33.655589 C33.1317008,36.3197067 31.7436007,38.9889715 30.3660007,41.6633833 C29.1816007,43.9517657 27.8460006,46.1413246 26.8695006,48.5316187 C26.7277506,48.8805893 27.2884506,49.2048541 27.5247006,48.9083835 C31.7362507,43.6583833 36.5085008,38.8839715 40.8586509,33.7451478 C45.398851,28.3922065 50.0251511,23.0948535 54.7375512,17.8530886 C54.8464282,17.7413078 54.8775025,17.5769486 54.816722,17.4343372 C54.7559414,17.2917258 54.6148301,17.1979019 54.4572012,17.1952945 C50.7591012,16.9822063 47.0578511,17.3219122 43.356601,17.2200004 C43.1391389,17.2200004 42.962851,17.3928316 42.962851,17.6060298 C42.962851,17.819228 43.1391389,17.9920592 43.356601,17.9920592 L43.350301,17.9642651 Z" id="Path"></path>
                <path d="M11.2581003,17.1922063 C7.63560017,17.294118 4.01310009,16.9544121 0.393750009,17.1675004 C0.236121112,17.1701078 0.0950098505,17.2639317 0.0342292774,17.406543 C-0.0265512956,17.5491544 0.00452307631,17.7135137 0.113400003,17.8252945 C4.6021501,22.9239711 9.04995021,28.0844124 13.3654503,33.3189713 C17.6809504,38.5535303 22.4784005,43.4391186 26.6773506,48.7941188 C26.9199006,49.1029423 27.5751006,48.9485305 27.3987006,48.4852952 C26.4915006,46.1907363 25.2315006,44.0783834 24.1101005,41.8857362 C22.7178005,39.1588244 21.3444005,36.4226479 19.9458005,33.6957361 C17.1549004,28.275883 14.3451003,22.8529417 11.5983003,17.3836769 C11.3715003,16.938971 10.6942502,17.3280886 10.9179002,17.7727945 C13.5733503,23.053677 16.2886504,28.3036771 18.9882004,33.5629419 C20.2923005,36.0994126 21.5890505,38.6430891 22.8784505,41.1939715 C24.1384505,43.6923539 25.6095006,46.107354 26.6395506,48.7107364 L27.3577506,48.4019129 C23.2218005,43.1241186 18.5377504,38.3250009 14.2506003,33.1614713 C9.80910022,27.8105889 5.28255012,22.5214711 0.670950015,17.294118 L0.393750009,17.9550004 C4.01310009,17.7419122 7.63875017,18.0816181 11.2581003,17.9797063 C11.4755624,17.9797063 11.6518503,17.806875 11.6518503,17.5936769 C11.6518503,17.3804787 11.4755624,17.2076474 11.2581003,17.2076474 L11.2581003,17.1922063 Z" id="Path"></path>
            </g>
        </g>
    </g>
</svg>