<svg width="56" height="56" viewBox="0 0 56 56" fill="none" xmlns="http://www.w3.org/2000/svg">
<circle opacity="0.5" cx="28" cy="28" r="23" fill="url(#paint0_linear)"/>
<g clip-path="url(#clip0)">
<path d="M46.7943 3.82764C46.2075 3.82764 45.6696 3.94174 45.1805 4.16996C44.6915 4.39817 44.2514 4.70789 43.8602 5.09911C43.4689 5.42513 43.1592 5.84896 42.931 6.37059C42.7028 6.89222 42.5887 7.44645 42.5887 8.03329C42.5887 8.35931 42.6376 8.70163 42.7354 9.06025C42.8332 9.41887 42.9799 9.72859 43.1755 9.98941C43.3059 10.3154 43.4852 10.5925 43.7135 10.8208C43.9417 11.049 44.1862 11.2609 44.447 11.4565L36.6225 32.2891C36.4921 32.2891 36.378 32.2728 36.2802 32.2402C36.1824 32.2076 36.0683 32.1913 35.9379 32.1913C35.4163 32.1913 34.9435 32.2728 34.5197 32.4359C34.0959 32.5989 33.6884 32.8434 33.2971 33.1694L25.3749 26.6164C25.5705 26.3556 25.7172 26.0622 25.815 25.7361C25.9128 25.4101 25.9617 25.0515 25.9617 24.6603C25.9617 24.1387 25.8476 23.617 25.6194 23.0954C25.3912 22.5738 25.0815 22.1173 24.6902 21.7261C24.299 21.3349 23.8589 21.0415 23.3698 20.8459C22.8808 20.6502 22.3429 20.5524 21.756 20.5524C21.1692 20.5524 20.6313 20.6502 20.1423 20.8459C19.6532 21.0415 19.2131 21.3349 18.8219 21.7261C18.4306 22.1173 18.1209 22.5738 17.8927 23.0954C17.6645 23.617 17.5504 24.1387 17.5504 24.6603C17.5504 24.9863 17.583 25.296 17.6482 25.5894C17.7134 25.8829 17.8112 26.16 17.9416 26.4208C18.072 26.6816 18.2187 26.9261 18.3817 27.1543C18.5448 27.3825 18.7567 27.5945 19.0175 27.7901L10.6062 42.461C10.4106 42.3957 10.1987 42.3468 9.97045 42.3142C9.74223 42.2816 9.49772 42.2653 9.2369 42.2653C8.65006 42.2653 8.11214 42.3631 7.62311 42.5588C7.13407 42.7544 6.69395 43.0478 6.30273 43.439C5.9115 43.8302 5.60179 44.2704 5.37357 44.7594C5.14536 45.2484 5.03125 45.7863 5.03125 46.3732C5.03125 46.96 5.14536 47.5143 5.37357 48.0359C5.60179 48.5575 5.9115 48.9813 6.30273 49.3074C6.69395 49.6986 7.13407 50.0083 7.62311 50.2365C8.11214 50.4647 8.65006 50.5788 9.2369 50.5788C9.82374 50.5788 10.3617 50.4647 10.8507 50.2365C11.3397 50.0083 11.7799 49.6986 12.1711 49.3074C12.5623 48.9813 12.872 48.5575 13.1002 48.0359C13.3284 47.5143 13.4426 46.96 13.4426 46.3732C13.4426 46.0472 13.41 45.7537 13.3447 45.4929C13.2795 45.2321 13.1817 44.9713 13.0513 44.7105C12.9209 44.4497 12.7742 44.2052 12.6112 43.9769C12.4482 43.7487 12.2689 43.5368 12.0733 43.3412L20.4846 28.6703C20.6802 28.7355 20.8758 28.7844 21.0714 28.817C21.267 28.8496 21.4952 28.8659 21.756 28.8659C22.2777 28.8659 22.7504 28.7844 23.1742 28.6214C23.5981 28.4584 24.0056 28.2139 24.3968 27.8879L32.2213 34.4409C32.0909 34.7669 31.9768 35.0766 31.879 35.37C31.7811 35.6634 31.7322 36.0058 31.7322 36.397C31.7322 36.9838 31.8464 37.5218 32.0746 38.0108C32.3028 38.4998 32.6125 38.9399 33.0037 39.3312C33.3949 39.7224 33.8351 40.0158 34.3241 40.2114C34.8131 40.407 35.3511 40.5048 35.9379 40.5048C36.5247 40.5048 37.0627 40.407 37.5517 40.2114C38.0407 40.0158 38.4808 39.7224 38.8721 39.3312C39.2633 38.9399 39.573 38.4998 39.8012 38.0108C40.0294 37.5218 40.1435 36.9838 40.1435 36.397C40.1435 36.0058 40.0946 35.6471 39.9968 35.3211C39.899 34.9951 39.7523 34.6691 39.5567 34.3431C39.4263 34.017 39.2307 33.7399 38.9699 33.5117C38.7091 33.2835 38.4482 33.0716 38.1874 32.876L46.0119 12.1411C46.1423 12.1411 46.2727 12.1411 46.4031 12.1411C46.5335 12.1411 46.6639 12.1411 46.7943 12.1411C47.3812 12.1411 47.9191 12.0433 48.4081 11.8477C48.8972 11.6521 49.3373 11.3587 49.7285 10.9675C50.1197 10.5762 50.4295 10.1361 50.6577 9.64708C50.8859 9.15805 51 8.62013 51 8.03329C51 7.44645 50.8859 6.89222 50.6577 6.37059C50.4295 5.84896 50.1197 5.42513 49.7285 5.09911C49.3373 4.70789 48.8972 4.39817 48.4081 4.16996C47.9191 3.94174 47.3812 3.82764 46.7943 3.82764ZM9.2369 48.9161C8.91088 48.9161 8.58486 48.8509 8.25884 48.7205C7.93282 48.5901 7.67201 48.3945 7.4764 48.1337C7.28078 47.9381 7.10147 47.6773 6.93846 47.3512C6.77545 47.0252 6.69395 46.6992 6.69395 46.3732C6.69395 46.0472 6.77545 45.7374 6.93846 45.444C7.10147 45.1506 7.28078 44.8735 7.4764 44.6127C7.67201 44.4171 7.93282 44.2541 8.25884 44.1237C8.58486 43.9932 8.91088 43.928 9.2369 43.928C9.56292 43.928 9.88894 43.9932 10.215 44.1237C10.541 44.2541 10.8018 44.4171 10.9974 44.6127C11.2582 44.8735 11.4538 45.1506 11.5842 45.444C11.7146 45.7374 11.7799 46.0472 11.7799 46.3732C11.7799 46.6992 11.7146 47.0252 11.5842 47.3512C11.4538 47.6773 11.2582 47.9381 10.9974 48.1337C10.8018 48.3945 10.541 48.5901 10.215 48.7205C9.88894 48.8509 9.56292 48.9161 9.2369 48.9161ZM21.756 27.2032C21.43 27.2032 21.104 27.138 20.778 27.0076C20.452 26.8772 20.1912 26.6816 19.9955 26.4208C19.7347 26.2252 19.5391 25.9807 19.4087 25.6872C19.2783 25.3938 19.2131 25.0515 19.2131 24.6603C19.2131 24.3343 19.2783 24.0245 19.4087 23.7311C19.5391 23.4377 19.7347 23.1606 19.9955 22.8998C20.1912 22.7042 20.452 22.5412 20.778 22.4107C21.104 22.2803 21.43 22.2151 21.756 22.2151C22.0821 22.2151 22.4081 22.2803 22.7341 22.4107C23.0601 22.5412 23.3209 22.7042 23.5166 22.8998C23.7122 23.1606 23.8915 23.4377 24.0545 23.7311C24.2175 24.0245 24.299 24.3343 24.299 24.6603C24.299 25.0515 24.2175 25.3938 24.0545 25.6872C23.8915 25.9807 23.7122 26.2252 23.5166 26.4208C23.3209 26.6816 23.0601 26.8772 22.7341 27.0076C22.4081 27.138 22.0821 27.2032 21.756 27.2032ZM35.9379 38.8421C35.6119 38.8421 35.2859 38.7769 34.9598 38.6465C34.6338 38.5161 34.373 38.3531 34.1774 38.1575C33.9166 37.8967 33.721 37.6196 33.5906 37.3261C33.4601 37.0327 33.3949 36.723 33.3949 36.397C33.3949 36.071 33.4601 35.745 33.5906 35.4189C33.721 35.0929 33.9166 34.8321 34.1774 34.6365C34.373 34.3757 34.6338 34.1801 34.9598 34.0496C35.2859 33.9192 35.6119 33.854 35.9379 33.854C36.2639 33.854 36.5899 33.9192 36.916 34.0496C37.242 34.1801 37.5028 34.3757 37.6984 34.6365C37.9592 34.8321 38.1548 35.0929 38.2852 35.4189C38.4156 35.745 38.4808 36.071 38.4808 36.397C38.4808 36.723 38.4156 37.0327 38.2852 37.3261C38.1548 37.6196 37.9592 37.8967 37.6984 38.1575C37.5028 38.3531 37.242 38.5161 36.916 38.6465C36.5899 38.7769 36.2639 38.8421 35.9379 38.8421ZM46.7943 10.4784C46.4683 10.4784 46.1423 10.4132 45.8163 10.2828C45.4903 10.1524 45.2295 9.98941 45.0338 9.79379C44.773 9.53298 44.5774 9.25586 44.447 8.96245C44.3166 8.66903 44.2514 8.35931 44.2514 8.03329C44.2514 7.70727 44.3166 7.38125 44.447 7.05523C44.5774 6.72921 44.773 6.46839 45.0338 6.27278C45.2295 6.01197 45.4903 5.81636 45.8163 5.68595C46.1423 5.55554 46.4683 5.49034 46.7943 5.49034C47.1204 5.49034 47.4464 5.55554 47.7724 5.68595C48.0984 5.81636 48.3592 6.01197 48.5549 6.27278C48.7505 6.46839 48.9298 6.72921 49.0928 7.05523C49.2558 7.38125 49.3373 7.70727 49.3373 8.03329C49.3373 8.35931 49.2558 8.66903 49.0928 8.96245C48.9298 9.25586 48.7505 9.53298 48.5549 9.79379C48.3592 9.98941 48.0984 10.1524 47.7724 10.2828C47.4464 10.4132 47.1204 10.4784 46.7943 10.4784Z" fill="black"/>
</g>
<defs>
<linearGradient id="paint0_linear" x1="9" y1="16" x2="47.5" y2="42" gradientUnits="userSpaceOnUse">
<stop stop-color="#ECFF0C"/>
<stop offset="1" stop-color="#07FDC2"/>
</linearGradient>
<clipPath id="clip0">
<rect width="45.9688" height="46.7512" fill="white" transform="translate(5.03125 3.82764)"/>
</clipPath>
</defs>
</svg>
