<?xml version="1.0" encoding="UTF-8"?>
<svg width="40px" height="28px" viewBox="0 0 40 28" version="1.1" xmlns="http://www.w3.org/2000/svg" xmlns:xlink="http://www.w3.org/1999/xlink">
    <title>email-icon</title>
    <g id="Symbols" stroke="none" stroke-width="1" fill="none" fill-rule="evenodd">
        <g id="CTA" transform="translate(-700.000000, -270.000000)" fill="#1D1D1B" fill-rule="nonzero">
            <g id="email-icon" transform="translate(720.000000, 284.000000) rotate(4.000000) translate(-720.000000, -284.000000) translate(701.000000, 272.000000)">
                <path d="M0.216999996,2.86999995 C4.03907166,4.95189583 7.67600273,7.35700091 11.0879998,10.0589998 C13.1109998,11.6759998 15.9249997,15.3439997 18.7879997,15.4909997 C21.4619996,15.6239997 23.8069996,12.5859998 25.6269996,11.0669998 L36.7499994,1.74999997 C37.0719994,1.47699997 36.7499994,1.04999998 36.4419994,1.00099998 C24.7643983,-0.323106822 12.9752151,-0.334846698 1.29499998,0.965999984 C0.741999987,1.02199998 0.734999987,1.90399997 1.29499998,1.84099997 C12.9752151,0.540153288 24.7643983,0.551893163 36.4419994,1.87599997 L36.1339994,1.12699998 L27.6429995,8.23199986 C24.1429996,11.1439998 19.9849997,16.4429997 15.3439997,12.5439998 C10.8084966,8.5825228 5.88875775,5.08383343 0.657999989,2.09999996 C0.160999997,1.84099997 -0.279999995,2.59699996 0.216999996,2.86999995 Z" id="Path"></path>
                <path d="M0.181999997,0.972999983 C0.256666662,8.43966652 0.576333324,15.8736664 1.14099998,23.2749996 C1.148292,23.515472 1.3415276,23.7087076 1.58199997,23.7159996 L37.5129994,21.2869996 C37.7538189,21.2831766 37.9469994,21.0868495 37.9469994,20.8459996 C37.4243327,14.5273331 37.076666,8.19233319 36.9039994,1.84099997 C36.8760707,1.62064465 36.6886175,1.4554504 36.4664994,1.4554504 C36.2443812,1.4554504 36.0569281,1.62064465 36.0289994,1.84099997 C36.1129994,5.01899991 36.2389994,8.19233319 36.4069994,11.3609998 C36.5189994,13.3489998 37.8069994,19.2009997 36.1269994,20.5029997 C35.4269994,21.0279996 32.9629994,20.7199996 31.9829995,20.7829996 L26.4529995,21.1609996 L17.4999997,21.7629996 L8.49099986,22.3999996 C7.32899988,22.4769996 3.95499993,23.3029996 2.96099995,22.7709996 C1.56099997,22.0149996 1.83399997,20.8459996 1.73599997,19.3829997 C1.32999998,13.2579998 1.11999998,7.13299988 1.03599998,1.00099998 C1.0080713,0.780644669 0.820618146,0.615450418 0.59849999,0.615450418 C0.376381833,0.615450418 0.188928675,0.780644669 0.160999997,1.00099998 L0.181999997,0.972999983 Z" id="Path"></path>
                <path d="M23.1769996,12.7889998 C26.9259115,16.0715206 31.14753,18.771091 35.6999994,20.7969996 C36.2109994,21.0209996 36.6589994,20.2649997 36.1409994,20.0409997 C31.6558973,18.0493505 27.495732,15.3946789 23.7999996,12.1659998 C23.3799996,11.8019998 22.7569996,12.4179998 23.1839996,12.7889998 L23.1769996,12.7889998 Z" id="Path"></path>
                <path d="M13.7479998,11.5219998 C9.28577385,14.7233212 5.35504217,18.6068085 2.09999996,23.0299996 C1.76399997,23.4849996 2.52699996,23.9189996 2.85599995,23.4709996 C6.02180593,19.165462 9.84639136,15.3857605 14.1889998,12.2709998 C14.6439998,11.9489998 14.1889998,11.1859998 13.7479998,11.5149998 L13.7479998,11.5219998 Z" id="Path"></path>
            </g>
        </g>
    </g>
</svg>