<?xml version="1.0" encoding="UTF-8"?>
<svg width="53px" height="50px" viewBox="0 0 53 50" version="1.1" xmlns="http://www.w3.org/2000/svg" xmlns:xlink="http://www.w3.org/1999/xlink">
    <title>product-icon</title>
    <g id="Page-Designs" stroke="none" stroke-width="1" fill="none" fill-rule="evenodd">
        <g id="A-week-of-ui" transform="translate(-1153.000000, -1064.000000)" fill="#1D1D1B" fill-rule="nonzero">
            <g id="product-icon" transform="translate(1153.000000, 1064.000000)">
                <path d="M46.4977722,16.2044425 C46.5999944,20.444442 46.59555,24.6799971 46.6088833,28.9199966 C46.6088833,30.9911074 46.6088833,33.0666627 46.6622167,35.142218 C46.6622167,36.2311068 46.7022167,37.3155511 46.7377722,38.3999954 C46.7822166,39.8311064 46.8088833,40.3333285 45.4711057,41.0177729 C43.8266614,41.8622172 41.8355506,42.2888838 40.137773,43.0044393 C38.5422176,43.6666615 36.9688845,44.3822169 35.4088847,45.1155502 C33.6977738,45.9199945 31.9955517,46.7511055 30.2888853,47.5644388 C29.3599965,48.0088832 28.7999966,48.6222164 28.3644411,47.5644388 C27.9288856,46.5066611 28.09333,44.8311058 28.01333,43.7377726 C27.6970475,39.3340989 27.6629037,34.9146979 27.9111078,30.506663 C27.9020399,29.5084738 27.9733816,28.5111757 28.1244411,27.5244412 C28.5688855,25.5511081 28.9199966,25.7466636 30.1377742,25.2044414 C30.8755519,24.8666637 34.0977737,22.4133307 34.8444403,22.8933306 C35.1911069,23.1111084 34.8044403,27.1555523 34.7955514,27.6711078 C34.7866625,28.1866633 34.5199959,29.1288854 34.9911069,29.4844409 C35.8133291,30.1022186 40.3244396,28.1999966 40.6977729,27.4844412 C40.9599951,26.9955523 40.5511063,25.2222192 40.5111063,24.7644415 C40.4266618,23.7955527 40.377773,22.7777751 40.2355508,21.8133307 C40.1733285,21.3688863 39.8933286,20.8399975 39.9066619,20.404442 C39.9466619,19.2177755 41.5955506,19.0933311 42.6488838,18.6844422 C44.1733281,18.0977756 45.444439,17.0844424 46.9377722,16.4622203 C47.266661,16.3244425 46.9866611,15.8444426 46.6577722,15.9822203 C45.2044391,16.599998 43.9911059,17.5822201 42.5022172,18.1688867 C41.7555506,18.4666645 40.968884,18.6755533 40.2444396,19.0311088 C38.7333287,19.7599976 39.4222175,20.2399976 39.6577731,21.7999974 C39.8622175,23.1333306 40.1911063,24.8533304 40.0533286,26.2444413 C39.9644397,27.1644412 40.5244396,26.7777746 39.4444397,27.5777745 C38.7567028,27.9041219 38.0519912,28.1934246 37.3333289,28.4444411 C36.7777734,28.6622188 35.822218,29.2977743 35.3111069,28.6533299 C35.1777736,28.484441 35.3111069,26.9999968 35.3111069,26.782219 C35.3111069,25.2933303 35.4355513,23.8177749 35.3511069,22.3377751 C35.3498327,22.2517046 35.3090396,22.1710037 35.2404893,22.1189401 C35.171939,22.0668766 35.0832509,22.0492375 34.9999958,22.0711085 C34.0115136,22.4401615 33.0593055,22.8998994 32.1555517,23.4444416 C31.0355519,24.0799971 29.7511076,24.528886 28.6622188,25.1733303 C27.2355523,26.0177747 27.5288856,27.6577745 27.4177745,29.2222187 C26.9796334,35.7619175 27.1537239,42.3282545 27.9377744,48.8355497 C27.9416083,48.9333441 27.9954487,49.0222993 28.0803118,49.0710505 C28.165175,49.1198017 28.269141,49.1215011 28.3555522,49.0755497 C34.551107,46.1688834 40.6133285,43.0622171 47.1822166,41.0755507 C47.3020551,41.041975 47.3853494,40.9333303 47.386661,40.808884 C47.0444388,32.6177739 47.2533277,24.4133304 47.0577722,16.2177758 C47.0400397,16.0778677 46.9210218,15.9729825 46.7799944,15.9729825 C46.638967,15.9729825 46.5199492,16.0778677 46.5022167,16.2177758 L46.4977722,16.2044425 Z" id="Path"></path>
                <path d="M6.94666584,17.4399979 C7.77390751,21.8904704 7.99517387,26.432411 7.60444354,30.9422185 C7.448888,33.0488849 7.1955547,35.142218 6.91111029,37.2355511 C6.77777697,38.195551 6.43111034,39.3599953 7.08888804,40.2088841 C7.74666574,41.0577729 9.50666553,41.3866617 10.4399988,41.7377728 C12.1911097,42.3911061 13.946665,43.0266615 15.6977759,43.6755503 C19.9437408,45.1849265 24.0783717,46.9908572 28.0711078,49.0799941 C28.1572138,49.1286753 28.262616,49.128313 28.3483854,49.0790412 C28.4341548,49.0297694 28.4875634,48.9388999 28.4888855,48.8399942 C28.3688855,44.6266613 28.1422189,40.3955507 28.0444411,36.1999957 C27.9999967,34.2444404 27.9866633,32.288885 28.0444411,30.3288853 C28.0711078,29.1422187 28.684441,26.8266635 27.9599967,25.7777747 C27.4844412,25.0888859 26.2266635,24.8266637 25.5333303,24.5377749 L19.8799976,22.186664 L14.2222205,19.8399976 L10.9999987,18.5066645 C10.6177765,18.3466645 7.69333242,17.4044424 7.65333242,17.0755535 L7.18222137,17.2755535 L6.95999917,17.2399979 C6.75111031,17.5333312 7.23555469,17.8088868 7.43999911,17.5199979 L7.63999909,17.2444424 C7.70021569,17.1341651 7.68224813,16.9976116 7.59555465,16.9066647 L7.58666576,16.8888869 C7.50669193,16.8108122 7.38794778,16.7877754 7.28458091,16.8302815 C7.18121403,16.8727875 7.11302583,16.9726936 7.11111026,17.0844424 C7.15999915,17.4977757 7.33333246,17.4222201 7.63999909,17.711109 C8.31999901,18.34222 9.99999881,18.6888867 10.8666654,19.0444422 L13.2844429,20.0533309 L24.5644415,24.7377748 L26.1777747,25.4088859 C27.3629597,25.9185154 27.8237004,26.7007376 27.5599967,27.7555522 C27.5959804,28.6142359 27.5677536,29.474408 27.4755523,30.3288853 C27.4399967,32.288885 27.4755523,34.2444404 27.4755523,36.1999957 C27.4755523,38.155551 27.5911078,40.0799952 27.6666634,42.0177728 C27.7022189,42.9066616 28.4044411,47.6622165 27.7599967,48.097772 C27.2533301,48.4355498 23.7288861,46.3199945 22.977775,45.9866612 C21.5066641,45.3333279 19.9999976,44.7244391 18.4799978,44.1377725 C16.7288869,43.462217 14.9688871,42.8044393 13.2133318,42.1688839 C12.324443,41.8488839 11.4622209,41.5288839 10.5911098,41.1999951 C9.35111,40.7555507 8.19555458,40.5999952 7.59555465,39.386662 C6.9022214,37.9866621 7.73333241,35.3199958 7.90222128,33.759996 C8.10222126,31.8799962 8.24888791,29.995552 8.30666568,28.1022189 C8.4454918,24.4794962 8.16812178,20.8528086 7.47999911,17.2933313 C7.41333245,16.9422202 6.87555474,17.0933313 6.94666584,17.4399979 L6.94666584,17.4399979 Z" id="Path"></path>
                <path d="M19.3155533,11.0799987 L23.0533306,9.02666559 C24.9733304,7.97333238 26.2888858,8.55555454 28.1066633,9.35555444 C30.1908982,10.2340033 32.3231993,10.9937376 34.4933292,11.6311097 C37.3111067,12.5199985 40.1644397,13.315554 42.8666616,14.5066649 C43.3688837,14.7288871 45.9777723,15.6577759 46.1022167,16.1955536 C46.1688834,16.4933314 45.0799946,16.8133313 44.693328,16.9777758 C43.3066615,17.551109 42.0266617,18.4844422 40.6044396,18.9244422 C38.4977732,19.5822199 36.133329,17.5199979 34.1333293,16.7022202 C29.1466632,14.6311094 23.8799972,13.5066651 19.0622199,11.0044431 C18.7466644,10.8399987 18.4666645,11.3155542 18.78222,11.4844431 C25.4488859,14.937776 33.0044405,15.9955536 39.346662,20.0711087 C39.4324878,20.1240501 39.5408361,20.1240501 39.6266619,20.0711087 C41.234137,19.1266899 42.9099098,18.3036597 44.6399947,17.6088868 C45.2799946,17.3422202 46.6844389,17.0355535 47.0177722,16.359998 C47.0779888,16.2497208 47.0600212,16.1131673 46.9733277,16.0222203 C45.3866613,14.6888871 42.9733282,13.906665 41.0355507,13.1866651 C38.3688843,12.1777763 35.5777735,11.4088875 32.8533294,10.542221 C31.3422185,10.0488877 29.8444409,9.52444331 28.3866633,8.88888783 C27.4444412,8.47555455 26.3777746,7.60888798 25.3244414,7.55555465 C24.5022193,7.50222133 23.7999972,7.99999905 23.1022195,8.38666567 C21.7333307,9.11999891 20.3822198,9.87999882 19.0266644,10.6088876 C18.7111089,10.7822209 18.9911088,11.2622209 19.3066644,11.0888876 L19.3155533,11.0799987 Z" id="Path"></path>
                <path d="M7.60444354,17.2177757 L11.3422209,15.1644426 C13.2622206,14.1111094 14.5822205,14.6933316 16.399998,15.4933315 C18.4828097,16.3740806 20.6135941,17.1367708 22.7822195,17.7777757 C25.5999969,18.6666644 28.4533299,19.4622199 31.1599963,20.6533309 C31.657774,20.8755531 34.271107,21.8088863 34.3955515,22.3422196 C34.4622181,22.6399973 33.3733294,22.9599973 32.9822183,23.1244417 C31.5999962,23.7022194 30.3155519,24.6311082 28.8933299,25.0711081 C26.7866635,25.7288858 24.4222193,23.6666638 22.4222195,22.8488862 C17.4355535,20.7777753 12.1733319,19.653331 7.35555468,17.1511091 C7.03555472,16.9866646 6.75555475,17.4666646 7.07555471,17.631109 C13.7422206,21.0844419 21.2977752,22.146664 27.6399967,26.2222191 C27.7268677,26.2713373 27.8331257,26.2713373 27.9199967,26.2222191 C29.5246982,25.2678771 31.1990738,24.4358892 32.928885,23.7333305 C33.5733293,23.4666639 34.9777736,23.1599972 35.3066625,22.4844418 C35.3710799,22.3757232 35.3546912,22.2373298 35.2666625,22.146664 C33.679996,20.8133309 31.2666629,20.0311087 29.3244409,19.3111088 C26.6577746,18.30222 23.8666638,17.5333312 21.1422197,16.6444425 C19.6355532,16.1511092 18.1333312,15.6311092 16.6977758,14.9911093 C15.7511092,14.577776 14.6844427,13.7111095 13.6311095,13.6577761 C12.8088874,13.6044428 12.1066652,14.1244428 11.4088875,14.4888872 C10.0399988,15.2222204 8.68888785,15.9822203 7.32888802,16.7111091 C7.01777694,16.8844424 7.29777691,17.3644424 7.60888798,17.1911091 L7.60444354,17.2177757 Z" id="Path"></path>
                <path d="M13.4311095,14.2222205 C15.6196511,13.2911771 17.7124635,12.1495078 19.6799977,10.813332 C19.973331,10.6133321 19.6799977,10.1333321 19.3999977,10.3333321 C17.4349266,11.6834565 15.3419007,12.8371515 13.1511095,13.7777761 C12.8222207,13.9199983 13.1066651,14.3999983 13.4311095,14.2577761 L13.4311095,14.2222205 Z" id="Path"></path>
                <path d="M26.7599968,5.60888822 C26.9407375,3.83111065 27.0770338,2.05333309 27.1688857,0.275555523 C27.1688857,-0.0799999905 26.6311079,-0.0799999905 26.6133302,0.275555523 C26.5244413,2.05333309 26.388145,3.83111065 26.2044413,5.60888822 C26.1688858,5.96444373 26.7244413,5.95999929 26.7599968,5.60888822 Z" id="Path"></path>
                <path d="M36.133329,7.32444357 C36.9814291,5.93003991 37.9027169,4.58148823 38.8933287,3.28444405 C39.1111064,2.99999964 38.6311065,2.72444412 38.4177732,3.00444409 C37.424202,4.30033875 36.5013756,5.64897099 35.6533291,7.0444436 C35.5978009,7.17431526 35.6476957,7.32521043 35.7696998,7.39637948 C35.8917039,7.46754852 36.0476127,7.43670545 36.133329,7.32444357 L36.133329,7.32444357 Z" id="Path"></path>
                <path d="M4.75999943,13.275554 L0.417777728,10.8355543 C0.106666654,10.6666654 -0.177777757,11.1422209 0.137777761,11.3155542 L4.47999947,13.7777761 C4.60987112,13.8333043 4.76076629,13.7834095 4.83193534,13.6614054 C4.90310438,13.5394014 4.87226131,13.3834926 4.75999943,13.2977762 L4.75999943,13.275554 Z" id="Path"></path>
                <path d="M8.98222115,8.76888784 C8.00740645,7.45925837 6.97036954,6.19407334 5.87111041,4.97333274 C5.63111044,4.70666611 5.23999938,5.10222161 5.4755549,5.36888825 C6.53925848,6.55407329 7.5437028,7.78222129 8.48888788,9.05333225 C8.69777674,9.33333222 9.18222113,9.05333225 8.96888782,8.76888784 L8.98222115,8.76888784 Z" id="Path"></path>
                <path d="M16.1555536,6.96888806 L15.2044426,1.48888871 C15.1422204,1.13777764 14.6088871,1.28888874 14.6711094,1.6399998 L15.6177759,7.11111026 C15.6799981,7.46222133 16.2133314,7.31111024 16.1555536,6.96444361 L16.1555536,6.96888806 Z" id="Path"></path>
                <path d="M49.0711053,13.7777761 L52.6933271,11.3288875 C52.9866604,11.133332 52.6933271,10.6488876 52.4133271,10.8488876 L48.7911053,13.2977762 C48.4933276,13.4977762 48.7911053,13.9777761 49.0711053,13.7777761 Z" id="Path"></path>
                <path d="M44.2622169,10.8177765 L47.1599944,7.39555467 C47.3911055,7.1244436 46.9999944,6.72888809 46.7688833,7.00444361 L43.8711059,10.4266654 C43.6399948,10.6977765 44.0311059,11.093332 44.2622169,10.8177765 Z" id="Path"></path>
            </g>
        </g>
    </g>
</svg>