<svg width="56" height="56" viewBox="0 0 56 56" fill="none" xmlns="http://www.w3.org/2000/svg">
<circle opacity="0.5" cx="28" cy="28" r="23" fill="url(#paint0_linear)"/>
<g clip-path="url(#clip0)">
<path d="M0.0754278 21.565C-0.191269 21.2532 -0.209227 20.7991 0.03201 20.4671L11.6428 4.49012C11.7879 4.29053 12.0095 4.16037 12.2545 4.13092L27.8629 2.25439C27.9331 2.24594 28.0041 2.24593 28.0743 2.25435L43.7257 4.13089C43.9723 4.16045 44.1952 4.29202 44.3402 4.49361L55.8331 20.4706C56.0715 20.802 56.0528 21.2534 55.7879 21.5641L28.6451 53.3949C28.2913 53.8097 27.6505 53.8102 27.2961 53.3958L0.0754278 21.565ZM27.9692 51.4535L53.987 20.9421L43.1276 5.84584L27.9689 4.02837L12.8504 5.84601L1.87843 20.9439L27.9692 51.4535Z" fill="#1A1A1A"/>
<path d="M28.7578 52.4146C28.9814 52.8504 28.8094 53.385 28.3735 53.6086C27.9377 53.8323 27.4031 53.6602 27.1794 53.2244L10.8916 21.4795C10.822 21.3438 10.7885 21.1924 10.7945 21.0399L11.4075 5.37185C11.4267 4.88236 11.839 4.50107 12.3285 4.52022C12.818 4.53937 13.1993 4.95171 13.1801 5.4412L12.5762 20.8767L28.7578 52.4146Z" fill="#1A1A1A"/>
<path d="M27.1779 52.1526C26.9563 52.5895 27.1308 53.1233 27.5677 53.3449C28.0046 53.5664 28.5384 53.3919 28.76 52.955L44.7256 21.4758C44.794 21.341 44.8268 21.191 44.8209 21.0399L44.2078 5.37185C44.1887 4.88236 43.7763 4.50107 43.2868 4.52022C42.7974 4.53937 42.4161 4.95171 42.4352 5.4412L43.0392 20.879L27.1779 52.1526Z" fill="#1A1A1A"/>
<path d="M0.749528 21.7337C0.259663 21.7337 -0.137451 21.3366 -0.137451 20.8467C-0.137451 20.3568 0.259663 19.9597 0.749528 19.9597H55.113C55.6029 19.9597 56 20.3568 56 20.8467C56 21.3366 55.6029 21.7337 55.113 21.7337H0.749528Z" fill="#1A1A1A"/>
<path d="M12.326 21.4554C11.9898 21.8117 11.4285 21.8281 11.0721 21.4919C10.7158 21.1558 10.6995 20.5944 11.0356 20.2381L27.3234 2.97266C27.6759 2.59902 28.2711 2.60198 28.6198 2.97912L44.5855 20.2445C44.918 20.6042 44.8961 21.1654 44.5364 21.4979C44.1768 21.8305 43.6156 21.8086 43.283 21.4489L27.9621 4.88075L12.326 21.4554Z" fill="#1A1A1A"/>
</g>
<defs>
<linearGradient id="paint0_linear" x1="9" y1="16" x2="47.5" y2="42" gradientUnits="userSpaceOnUse">
<stop stop-color="#ECFF0C"/>
<stop offset="1" stop-color="#07FDC2"/>
</linearGradient>
<clipPath id="clip0">
<rect width="56" height="56" fill="white"/>
</clipPath>
</defs>
</svg>
