<svg width="19" height="19" viewBox="0 0 19 19" fill="none" xmlns="http://www.w3.org/2000/svg">
<path fill-rule="evenodd" clip-rule="evenodd" d="M17.7096 4.73887C17.2943 4.01209 16.7974 3.35948 16.219 2.78102C15.6405 2.20256 14.9879 1.70569 14.2611 1.29039C13.5343 0.860256 12.7742 0.537661 11.9807 0.322597C11.1872 0.107532 10.3603 0 9.5 0C8.63973 0 7.81285 0.107532 7.01932 0.322597C6.2258 0.537661 5.46566 0.860256 4.73888 1.29039C4.0121 1.70569 3.35949 2.20256 2.78103 2.78102C2.20257 3.35948 1.7057 4.01209 1.2904 4.73887C0.860264 5.46565 0.537667 6.22579 0.322599 7.01932C0.107532 7.81284 0 8.63972 0 9.5C0 10.3603 0.107532 11.1872 0.322599 11.9807C0.537667 12.7742 0.860264 13.5343 1.2904 14.2611C1.7057 14.9879 2.20257 15.6405 2.78103 16.219C3.35949 16.7974 4.0121 17.2943 4.73888 17.7096C5.46566 18.1397 6.2258 18.4623 7.01932 18.6774C7.81285 18.8925 8.63973 19 9.5 19C10.3603 19 11.1872 18.8925 11.9807 18.6774C12.7742 18.4623 13.5343 18.1397 14.2611 17.7096C14.9879 17.2943 15.6405 16.7974 16.219 16.219C16.7974 15.6405 17.3017 14.9879 17.7319 14.2611C18.1472 13.5343 18.4623 12.7742 18.6774 11.9807C18.8925 11.1872 19 10.3603 19 9.5C19 8.63972 18.8925 7.81284 18.6774 7.01932C18.4623 6.22579 18.1397 5.46565 17.7096 4.73887ZM9.5 1.57962C10.4493 1.57962 11.3429 1.73165 12.1809 2.03571C13.0189 2.33977 13.8087 2.79585 14.5504 3.40397C14.1202 3.96761 13.5789 4.4756 12.9262 4.92798C12.2736 5.38037 11.5172 5.79196 10.6569 6.16276C10.1823 5.30249 9.68541 4.51269 9.16628 3.79332C8.64715 3.07396 8.1132 2.42506 7.56441 1.8466C7.89072 1.75761 8.21331 1.69087 8.5322 1.64637C8.8511 1.60186 9.17369 1.57962 9.5 1.57962ZM3.33724 4.56088C3.69321 4.11592 4.08626 3.71917 4.51639 3.37061C4.94653 3.02205 5.41374 2.71428 5.91803 2.4473C6.49649 3.02576 7.04898 3.67095 7.57553 4.3829C8.10207 5.09485 8.60265 5.87353 9.07729 6.71897C8.12802 7.01561 7.15282 7.23439 6.15164 7.37529C5.15047 7.51619 4.12335 7.58665 3.07026 7.58665C2.78845 7.58665 2.54743 7.58294 2.34719 7.57552C2.14696 7.56811 1.97268 7.55698 1.82436 7.54215C1.97268 6.99336 2.17291 6.47053 2.42506 5.97365C2.67721 5.47677 2.98126 5.00585 3.33724 4.56088ZM1.57963 9.5C1.57963 9.47034 1.57963 9.44067 1.57963 9.41101C1.57963 9.38134 1.58704 9.34426 1.60187 9.29976C1.60187 9.2701 1.60187 9.24043 1.60187 9.21077C1.60187 9.18111 1.60187 9.15144 1.60187 9.12178C1.72053 9.12178 1.87256 9.12549 2.05796 9.1329C2.24337 9.14032 2.46214 9.14403 2.71429 9.14403C3.33724 9.14403 3.95277 9.12178 4.56089 9.07729C5.18385 9.03278 5.78825 8.96604 6.37412 8.87705C6.96 8.78806 7.53474 8.67681 8.09836 8.54333C8.66199 8.42466 9.21819 8.27635 9.76698 8.09835C9.85597 8.27635 9.94497 8.46545 10.034 8.66569C10.123 8.86592 10.2194 9.07728 10.3232 9.29976C9.6854 9.43326 9.04762 9.67057 8.40984 10.0117C7.77205 10.3528 7.11944 10.7904 6.45199 11.3244C5.79937 11.8583 5.23205 12.4108 4.75 12.9818C4.26795 13.5529 3.87861 14.135 3.58197 14.7283C2.91452 13.9719 2.41394 13.1598 2.08021 12.2922C1.74649 11.4245 1.57963 10.4938 1.57963 9.5ZM9.5 17.4204C8.59524 17.4204 7.74239 17.2795 6.94145 16.9977C6.14051 16.7158 5.37666 16.3005 4.64989 15.7518C4.94653 15.1881 5.31362 14.6356 5.75117 14.0943C6.18872 13.5529 6.70414 13.0301 7.29743 12.5258C7.87588 12.0066 8.46175 11.5876 9.05504 11.2687C9.64833 10.9498 10.2342 10.7237 10.8126 10.5902C11.1835 11.6136 11.4912 12.6481 11.736 13.6938C11.9807 14.7395 12.1624 15.8037 12.281 16.8864C11.8212 17.0644 11.3614 17.1979 10.9016 17.2869C10.4418 17.3759 9.97463 17.4204 9.5 17.4204ZM16.219 13.6604C15.9075 14.1647 15.5478 14.6245 15.1399 15.0398C14.732 15.4551 14.276 15.8259 13.7717 16.1522C13.653 15.1585 13.4861 14.1796 13.2711 13.2155C13.056 12.2514 12.7853 11.3021 12.459 10.3677C12.904 10.338 13.323 10.3158 13.716 10.3009C14.1091 10.2861 14.4836 10.2787 14.8396 10.2787C15.2104 10.2787 15.6071 10.2861 16.0299 10.3009C16.4526 10.3158 16.8938 10.338 17.3536 10.3677C17.2943 10.961 17.1682 11.532 16.9754 12.0808C16.7826 12.6296 16.5304 13.1561 16.219 13.6604ZM15.0398 8.92154C14.491 8.92154 13.9608 8.93267 13.4491 8.95492C12.9374 8.97717 12.4516 9.01053 11.9918 9.05503C11.8731 8.74355 11.7582 8.45804 11.647 8.19847C11.5357 7.93891 11.4356 7.7053 11.3466 7.49765C12.3255 7.06752 13.1635 6.5929 13.8607 6.07376C14.5578 5.55463 15.1066 4.99102 15.507 4.3829C16.0855 5.05035 16.5304 5.766 16.8419 6.52986C17.1534 7.29371 17.3314 8.10577 17.3759 8.96604C16.9902 8.9512 16.6046 8.94008 16.219 8.93267C15.8333 8.92525 15.4403 8.92154 15.0398 8.92154Z" fill="black"/>
</svg>
