<svg width="20" height="13" viewBox="0 0 20 13" fill="none" xmlns="http://www.w3.org/2000/svg">
<path fill-rule="evenodd" clip-rule="evenodd" d="M8.05556 5.8338C9.56019 6.26593 10.3125 7.34625 10.3125 9.07479C10.3125 10.2992 9.89584 11.2234 9.0625 11.8476C8.22916 12.4718 7.19908 12.7839 5.97222 12.7839H0V0H5.79861C8.41436 0 9.72222 1.05632 9.72222 3.16898C9.72222 4.39336 9.16667 5.28163 8.05556 5.8338ZM2.70833 2.19667V5.1856H5.45139C6.53936 5.1856 7.08333 4.66944 7.08333 3.63712C7.08333 2.67682 6.46991 2.19667 5.24306 2.19667H2.70833ZM5.59028 10.6233C6.93288 10.6233 7.60416 10.0591 7.60416 8.93075C7.60416 7.70637 6.95602 7.09418 5.65972 7.09418H2.70833V10.6233H5.59028ZM18.0556 1.9446H13.0556V0.684215H18.0556V1.9446ZM20 8.28255C20 8.40259 19.9884 8.55863 19.9653 8.75069H13.5417C13.5417 9.51893 13.7326 10.1071 14.1146 10.5152C14.4965 10.9234 15.0347 11.1274 15.7292 11.1274C15.9838 11.1274 16.2442 11.0794 16.5104 10.9834C16.7766 10.8873 17.0197 10.7493 17.2396 10.5693C17.4595 10.3892 17.6042 10.1671 17.6736 9.90305H19.8264C19.1782 11.9677 17.7894 13 15.6597 13C14.2708 13 13.1655 12.5559 12.3437 11.6676C11.522 10.7793 11.1111 9.61497 11.1111 8.17451C11.1111 6.75807 11.5336 5.58772 12.3785 4.66343C13.2234 3.73914 14.3171 3.27701 15.6597 3.27701C17.0023 3.27701 18.0613 3.75715 18.8368 4.71745C19.6123 5.67775 20 6.86611 20 8.28255ZM13.5417 7.1662H17.5347C17.419 5.84579 16.7708 5.1856 15.5903 5.1856C15.0116 5.1856 14.537 5.36565 14.1667 5.72576C13.7963 6.08587 13.588 6.56602 13.5417 7.1662Z" fill="black"/>
</svg>
