<svg width="280" height="27" viewBox="0 0 280 27" fill="none" xmlns="http://www.w3.org/2000/svg">
<g clip-path="url(#clip0)">
<path d="M0 26.2939H19.2751V21.8755H4.66993V15.7099H16.298V11.2915H4.66993V5.12168H19.2751V0.703247H0V26.2939Z" fill="white"/>
<path d="M77.679 26.2939H96.9584V21.8755H82.3531V15.7099H93.9769V11.2915H82.3531V5.12168H96.9584V0.703247H77.679V26.2939Z" fill="white"/>
<path d="M150.922 26.2939H170.197V21.8755H155.592V15.7099H167.22V11.2915H155.592V5.12168H170.197V0.703247H150.922V26.2939Z" fill="white"/>
<path d="M234.096 26.2939H253.371V21.8755H238.766V15.7099H250.394V11.2915H238.766V5.12168H253.371V0.703247H234.096V26.2939Z" fill="white"/>
<path d="M32.5364 21.8755H28.1046V5.12168H32.5364C38.1973 5.12168 41.7146 8.33318 41.7146 13.4986C41.7146 18.664 38.1973 21.8755 32.5364 21.8755ZM32.3237 0.703247H23.4304V26.2939H32.3237C40.6088 26.2939 46.3973 21.0314 46.3973 13.4986C46.3973 5.9657 40.6003 0.703247 32.3237 0.703247Z" fill="white"/>
<path d="M60.3944 16.765H68.9942C67.9352 20.2804 65.2217 22.3524 61.5938 22.3524C56.6133 22.3524 53.0024 18.6303 53.0024 13.4902C53.0024 8.42613 56.6771 4.62805 61.5555 4.62805C62.8156 4.59599 64.0647 4.8676 65.1958 5.41958C66.327 5.97156 67.3063 6.78746 68.05 7.79734L68.2541 8.08008H73.5067L72.9964 7.0968C71.9289 5.00612 70.2905 3.25533 68.2683 2.04425C66.2461 0.833176 63.9215 0.210603 61.5597 0.24759C54.0147 0.24759 48.3325 5.93628 48.3325 13.4987C48.3325 21.0611 54.0827 26.7667 61.7043 26.7667C68.7645 26.7667 74.0852 20.8585 74.0852 13.026V12.3508H60.3944V16.765Z" fill="white"/>
<path d="M120.138 17.9929C120.138 20.7529 118.135 22.8334 115.485 22.8334C112.835 22.8334 110.832 20.7529 110.832 17.9929C110.832 15.233 112.831 13.1525 115.485 13.1525C118.139 13.1525 120.138 15.233 120.138 17.9929ZM115.485 9.21936C110.492 9.21936 106.753 12.9921 106.753 17.9929C106.753 22.9937 110.513 26.7665 115.506 26.7665C120.499 26.7665 124.259 22.998 124.259 17.9929C124.259 12.9879 120.495 9.21936 115.506 9.21936" fill="white"/>
<path d="M139.885 13.4437V9.51056H126.798V26.4753H130.894V20.6347H138.469V16.7016H130.894V13.4437H139.885Z" fill="white"/>
<path d="M190.089 20.7951L180.213 0.703247H174.91V26.2939H179.584V9.70471L187.75 26.2939H192.352L200.518 9.70471V26.2939H205.188V0.703247H199.965L190.089 20.7951Z" fill="white"/>
<path d="M222.2 11.2915H214.749V5.12168H222.2C223.51 5.12168 225.713 5.52259 225.713 8.20657C225.713 10.8906 223.51 11.2915 222.2 11.2915V11.2915ZM214.749 15.7099H222.2C223.51 15.7099 225.713 16.1319 225.713 18.7906C225.713 21.4492 223.51 21.8755 222.2 21.8755H214.749V15.7099ZM230.383 8.20657C230.383 2.66981 225.994 0.703247 222.234 0.703247H210.079V26.2939H222.234C225.994 26.2939 230.383 24.3273 230.383 18.7906C230.423 17.7829 230.225 16.7798 229.806 15.8612C229.386 14.9426 228.757 14.1336 227.967 13.4986C228.754 12.862 229.38 12.0524 229.797 11.1338C230.213 10.2152 230.408 9.21294 230.366 8.20657" fill="white"/>
<path d="M262.273 5.12168H270.167C272.587 5.12168 273.973 6.35395 273.973 8.49776C273.973 10.6416 272.587 11.8738 270.167 11.8738H262.273V5.12168ZM272.2 16.1403C276.21 15.4187 278.647 12.5786 278.647 8.49776C278.647 3.76281 275.322 0.703247 270.171 0.703247H257.603V26.2939H262.281V16.2838H266.488L274.177 26.2855H280.008L272.2 16.1403Z" fill="white"/>
</g>
<defs>
<clipPath id="clip0">
<rect width="280" height="26.5359" fill="white" transform="translate(0 0.230591)"/>
</clipPath>
</defs>
</svg>
