<svg width="236" height="75" viewBox="0 0 236 75" fill="none" xmlns="http://www.w3.org/2000/svg">
<mask id="mask0" mask-type="alpha" maskUnits="userSpaceOnUse" x="0" y="0" width="68" height="74">
<rect width="67.8935" height="73.9182" fill="white"/>
</mask>
<g mask="url(#mask0)">
<mask id="mask1" mask-type="alpha" maskUnits="userSpaceOnUse" x="-6" y="0" width="84" height="110">
<rect x="-5.94043" width="83.1021" height="109.897" fill="white"/>
</mask>
<g mask="url(#mask1)">
<path d="M26.2893 38.2833C26.0026 35.7943 22.6772 36.7182 20.2882 36.7182C17.8992 36.7182 14.5547 38.3399 14.5547 40.8478C14.5547 43.3556 15.969 45.7881 20.0397 44.7699C24.3399 43.6951 26.6715 41.5831 26.2893 38.2833" fill="#D03B47"/>
<path d="M9.98646 29.9488L19.0454 28.3083C19.0454 28.3083 16.7711 23.5377 17.7649 21.4069C18.7587 19.2573 6.87125 19.1441 8.36196 22.0292C11.1905 27.4786 9.98646 29.9488 9.98646 29.9488" fill="#251516"/>
<path d="M25.1797 27.6106L16.1207 29.2511C16.1207 29.2511 16.5412 23.9902 14.8402 22.3309C13.1393 20.6715 24.9885 16.5797 23.861 19.6344C21.9498 24.7822 25.1797 27.6106 25.1797 27.6106" fill="#251516"/>
<path d="M12.4514 32.3435C12.0692 27.7803 12.5279 26.9506 14.611 25.8004C15.2991 25.4232 18.4716 24.8575 19.2552 24.9707C21.625 25.3101 22.1219 25.9701 23.4024 30.3824C24.3771 33.7577 25.8105 35.9073 26.2883 38.3021C25.8296 39.2072 14.6493 41.4322 14.0377 40.7157C13.8084 38.4152 12.7381 35.8508 12.4514 32.3435" fill="#C0243B"/>
<path d="M15.128 24.0845C14.9178 22.9343 18.3388 22.444 18.3579 23.4999C18.377 24.5559 19.3708 24.9707 19.3708 24.9707C19.3708 24.9707 19.3899 26.385 17.0965 26.7998C14.8031 27.2146 14.5547 25.8381 14.5547 25.8381C14.5547 25.8381 15.3383 25.2159 15.128 24.0845" fill="#F8A580"/>
<path d="M5.83982 16.8625C6.96741 22.9908 11.7071 25.1404 16.8864 24.2165C22.0656 23.2925 25.716 19.6155 24.5884 13.4872C23.4608 7.35894 18.6447 4.75677 13.4654 5.68073C8.26701 6.62354 4.69312 10.7531 5.83982 16.8625" fill="#251516"/>
<path d="M8.2854 18.1259C9.27921 23.4811 13.0442 25.1405 16.9239 24.4428C20.5933 23.7828 24.2054 21.3504 23.0778 15.2221C21.9503 9.07491 17.9177 6.32189 13.7131 7.07614C9.50855 7.83039 7.15781 11.9788 8.2854 18.1259" fill="#E28C72"/>
<path d="M8.28529 17.4282C9.41288 23.5188 13.713 24.7822 17.0767 24.1599C20.0963 23.6131 24.0142 20.8789 22.8866 14.7883C21.759 8.69776 17.994 6.64242 13.9615 7.35896C9.94801 8.11322 7.1577 11.3565 8.28529 17.4282" fill="#F8A580"/>
<path d="M22.6574 12.337L14.4394 9.84799L7.71206 15.0335L7.63561 15.7689C5.87734 11.8279 10.1201 7.56638 13.7896 6.90641C17.459 6.24644 22.1032 8.24521 22.9823 12.601L22.6574 12.337" fill="#C0243B"/>
<path d="M6.73764 17.1265C5.22782 18.0693 7.73145 21.1618 9.05016 20.9166C9.7764 20.7846 10.6364 19.823 10.4262 18.7104C10.216 17.5979 8.89726 17.7865 8.89726 17.7865C8.89726 17.7865 8.11368 16.278 6.73764 17.1265" fill="#F8A580"/>
<path d="M8.0758 19.955C8.0758 19.955 7.00554 18.8613 7.254 17.9939C7.40689 17.4659 7.92291 17.4471 7.94202 17.4471C7.94202 17.4471 7.84646 17.4282 7.73179 17.4282C7.46422 17.4282 6.98643 17.5036 6.83354 17.9939C6.56598 18.899 8.0758 19.955 8.0758 19.955" fill="#B65F50"/>
<path d="M24.5115 13.9398C26.2507 14.2792 25.0275 18.0505 23.7088 18.2956C22.9826 18.4276 21.8359 17.8242 21.6448 16.7117C21.4345 15.5992 22.7533 15.3163 22.7533 15.3163C22.7533 15.3163 22.9253 13.6193 24.5115 13.9398" fill="#F8A580"/>
<path d="M15.9687 19.1262C16.0069 19.1262 16.0452 19.1262 16.1025 19.1073C16.4847 19.0318 16.7332 18.692 16.7905 18.2579C16.5994 18.4466 16.3318 18.5788 16.026 18.6354C15.9305 18.6543 15.8349 18.6543 15.7203 18.6543C15.5291 18.6543 15.338 18.6165 15.166 18.5599C15.338 18.8997 15.6438 19.1262 15.9687 19.1262" fill="#B65F50"/>
<path d="M16.5413 22.3692C16.5986 22.3692 16.6559 22.3692 16.7324 22.3504C17.0764 22.2937 17.344 22.0672 17.4204 21.8029C17.2293 21.9162 16.9808 22.0106 16.6942 22.0672C16.5413 22.0861 16.4075 22.105 16.2737 22.105C16.1399 22.105 16.0252 22.0861 15.9297 22.0672C16.0252 22.256 16.2737 22.3692 16.5413 22.3692" fill="#B65F50"/>
<path d="M17.8224 20.3321C17.7077 20.9732 17.2299 21.5012 16.5801 21.6332C15.9112 21.7463 15.2805 21.4258 14.9365 20.8601L17.8224 20.3321" fill="white"/>
<path d="M17.8605 16.41C17.9178 16.7305 18.2427 16.9379 18.5676 16.8814C18.8925 16.8248 19.1218 16.5042 19.0454 16.1837C18.969 15.8631 18.6632 15.6368 18.3383 15.7123C18.0134 15.7688 17.784 16.0894 17.8605 16.41" fill="#44281C"/>
<path d="M18.8928 16.2219C18.931 16.2219 18.9502 16.203 18.931 16.1652C18.8928 15.9576 18.7013 15.8066 18.4908 15.8066C18.4716 15.8066 18.4334 15.8066 18.4142 15.8066C18.2228 15.8255 18.7205 16.2219 18.8928 16.2219" fill="#7E5D49"/>
<path d="M11.9746 17.4659C12.032 17.7864 12.3569 17.9939 12.6818 17.9373C13.0067 17.8807 13.236 17.5602 13.1596 17.2396C13.1022 16.9191 12.7773 16.6928 12.4524 16.7493C12.1466 16.8248 11.9173 17.1453 11.9746 17.4659" fill="#44281C"/>
<path d="M13.0068 17.2778C13.0451 17.2778 13.0643 17.2589 13.0451 17.2212C13.0068 17.0135 12.8154 16.8625 12.6049 16.8625C12.5857 16.8625 12.5474 16.8625 12.5283 16.8625C12.3369 16.9002 12.8537 17.2778 13.0068 17.2778" fill="#7E5D49"/>
<path d="M11.3436 15.7123C11.592 15.1844 12.2227 14.8449 12.9872 14.9204C13.2356 14.9392 13.1783 15.2975 12.9299 15.2975C12.4712 15.2975 11.9552 15.4106 11.6685 15.9386C11.5347 16.1837 11.2289 15.9386 11.3436 15.7123" fill="#251516"/>
<path d="M19.5043 14.2419C19.0838 13.8266 18.3767 13.7511 17.6887 14.072C17.4593 14.1853 17.6313 14.5062 17.8798 14.4118C18.3193 14.2608 18.8354 14.1664 19.294 14.5817C19.5043 14.7327 19.6954 14.4118 19.5043 14.2419" fill="#251516"/>
<path d="M11.879 20.1058C12.051 20.1058 12.2421 20.0869 12.4332 20.0492C13.2932 19.8983 13.943 19.4269 13.8666 18.9932C13.8092 18.6538 13.3314 18.4464 12.7008 18.4464C12.5288 18.4464 12.3376 18.4653 12.1465 18.503C11.2865 18.6538 10.6367 19.1252 10.7131 19.5589C10.7705 19.8983 11.2674 20.1058 11.879 20.1058" fill="#F08B71"/>
<path d="M18.969 18.8235C19.141 18.8235 19.3321 18.8047 19.5232 18.767C19.7525 18.7293 19.9628 18.6538 20.1539 18.5784C20.3259 18.1636 20.517 17.7676 20.7081 17.3905C20.4979 17.2585 20.173 17.183 19.7908 17.183C19.6188 17.183 19.4276 17.2019 19.2365 17.2396C18.3574 17.3905 17.7267 17.8619 17.8031 18.2956C17.8605 18.6161 18.3383 18.8235 18.969 18.8235" fill="#F08B71"/>
<path d="M12.0893 17.5229C11.8979 17.806 11.5342 17.3719 11.5342 17.3719C11.5342 17.3719 11.8787 17.353 11.9936 17.202L12.0893 17.5229" fill="#44281C"/>
<path d="M18.9508 16.2784C19.2188 16.4672 19.4102 15.9386 19.4102 15.9386C19.4102 15.9386 19.0848 16.033 18.9316 15.9386L18.9508 16.2784" fill="#44281C"/>
<path d="M7.40625 15.8065C7.54003 11.5262 10.2921 8.71658 14.0953 8.0189C17.8986 7.34007 21.4916 8.99942 23.1352 12.9592L21.0329 13.3364L20.0582 12.1673L19.848 13.5438L16.6563 14.1283L15.0318 12.601L14.5922 14.5055L10.8464 15.1843L10.1966 14.8072L9.52765 15.4106L7.40625 15.8065" fill="#251516"/>
<path d="M24.3962 27.5352V27.5352C24.4344 27.6106 24.8358 28.3272 25.3327 29.1191C25.5811 29.5151 25.8487 29.9111 26.1163 30.2505C26.2501 30.4202 26.3647 30.5711 26.4794 30.7031C26.5941 30.8351 26.6896 30.9294 26.747 30.9671V30.9671C27.5879 31.6647 28.5817 32.4567 29.3462 33.0413C29.7284 33.343 30.0724 33.5881 30.3017 33.7767C30.4164 33.8709 30.512 33.9464 30.5693 33.9841L30.6649 34.0595L29.1359 36.0583C29.1359 36.0583 28.5626 35.6246 27.779 35.0212C26.9954 34.4178 25.9825 33.6258 25.1034 32.8904V32.8904C24.8931 32.7207 24.7211 32.5321 24.5491 32.3436C24.2433 32.0042 23.9567 31.6082 23.6891 31.2122C23.2686 30.6277 22.9055 30.0054 22.6188 29.534C22.3322 29.0626 22.1602 28.742 22.1602 28.7232L24.3962 27.5352" fill="#F8A580"/>
<path d="M24.7411 26.781L23.7664 31.7213C23.7664 31.7213 19.9249 29.5529 19.8867 25.1782C22.6961 24.16 24.7411 26.781 24.7411 26.781" fill="#C0243B"/>
<path d="M5.05537 33.0224C5.72428 32.3624 5.47583 31.3064 4.67313 30.2316C4.17623 29.5717 2.72374 29.7036 1.88283 30.1185C1.1757 30.4579 1.21392 30.967 1.29037 31.6836C1.1757 31.6458 0.927244 31.6836 0.946355 32.0041C0.965467 32.3058 1.74905 32.8149 2.09306 32.9658C3.01042 33.3429 3.56466 33.5503 4.27179 33.852C4.7878 34.0595 4.71136 33.3618 5.05537 33.0224" fill="#F8A580"/>
<path d="M13.0631 30.1185C13.044 30.194 12.8911 30.9105 12.3942 31.7968C12.1457 32.2493 11.8017 32.7396 11.3622 33.211C10.9035 33.6824 10.3301 34.1349 9.623 34.4744C9.06876 34.7383 8.49541 34.8138 7.9794 34.8138C7.40605 34.8138 6.87092 34.7195 6.37402 34.5875C5.62866 34.3989 4.95975 34.1349 4.48196 33.9087C3.98505 33.6824 3.67927 33.5127 3.66016 33.4938L4.92153 31.3254L4.86419 31.4008L4.92153 31.3254L4.86419 31.4008L4.92153 31.3254C4.94064 31.3442 5.41843 31.6082 6.04912 31.8533C6.3549 31.9853 6.71803 32.0985 7.04292 32.1739C7.38694 32.2682 7.71183 32.3059 7.9794 32.3059C8.22785 32.3059 8.41897 32.2682 8.51452 32.2116C8.93498 32.0042 9.25988 31.759 9.54656 31.4573C9.96701 31.0237 10.2346 30.5334 10.4066 30.1563C10.483 29.9677 10.5404 29.8168 10.5786 29.7037C10.5977 29.6471 10.5977 29.6094 10.6168 29.5906V29.5717L10.6741 29.5906L10.6168 29.5717L10.6741 29.5906L10.6168 29.5717L11.4577 29.7603L10.6168 29.5906V29.5906L11.4577 29.7791L10.6168 29.6094L13.0631 30.1185" fill="#F8A580"/>
<path d="M10.082 29.7225L12.6621 34.0595C12.6621 34.0595 15.72 30.3259 14.191 26.2153C10.7701 26.3096 10.082 29.7225 10.082 29.7225" fill="#C0243B"/>
<path d="M12.5474 33.3617C12.5474 33.3617 12.7003 31.6081 12.8341 30.9481C12.987 30.2882 13.331 29.7602 13.331 29.7602C13.331 29.7602 12.4327 30.4202 12.3754 30.8539C12.3181 31.2876 12.5474 33.3617 12.5474 33.3617" fill="#8F1A29"/>
<path d="M23.3453 60.5337C24.7787 55.3482 41.9601 55.3482 43.4126 60.5337C45.1518 66.794 44.2726 90.7981 44.2726 90.7981H36.0164C36.0164 90.7981 33.3981 74.9399 33.8568 69.9619C33.6848 69.943 33.0541 69.943 32.8821 69.9619C33.3407 74.9399 30.7224 90.7981 30.7224 90.7981H22.4662C22.4853 90.7981 21.6062 66.794 23.3453 60.5337" fill="#2E3347"/>
<path d="M22.4858 90.7981H30.742C30.742 90.7792 33.3221 74.9965 32.9016 69.9619C32.7679 70.0184 31.7167 75.2982 31.2771 77.5987C30.8758 79.8048 29.5762 85.6314 27.6077 86.8948C27.0726 87.2531 26.3845 87.3662 25.6583 87.3662C24.5116 87.3662 23.2885 87.0645 22.3711 86.9137V86.9325C22.4093 88.573 22.4858 90.7981 22.4858 90.7981" fill="#252A3A"/>
<path d="M36.0175 90.7981H44.2738C44.2738 90.7981 44.3311 88.7427 44.3694 86.9137C43.4711 87.2719 42.4964 87.4794 41.5599 87.4794C39.9737 87.4794 38.4447 86.8571 37.4891 85.2355C36.3807 83.3875 36.0175 76.7878 35.3295 74.7702C34.9091 73.5257 34.2019 70.4898 33.877 69.9619C33.5713 75.2039 36.0175 90.7792 36.0175 90.7981" fill="#252A3A"/>
<path d="M44.4635 74.9777C44.4062 71.8664 44.1768 67.6426 43.8902 64.4182C42.667 65.1724 39.3607 66.7563 33.1876 66.7563C27.5114 66.7563 24.2433 65.4175 22.7908 64.6067C22.5424 67.322 22.3513 70.6596 22.2939 72.8092C23.4406 71.7533 25.218 68.3403 26.8043 68.2648C29.1933 68.1517 31.5249 68.114 33.9139 67.85C35.3281 67.6991 36.7233 67.5672 38.1184 67.5672C39.246 67.5672 40.3736 67.6426 41.5012 67.85C42.151 67.9631 42.5523 68.642 42.5714 69.2454C42.6479 71.0556 43.2595 73.6766 44.4635 74.9777" fill="#252A3A"/>
<path d="M22.3325 51.2564C23.0779 45.0338 25.5433 41.8094 29.2892 40.7723C30.5314 40.4329 35.8445 40.4329 37.0867 40.7723C40.8135 41.7906 43.2789 45.0338 44.0434 51.2564C44.6167 56.0271 44.4638 64.0221 44.4638 64.0221C44.4638 64.0221 41.3104 66.7563 33.2071 66.7563C25.1037 66.7563 21.9121 64.0221 21.9121 64.0221C21.9121 64.0221 21.7592 56.0271 22.3325 51.2564" fill="#E8E8E8"/>
<path d="M44.0244 64.3427C44.3302 64.1541 44.464 64.0222 44.464 64.0222C44.464 64.0222 44.3111 64.1541 44.0244 64.3427" fill="#D3D2D2"/>
<path fill-rule="evenodd" clip-rule="evenodd" d="M22.3717 51.049C22.6202 52.1804 22.7922 53.3118 22.9069 54.4809C22.655 54.2177 22.4376 53.9773 22.2724 53.7946C22.2245 53.7417 22.1811 53.6936 22.1424 53.6512C22.1806 52.8026 22.2571 51.9918 22.3526 51.2564V51.2376C22.3526 51.2113 22.3567 51.1851 22.3612 51.1569C22.3662 51.1244 22.3717 51.0894 22.3717 51.049ZM44.0249 64.3247C42.8973 65.0412 39.591 66.7571 33.1886 66.7571C25.0852 66.7571 21.9127 64.0041 21.9127 64.0041C21.9127 64.0041 21.8936 63.0801 21.8936 61.6848V61.3454C21.9031 61.3454 21.9127 61.3501 21.9222 61.3548C21.9318 61.3595 21.9413 61.3642 21.9509 61.3642C22.5434 61.5716 23.1358 61.7791 23.7092 61.9488C23.9576 62.4956 24.3207 62.9859 24.7985 63.363C26.3275 64.5321 28.1049 65.1166 30.0351 65.2486L30.0352 65.2486C30.4556 65.2675 30.8761 65.2863 31.3156 65.2863C34.7366 65.2863 38.6545 64.3812 41.0817 62.0242C42.3431 60.8174 43.0693 59.3277 43.2795 57.593C43.3387 57.0893 43.3635 56.5857 43.3884 56.082C43.4277 55.2846 43.4669 54.4871 43.6427 53.6897C43.7191 53.3691 43.7956 53.0532 43.872 52.7373C43.9485 52.4215 44.0249 52.1057 44.1013 51.7852C44.5791 56.3673 44.4836 63.2876 44.4645 63.9664V64.0041C44.4645 64.0041 44.3307 64.1361 44.0249 64.3247Z" fill="#C1C0C0"/>
<path d="M30.6846 38.4341C30.6846 36.9068 36.1888 37.0765 35.9021 38.4341C35.6155 39.7918 37.0871 40.7723 37.0871 40.7723L33.2074 42.6768L29.3086 40.7723C29.3086 40.7723 30.6846 39.9615 30.6846 38.4341" fill="#F8A580"/>
<path d="M19.1025 24.2919C19.1025 33.1167 25.4285 36.9068 33.2452 36.9068C41.0619 36.9068 47.3878 33.1167 47.3878 24.2919C47.3878 15.486 41.0619 10.6211 33.2452 10.6211C25.4476 10.6211 19.1025 15.4672 19.1025 24.2919" fill="#44281C"/>
<path d="M21.3203 26.6678C21.3203 35.7188 26.6716 39.6221 33.2651 39.6221C39.8587 39.6221 45.2099 35.7188 45.2099 26.6678C45.2099 17.6168 39.8587 12.6199 33.2651 12.6199C26.6716 12.6199 21.3203 17.5979 21.3203 26.6678" fill="#E28C72"/>
<path d="M21.8936 25.9701C21.8936 34.5875 26.9773 38.2833 33.2459 38.2833C39.5145 38.2833 44.5982 34.5686 44.5982 25.9701C44.5982 17.3528 39.5145 12.6199 33.2459 12.6199C26.9773 12.6199 21.8936 17.3528 21.8936 25.9701" fill="#F8A580"/>
<path d="M33.3226 10.6211C37.3551 10.6211 41.0055 12.1673 43.6238 15.1089C41.0246 17.5979 37.4507 18.7482 33.5137 18.7482C29.4811 18.7482 25.8308 17.5414 23.1934 14.9203C25.7925 12.0919 29.3664 10.6211 33.3226 10.6211" fill="#44281C"/>
<path d="M33.1691 17.3905C36.055 17.3905 38.6733 16.5985 40.5844 14.9014L40.5271 14.8637C38.4439 16.0328 35.8447 16.5796 33.0353 16.5796C30.3788 16.5796 27.9325 16.0894 25.9258 15.0711C27.8178 16.6362 30.3597 17.3905 33.1691 17.3905" fill="#361C12"/>
<path d="M18.6258 24.0845C16.2942 25.0085 18.9698 29.9489 20.8619 29.9489C21.8939 29.9489 23.3464 28.8363 23.3464 27.2335C23.3464 25.6308 21.4544 25.5742 21.4544 25.5742C21.4544 25.5742 20.7663 23.2549 18.6258 24.0845" fill="#F8A580"/>
<path d="M19.7527 28.3461C19.7527 28.3461 18.5295 26.5359 19.1029 25.4045C19.3704 24.8954 19.8291 24.8199 20.0584 24.8199C20.154 24.8199 20.2113 24.8388 20.2113 24.8388C20.2113 24.8388 19.9247 24.7256 19.5615 24.7256C19.1984 24.7256 18.7588 24.8388 18.5104 25.3102C17.9179 26.4981 19.7527 28.3461 19.7527 28.3461" fill="#B65F50"/>
<path d="M47.7704 24.0845C50.1211 25.0085 47.4264 29.9489 45.5343 29.9489C44.4832 29.9489 43.0498 28.8363 43.0498 27.2335C43.0498 25.6308 44.9419 25.5742 44.9419 25.5742C44.9419 25.5742 45.6299 23.2549 47.7704 24.0845" fill="#F8A580"/>
<path d="M46.6428 28.2894C46.6428 28.2894 48.4776 26.4415 47.866 25.2724C47.6175 24.801 47.178 24.6879 46.8148 24.6879C46.4708 24.6879 46.165 24.801 46.165 24.801C46.165 24.801 46.2224 24.7821 46.3179 24.7821C46.5473 24.7821 47.006 24.8576 47.2735 25.3667C47.8469 26.4792 46.6428 28.2894 46.6428 28.2894" fill="#B65F50"/>
<path d="M33.2456 29.534C33.8572 29.534 34.3923 29.0437 34.6025 28.346C34.2203 28.5723 33.7616 28.7043 33.2456 28.7043C32.7296 28.7043 32.2709 28.5723 31.8887 28.346C32.0989 29.0437 32.634 29.534 33.2456 29.534" fill="#B65F50"/>
<path d="M33.3989 36.0023C34.0296 36.0023 34.5456 35.7569 34.7559 35.3983C34.3736 35.5115 33.9149 35.587 33.3989 35.587C32.8829 35.587 32.4242 35.5115 32.042 35.3983C32.2522 35.7569 32.7873 36.0023 33.3989 36.0023" fill="#B65F50"/>
<path d="M38.3481 30.7408C37.6027 33.2675 35.6725 35.0589 33.3982 35.0589C31.1239 35.0589 29.1936 33.2487 28.4482 30.7408C29.8434 31.5705 36.9721 31.5705 38.3481 30.7408" fill="#FBFBFB"/>
<path d="M28.1816 25.5742C28.1816 26.0456 28.5639 26.4227 29.0417 26.4227C29.5195 26.4227 29.9017 26.0456 29.9017 25.5742C29.9017 25.1028 29.5195 24.7256 29.0417 24.7256C28.5639 24.7445 28.1816 25.1216 28.1816 25.5742" fill="#44281C"/>
<path d="M36.9922 25.5742C36.9922 26.0456 37.3744 26.4227 37.8522 26.4227C38.33 26.4227 38.7122 26.0456 38.7122 25.5742C38.7122 25.1028 38.33 24.7256 37.8522 24.7256C37.3744 24.7445 36.9922 25.1216 36.9922 25.5742" fill="#44281C"/>
<path d="M38.5007 25.5749C38.5389 25.5749 38.558 25.556 38.558 25.4994C38.558 25.1596 38.2713 24.8765 37.9273 24.8765C37.6406 24.8765 38.2904 25.5749 38.5007 25.5749" fill="#7E5D49"/>
<path d="M29.6716 25.5749C29.7098 25.5749 29.7289 25.556 29.7289 25.4994C29.7289 25.1596 29.4422 24.8765 29.0982 24.8765C28.8115 24.8765 29.4613 25.5749 29.6716 25.5749" fill="#7E5D49"/>
<path d="M26.6517 22.7834C27.2824 21.8972 28.5437 21.5012 29.9198 21.8783C30.3785 22.0103 30.1491 22.6326 29.6904 22.5572C28.8495 22.4252 27.8557 22.4252 27.1486 23.3114C26.8428 23.6885 26.365 23.1606 26.6517 22.7834" fill="#44281C"/>
<path d="M40.0679 22.7834C39.4372 21.8972 38.1759 21.5012 36.7998 21.8783C36.3411 22.0103 36.5705 22.6326 37.0292 22.5572C37.8701 22.4252 38.8639 22.4252 39.571 23.3114C39.8577 23.6885 40.3355 23.1606 40.0679 22.7834" fill="#44281C"/>
<path d="M37.0681 40.7723C38.1957 40.6026 39.4953 41.5643 39.4953 41.5643L34.7747 43.9213L33.1885 42.6768C33.1885 42.6957 35.9406 40.9609 37.0681 40.7723" fill="#D3D2D2"/>
<path d="M29.2892 40.7723C28.1616 40.6026 26.6709 41.5643 26.6709 41.5643L31.5444 43.9213L33.1689 42.6768C33.1689 42.6957 30.4168 40.9609 29.2892 40.7723" fill="#D3D2D2"/>
<path d="M22.3903 49.9177L21.7023 49.6537L22.3903 49.9177V49.9177L21.7023 49.6537L22.3903 49.9177C22.3903 49.9365 22.0272 50.8416 21.7023 52.0296C21.5303 52.633 21.3774 53.2929 21.2436 53.9529C21.1289 54.6129 21.0525 55.254 21.0525 55.782C21.0525 56.0837 21.0716 56.3288 21.1098 56.5174V56.5174L20.0014 56.7248L20.9378 56.1025C20.976 56.1591 21.0525 56.31 21.1098 56.5174L20.0014 56.7248L20.9378 56.1025L20.5747 56.3477L20.8996 56.0648C20.8996 56.0648 20.9187 56.0837 20.9378 56.1025L20.5747 56.3477L20.8996 56.0648L20.8805 56.0837L20.8996 56.0648L20.8805 56.0837L20.8996 56.0648C20.8996 56.0648 21.0525 56.2157 21.3201 56.3477C21.5494 56.4797 21.8361 56.6305 22.1801 56.7814C22.7725 57.0454 23.4988 57.3093 24.225 57.5545C25.3335 57.9127 26.4802 58.2333 27.3402 58.4407C27.7607 58.5539 28.1238 58.6293 28.3723 58.6859C28.5061 58.7236 28.6016 58.7424 28.6589 58.7424C28.6972 58.7424 28.7163 58.7613 28.7354 58.7613H28.7545V58.7613L27.8371 63.0228C27.818 63.0228 27.2256 62.8908 26.3464 62.6834C25.6966 62.5137 24.8557 62.3063 23.9766 62.0423C23.3268 61.8349 22.6197 61.6274 21.9316 61.3823C21.4156 61.1937 20.9187 61.0052 20.4218 60.7789C20.0587 60.6092 19.6956 60.4395 19.3516 60.2509C18.8355 59.9681 18.3577 59.6664 17.8991 59.2327C17.6697 59.0253 17.4404 58.7801 17.2493 58.4596C17.039 58.1579 16.867 57.7619 16.7715 57.3093V57.3093C16.6759 56.7814 16.6377 56.2722 16.6377 55.7631C16.6377 54.858 16.7524 53.9718 16.9053 53.1421C17.1346 51.8787 17.4786 50.6908 17.7462 49.8234C18.0137 48.9371 18.2431 48.3715 18.2622 48.3337L22.3903 49.9177" fill="#F8A580"/>
<path d="M17.708 49.1257L21.817 51.973C21.817 51.973 26.8625 47.5795 25.9834 42.5826C19.3898 42.3186 17.708 49.1257 17.708 49.1257" fill="#E8E8E8"/>
<path d="M22.1035 51.2564C22.1035 51.2564 22.7151 48.428 23.0209 47.7114C23.3267 46.9949 23.8427 46.4481 23.8427 46.4481C23.8427 46.4481 22.6769 47.0137 22.524 47.504C22.3711 47.9754 22.1035 51.2564 22.1035 51.2564" fill="#BCBBBC"/>
<path d="M26.2891 60.9108C26.2891 62.5513 27.7798 63.5319 29.9203 63.8713C31.239 64.0787 32.7106 62.1176 33.1884 60.5526C33.5706 59.2703 32.959 58.6858 32.0417 57.8938C32.2137 57.7995 32.443 57.4413 32.0608 57.083C31.6786 56.7436 30.2261 57.083 29.6909 57.3281C28.2193 58.007 28.1047 58.5727 27.2255 58.4218C26.3464 58.271 26.2891 60.1 26.2891 60.9108" fill="#F8A580"/>
<path d="M48.1535 48.5411C48.1535 48.5789 48.5166 49.7857 48.8798 51.3884C49.0518 52.1993 49.2429 53.1044 49.3767 54.0095C49.5104 54.9334 49.6251 55.8574 49.6251 56.7436C49.6251 56.8191 49.6251 56.9133 49.6251 56.9888V56.9888C49.6251 57.347 49.5869 57.743 49.5487 58.1767C49.4722 58.9121 49.3767 59.7606 49.2429 60.628C48.8798 63.1925 48.3828 65.9078 48.3637 65.9266L44.0254 65.1535C44.0254 65.1535 44.0254 65.1347 44.0445 65.0781C44.1018 64.7387 44.3885 63.1736 44.6561 61.42C44.7899 60.5526 44.9236 59.6475 45.0192 58.8367C45.0765 58.4407 45.1147 58.0447 45.1339 57.7242C45.1721 57.3847 45.1912 57.1019 45.1912 56.9133V56.8945V56.9133C45.1912 56.8756 45.1912 56.8379 45.1912 56.7813C45.1912 56.2157 45.1147 55.4614 45.0001 54.6883C44.8281 53.5192 44.5414 52.2747 44.3121 51.3319C44.1974 50.8605 44.0827 50.4645 44.0063 50.2005C43.968 50.0685 43.9489 49.9554 43.9107 49.8799C43.8916 49.8422 43.8916 49.8234 43.8916 49.8045V49.7857V49.7857L44.0827 49.7291L43.8916 49.7857L44.0827 49.7291L43.8916 49.7857L48.1535 48.5411" fill="#F8A580"/>
<path d="M48.6497 49.1445L44.5407 51.9918C44.5407 51.9918 39.4952 47.5983 40.3743 42.6014C46.9679 42.3185 48.6497 49.1445 48.6497 49.1445" fill="#E8E8E8"/>
<path d="M44.2538 51.2564C44.2538 51.2564 43.6422 48.428 43.3365 47.7114C43.0307 46.9949 42.5146 46.4481 42.5146 46.4481C42.5146 46.4481 43.6805 47.0326 43.8334 47.504C43.9862 47.9943 44.2538 51.2564 44.2538 51.2564" fill="#BCBBBC"/>
<path d="M20.6891 45.4487L21.5109 53.7266L19.2749 54.0849L17.5166 46.4481L20.6891 45.4487" fill="#F8A580"/>
<path d="M19.4469 51.1999C19.5616 50.5399 21.3772 51.2376 21.3199 51.8033C21.1479 53.4438 22.8488 54.594 23.6133 55.4614C23.7853 55.6499 23.3075 56.5173 22.4475 56.1591C20.9759 55.518 18.434 53.3495 18.5105 52.9912C18.7016 52.1615 19.3323 51.8598 19.4469 51.1999" fill="#F8A580"/>
<path d="M18.3772 54.6506C18.4345 54.2735 22.0275 57.743 23.136 57.9127C24.2445 58.0824 24.8942 58.5727 24.8369 58.9687C24.7796 59.3458 23.2889 59.1195 21.1484 57.6676C18.8358 56.0837 18.186 55.7254 18.3772 54.6506" fill="#D3D2D2"/>
<path d="M20.2504 53.4249C20.2504 53.4249 20.0975 52.6141 20.4989 52.5764C20.6709 52.5575 21.6647 52.2935 21.8367 52.6329C22.0087 52.9723 21.7411 53.1232 21.9322 53.5003C22.3909 53.8586 24.6843 56.4419 24.971 56.687C25.8501 57.3659 25.4679 58.5161 24.8181 58.9498C23.4038 58.7235 18.645 55.7819 18.3583 54.6317C18.2246 54.1037 18.3392 52.4067 18.7215 52.3124C19.5242 53.1986 20.2504 53.4249 20.2504 53.4249" fill="#C0243B"/>
<path d="M22.3522 53.8963C22.7535 54.3112 23.346 54.9523 23.862 55.518C23.1358 55.2163 22.6771 55.65 22.3904 55.4048C22.1037 55.1597 21.1482 54.3866 21.1673 54.2169C21.1673 54.0283 22.1611 53.7078 22.3522 53.8963" fill="#A11E30"/>
<path d="M22.5623 56.6682C23.1739 56.2533 23.8046 56.1968 24.4926 56.1779C24.741 56.4419 24.913 56.6305 24.9895 56.687C25.8686 57.3659 25.4864 58.5161 24.8366 58.9498C24.1868 58.8555 22.7725 58.1767 21.6641 57.4413C21.9507 57.1207 22.1992 56.8945 22.5623 56.6682" fill="#FBFBFB"/>
<path d="M24.8359 58.95C24.9125 58.8934 24.9891 58.8179 25.0656 58.7424C24.9891 58.8179 24.9125 58.8934 24.8359 58.95" fill="#CD8868"/>
<path d="M21.6643 57.4413C21.8745 57.1962 22.0656 57.0076 22.295 56.8379C22.2185 56.8002 22.1421 56.7625 22.0656 56.7436C21.0718 56.3099 20.2882 56.0271 19.5429 55.1974C19.0078 54.594 18.6255 53.802 18.3962 52.9912C18.2815 53.5569 18.2815 54.3112 18.358 54.6317C18.53 55.2728 20.078 56.4796 21.6643 57.4413" fill="#9F1D2F"/>
<path d="M24.8362 58.9498C24.9126 58.8932 24.9891 58.8178 25.0655 58.7424C25.3522 58.4218 25.5433 57.9504 25.4669 57.4979C25.2949 57.5544 25.1037 57.5733 24.8935 57.5733C24.0335 57.5733 23.0397 57.1773 22.2752 56.8568C22.0459 57.0265 21.8548 57.215 21.6445 57.4602C22.8868 58.2333 24.1673 58.8555 24.798 58.9687L24.8362 58.9498V58.9498" fill="#D0CFCF"/>
<path d="M18.6831 51.7467C17.9951 48.7109 16.3515 44.3928 16.3515 44.3928C16.3515 44.3928 15.071 43.8836 14.6123 42.0169C14.6314 41.206 18.7404 38.7547 20.4031 40.4895C21.397 41.5266 21.2823 46.0521 21.3205 51.2565L18.6831 51.7467" fill="#DF4F4D"/>
<path d="M27.7608 43.2991L28.1048 50.0873L25.8688 50.4268L23.9385 43.2991H27.7608" fill="#F8A580"/>
<path d="M26.0019 49.465C25.9064 48.8051 27.8749 48.9371 27.9704 49.5028C28.2762 51.1244 30.2447 51.7467 31.2194 52.3689C31.4296 52.5009 31.2385 53.4814 30.3021 53.3683C28.7158 53.1797 25.6388 51.8221 25.6197 51.4638C25.5624 50.5964 26.0784 50.1062 26.0019 49.465" fill="#F8A580"/>
<path d="M25.9826 53.0666C25.9635 52.8592 27.1485 53.4061 28.4672 53.934C29.6712 54.4243 30.9517 54.9146 31.4868 54.8391C32.6144 54.6883 33.3789 54.9711 33.4171 55.3671C33.4744 55.7442 31.9837 55.9517 29.4992 55.1597C26.8427 54.3112 26.1164 54.1415 25.9826 53.0666" fill="#D3D2D2"/>
<path d="M27.4165 51.3507C27.4165 51.3507 27.0534 50.6342 27.4165 50.4645C27.5694 50.4079 28.4485 49.8611 28.7161 50.1439C28.9837 50.4079 28.7734 50.6342 29.0601 50.9359C29.5953 51.1621 32.5384 52.9912 32.9016 53.1232C33.9336 53.538 33.8954 54.7448 33.4176 55.3482C32.0033 55.5368 26.5947 54.0471 25.964 53.0478C25.6774 52.5952 25.2951 50.917 25.6391 50.7284C26.6521 51.3507 27.4165 51.3507 27.4165 51.3507" fill="#C0243B"/>
<path d="M29.5758 51.2187C30.0918 51.5016 30.8372 51.9541 31.5061 52.3313C30.7225 52.2558 30.3976 52.8027 30.0727 52.6518C29.7287 52.501 28.6011 52.0296 28.5438 51.8598C28.4673 51.6901 29.3464 51.0867 29.5758 51.2187" fill="#A11E30"/>
<path d="M30.5701 53.802C31.0479 53.2175 31.6213 53.01 32.2902 52.8026C32.596 52.9723 32.8253 53.1043 32.9018 53.142C33.9338 53.5569 33.8956 54.7637 33.4178 55.3671C32.768 55.4614 31.2199 55.2162 29.9395 54.8202C30.1115 54.4243 30.3026 54.1414 30.5701 53.802" fill="#FBFBFB"/>
<path d="M33.4172 55.3673C33.4555 55.3106 33.4938 55.254 33.532 55.1974C33.5129 55.254 33.4555 55.3106 33.4172 55.3673" fill="#C1C0C0"/>
<path d="M29.9392 54.8203C30.073 54.5186 30.2068 54.2923 30.3597 54.066C30.2832 54.0472 30.1877 54.0472 30.1303 54.0283C29.041 53.8963 28.2192 53.8586 27.2636 53.2552C26.5756 52.8215 25.9831 52.1616 25.5244 51.4639C25.5817 52.0296 25.792 52.765 25.964 53.0478V53.0478V53.0478C26.3271 53.6323 28.1427 54.33 29.9392 54.8203" fill="#9F1D2F"/>
<path d="M33.1305 55.3671C33.2452 55.3671 33.3408 55.3671 33.4172 55.3483C33.4554 55.2917 33.4937 55.2351 33.5319 55.1786C33.7612 54.7826 33.8186 54.2358 33.6083 53.7832C33.1305 54.066 32.4999 54.1603 31.831 54.1603C31.334 54.1603 30.818 54.1038 30.3785 54.0472C30.2065 54.2735 30.0727 54.4997 29.958 54.8014C31.1812 55.1409 32.4043 55.3671 33.1305 55.3671" fill="#D0CFCF"/>
<path d="M27.933 47.6737C27.6464 44.5813 28.5446 42.0923 27.8184 39.9803C26.901 37.2273 22.3333 38.5661 23.2889 40.7535C23.6711 41.602 23.652 43.0539 25.2574 48.032L27.933 47.6737" fill="#DF4F4D"/>
<path d="M50.1777 63.4942C50.216 62.9474 50.3306 62.4382 50.56 62.0423C51.6684 60.1189 51.8596 59.0252 51.0186 57.0265C50.1777 55.0089 50.5791 52.2747 51.4773 50.6719C52.3756 49.0691 65.2377 50.3891 66.6138 51.5016C66.6138 51.5016 66.308 54.8769 67.6267 57.2716C68.697 59.2138 68.7734 61.5897 68.1427 63.4753H50.1777" fill="#953225"/>
<path fill-rule="evenodd" clip-rule="evenodd" d="M56.4086 54.066C59.1034 54.066 60.6514 53.1986 62.0657 50.8039C60.6705 53.1986 59.1225 54.066 56.4086 54.066ZM53.0449 57.5733V56.819C53.0449 55.7254 53.0831 53.8209 53.2746 53.802C53.0208 53.802 53.0417 57.0649 53.0446 57.5236L53.0449 57.5733ZM62.3906 63.4942H65.0089C65.0089 63.3999 65.0137 63.3056 65.0185 63.2113C65.0233 63.117 65.028 63.0227 65.028 62.9285C65.0471 61.42 65.0663 59.9115 65.1236 58.403C65.1236 58.1368 65.1405 57.8874 65.1584 57.6232V57.6232V57.6232L65.1618 57.5733C65.0854 57.5733 65.0089 57.5544 64.9325 57.5356C64.7605 58.5161 64.5694 59.4778 64.2445 60.3829C63.7476 61.8348 63.0978 62.8153 62.3906 63.4942ZM53.7519 63.4942H55.147C54.3443 62.7777 53.6181 61.7783 53.1594 60.4018C52.8536 59.4967 52.6434 58.535 52.4714 57.5545C52.3949 57.5733 52.2994 57.5922 52.2229 57.5922H52.1465C52.1996 58.1682 52.3509 58.7442 52.4944 59.2903L52.5287 59.4212C52.6549 59.9193 52.812 60.397 52.9697 60.8768L52.9697 60.8769L52.9697 60.8769L52.9698 60.877L52.9698 60.877C53.027 61.0511 53.0843 61.2254 53.1403 61.4011C53.3505 62.0611 53.5607 62.7211 53.7328 63.3811C53.7328 63.4376 53.7328 63.4753 53.7519 63.4942ZM64.3594 57.5167C64.6269 56.3476 64.9901 55.9516 65.2958 55.8762C64.9901 55.9705 64.6461 56.3665 64.3594 57.5167Z" fill="#7C281E"/>
<path d="M56.1987 65.6438C56.0458 65.6438 55.9694 65.6438 55.8547 65.6627C55.7592 65.6815 55.6636 65.7004 55.5489 65.7192C55.3578 65.7569 55.1667 65.8135 54.9756 65.9078C54.5934 66.0775 54.2302 66.3603 53.9818 66.7186L53.8862 66.8506L53.8289 66.926L53.7142 67.0957L53.504 67.4351C53.3702 67.6614 53.2173 67.8688 53.0644 68.0951C52.7777 68.5288 52.4528 68.9437 52.1279 69.3208C51.803 69.6979 51.4399 70.0373 51.0768 70.2636C50.9048 70.3767 50.7137 70.471 50.5799 70.4899C50.5417 70.5087 50.5226 70.5087 50.4652 70.5087L50.2932 70.5276C50.1786 70.5276 50.0639 70.5464 49.9492 70.5276C49.4905 70.5276 49.0127 70.4144 48.5732 70.2447C48.1336 70.075 47.694 69.811 47.2927 69.5093C47.1016 69.3585 46.9105 69.1888 46.7193 69.0191C46.5473 68.8494 46.3562 68.642 46.2224 68.4722L46.2033 68.4534C46.0504 68.246 45.7446 68.2083 45.5344 68.3591C45.3433 68.51 45.286 68.7739 45.4006 68.9814C45.5726 69.2642 45.7446 69.4905 45.9358 69.7168C46.1269 69.943 46.318 70.1693 46.5473 70.3579C46.9869 70.7539 47.4838 71.1121 48.038 71.395C48.5923 71.659 49.2039 71.8475 49.8345 71.9229C49.9874 71.9418 50.1403 71.9418 50.3123 71.9607H50.5417C50.6181 71.9607 50.7519 71.9418 50.8284 71.9418C51.2297 71.8852 51.5546 71.7344 51.8413 71.5647C52.4337 71.2253 52.8733 70.8293 53.2938 70.4144C53.7142 69.9996 54.0773 69.5471 54.4405 69.1134C54.6125 68.8871 54.7845 68.6608 54.9565 68.4345L55.396 67.7934C55.4725 67.718 55.5489 67.6426 55.6827 67.6049C55.7401 67.586 55.8165 67.5671 55.8929 67.5483C55.9312 67.5483 55.9694 67.5483 56.0076 67.5294C56.0458 67.5294 56.1032 67.5294 56.0841 67.5294C56.6001 67.5483 57.0397 67.1523 57.0588 66.6432C57.1161 66.0964 56.7148 65.6627 56.1987 65.6438" fill="#FABE84"/>
<path d="M61.2629 67.4917C61.2438 67.4917 61.3011 67.4917 61.3393 67.4917C61.3776 67.4917 61.4158 67.4917 61.454 67.5106C61.5304 67.5294 61.6069 67.5483 61.6642 67.5671C61.798 67.6237 61.8745 67.6991 61.9509 67.7746C62.1802 68.1517 62.4096 68.6608 62.6007 69.1699C62.9638 70.207 63.2123 71.3007 63.3461 72.3944C63.3843 72.6772 63.4034 72.9412 63.4416 73.224L63.5181 74.0914L63.671 75.8262C63.7856 76.9764 63.8812 78.1455 63.9959 79.2958C64.015 79.5597 64.2634 79.7483 64.531 79.7295C64.7794 79.7106 64.9705 79.5032 64.9705 79.258C64.9705 78.089 64.9514 76.9387 64.9323 75.7696L64.9132 74.0349L64.8941 73.1675C64.8941 72.8658 64.875 72.5641 64.8559 72.2624C64.7603 71.0556 64.5692 69.8676 64.2252 68.6797C64.0341 68.0763 63.8621 67.5106 63.4989 66.8695C63.2505 66.4735 62.8874 66.1341 62.486 65.9455C62.2758 65.8512 62.0847 65.7758 61.8745 65.7192C61.7789 65.7004 61.6642 65.6815 61.5687 65.6627C61.454 65.6438 61.3776 65.6438 61.2055 65.6438C60.6895 65.6627 60.2882 66.0964 60.3073 66.6055C60.3073 67.1334 60.7469 67.5106 61.2629 67.4917" fill="#FABE84"/>
<path d="M54.2879 72.3378C53.9057 67.0014 53.8866 65.2478 58.588 65.2478C63.6526 65.2478 63.1748 67.0957 62.7926 72.3189C62.5059 76.2222 63.8246 79.0129 63.8246 79.0129C63.8246 80.8797 53.7337 80.4648 53.5234 79.0695C53.5234 79.0695 54.6319 77.033 54.2879 72.3378" fill="#A586C1"/>
<path d="M57.6316 64.8707V63.6827H59.6192V64.8707C59.6192 65.4929 60.7851 65.6627 60.7851 65.6627C59.925 66.6809 58.6254 66.5678 58.6254 66.5678C58.6254 66.5678 57.3258 66.662 56.4658 65.6627C56.4849 65.6627 57.6316 65.4741 57.6316 64.8707" fill="#F0A975"/>
<path d="M53.0455 57.5733C53.0455 57.5733 52.9882 53.7643 53.2749 53.802C58.0528 54.4997 60.1742 53.9906 62.0662 50.8039C62.0662 50.8039 62.6205 53.7832 64.2067 54.7637C64.6081 55.0088 64.3405 57.5922 64.3405 57.5922C64.9521 54.9523 65.9459 56.1402 65.9459 56.1402C66.0606 56.2911 66.1179 56.4796 66.1179 56.6682C66.1179 57.1962 65.6975 57.611 65.1623 57.611C65.0668 57.611 64.9903 57.5922 64.9139 57.5733C64.7419 58.5538 64.5508 59.5155 64.2259 60.4206C62.8689 64.2673 60.4991 64.9273 58.6835 64.9273C56.8679 64.9273 54.2496 63.7582 53.1411 60.4206C52.8353 59.5155 52.6251 58.5538 52.4531 57.5733C52.3766 57.5922 52.2811 57.611 52.2046 57.611C51.6695 57.611 51.249 57.1962 51.249 56.6682C51.249 56.4419 51.3255 56.2157 51.4784 56.0648C51.4975 56.0459 52.8926 55.1597 53.0455 57.5733" fill="#FABE84"/>
<path d="M52.7968 48.2017C54.8417 44.7321 62.9069 44.3362 63.6331 48.3714C63.6331 48.3714 68.4301 48.8051 65.9647 56.1214C65.9647 56.1214 64.9518 54.9334 64.3594 57.5733C64.3594 57.5733 64.6078 54.99 64.2256 54.7448C62.6393 53.7643 62.0851 50.785 62.0851 50.785C60.2121 53.9717 58.0716 54.4809 53.2937 53.7832C52.9879 53.7455 53.0643 57.5544 53.0643 57.5544C52.9115 55.1408 51.5163 56.0271 51.5163 56.0271C49.9109 51.5958 52.7968 48.2017 52.7968 48.2017" fill="#953225"/>
<path d="M52.1473 56.0461H51.5156V55.8951H52.1473V56.0461Z" fill="#952F26"/>
<path d="M53.0455 57.5733C53.0455 57.4601 53.0264 57.3658 53.0072 57.2716C52.9498 56.8567 52.8541 56.555 52.7393 56.3476C52.9115 56.6116 53.0072 56.9887 53.0455 57.5733" fill="#7C251E"/>
<path d="M53.1033 57.743C53.5811 57.0453 53.2944 56.8379 53.6766 55.6122C53.8869 54.9899 53.7722 54.33 54.3264 54.33C54.3646 54.33 54.4029 54.33 54.4602 54.3488C55.3202 54.4808 56.0847 54.5374 56.7536 54.5374C60.6524 54.5374 61.4551 52.5386 62.1431 51.0678C62.1049 50.917 62.0858 50.8227 62.0858 50.8227C62.0858 50.8227 62.0858 50.8227 62.0858 50.8415C60.6715 53.2174 59.1235 54.1037 56.4287 54.1037C55.5305 54.1037 54.5175 54.0094 53.3326 53.8397C53.3135 53.8397 53.3135 53.8397 53.2944 53.8397V53.8397C53.0842 53.8397 53.0651 55.7442 53.0651 56.8567C53.0651 57.3093 53.0651 57.6298 53.0651 57.6298C53.0268 57.0453 52.9122 56.6493 52.7784 56.4042C52.6064 56.0836 52.377 55.9705 52.1477 55.9516C52.1095 55.9516 52.0904 55.9516 52.0521 55.9516C51.7655 55.9516 51.5361 56.1025 51.4979 56.1025C51.3641 56.2722 51.2686 56.4796 51.2686 56.7059V56.7059C51.5743 56.7059 51.8801 56.7436 52.1859 56.8567C52.6064 56.9698 52.8357 57.3847 53.1033 57.743" fill="#F79E5F"/>
<path fill-rule="evenodd" clip-rule="evenodd" d="M56.409 54.0663C55.5107 54.0663 54.4978 53.9719 53.3129 53.802C54.4978 53.9719 55.5298 54.0663 56.409 54.0663ZM53.0261 57.2716C52.9895 56.9615 52.9284 56.718 52.8512 56.5278C52.9201 56.7187 52.9836 56.964 53.0261 57.2716ZM52.0515 55.895H52.147C52.3572 55.9139 52.5866 56.0459 52.7777 56.3476C52.8024 56.4013 52.8271 56.4612 52.8512 56.5278C52.6467 56.0242 52.3289 55.895 52.0515 55.895ZM52.0515 55.895C51.8603 55.895 51.6883 55.9516 51.5928 56.0082L51.6167 55.9986C51.7155 55.9591 51.8754 55.895 52.0515 55.895Z" fill="#952F26"/>
<path d="M57.8418 59.8926C57.8418 60.3829 58.3005 60.7788 58.8547 60.7788C59.409 60.7788 59.8676 60.3829 59.8676 59.8926C59.8676 59.4023 59.2561 57.4224 58.8547 57.4224C58.4343 57.4224 57.8418 59.4023 57.8418 59.8926" fill="#F68B4F"/>
<path d="M62.2578 58.007C62.2578 58.3087 62.0093 58.535 61.7226 58.535C61.4168 58.535 61.1875 58.2898 61.1875 58.007V57.3281C61.1875 57.0264 61.436 56.8002 61.7226 56.8002C62.0284 56.8002 62.2578 57.0453 62.2578 57.3281V58.007" fill="#3F150A"/>
<path d="M60.8232 55.7066C60.8232 55.7066 61.2246 55.631 61.7024 55.631C61.9508 55.631 62.2375 55.6499 62.5051 55.7254C62.8873 55.8198 63.2887 56.0086 63.2887 56.0086L63.0975 56.4239H63.0784C63.002 56.3861 62.658 56.2351 62.3713 56.1785C62.1611 56.1218 61.9126 56.103 61.6833 56.103C61.473 56.103 61.2628 56.1218 61.1099 56.1407C61.0335 56.1407 60.9761 56.1596 60.9379 56.1596H60.8997H60.8806L60.8232 55.7066" fill="#953225"/>
<path d="M61.5498 56.8191C61.6645 56.8002 61.76 56.8191 61.8556 56.8569C61.9512 56.8758 62.0467 56.9135 62.1232 56.9701C62.2952 57.0645 62.4481 57.1967 62.6392 57.3099C62.5436 57.1212 62.3716 56.9701 62.1996 56.8569C61.9894 56.7625 61.7409 56.7059 61.5498 56.8191" fill="#3F150A"/>
<path d="M62.9076 56.9511C62.7928 57.0832 62.6205 57.2153 62.4291 57.1587C62.3908 57.1587 62.3908 57.1021 62.4291 57.1021C62.6014 57.0643 62.7354 57.0266 62.8694 56.9322L62.9076 56.9511" fill="#3F150A"/>
<path d="M62.7544 56.7436C62.697 56.8946 62.563 57.0834 62.3716 57.0834C62.3333 57.0834 62.3333 57.0456 62.3524 57.0268C62.4864 56.9324 62.6204 56.8569 62.7161 56.7247L62.7544 56.7436" fill="#3F150A"/>
<path d="M62.5059 56.5551C62.5059 56.7249 62.4484 56.9326 62.257 57.0081L62.2188 56.9704C62.3145 56.8382 62.4102 56.7249 62.4484 56.5551L62.5059 56.5551" fill="#3F150A"/>
<path d="M55.5107 58.007C55.5107 58.3087 55.7592 58.535 56.0459 58.535C56.3325 58.535 56.581 58.2898 56.581 58.007V57.3281C56.581 57.0264 56.3325 56.8002 56.0459 56.8002C55.7592 56.8002 55.5107 57.0453 55.5107 57.3281V58.007" fill="#3F150A"/>
<path d="M56.8493 56.1408V56.1408C56.7729 56.1219 56.4289 56.0653 56.0467 56.0653C55.8173 56.0653 55.588 56.0842 55.3777 56.1408C55.2248 56.1786 55.0337 56.2352 54.8999 56.2918C54.8235 56.3107 54.7662 56.3485 54.7279 56.3673L54.6897 56.3862H54.6706L54.4795 55.9709C54.4795 55.9709 54.8999 55.7822 55.2822 55.6878C55.5497 55.6123 55.8173 55.5934 56.0658 55.5934C56.5627 55.5934 56.9449 55.6689 56.9449 55.6689L56.8493 56.1408" fill="#953225"/>
<path d="M56.2173 56.8191C56.0262 56.7059 55.7777 56.7625 55.5866 56.8569C55.3955 56.9701 55.2426 57.1212 55.1279 57.3099C55.2999 57.1967 55.4528 57.0645 55.6439 56.9701C55.7204 56.9135 55.816 56.8946 55.9115 56.8569C56.0262 56.838 56.1217 56.8191 56.2173 56.8191" fill="#3F150A"/>
<path d="M54.8801 56.9133C55.0141 57.0266 55.1672 57.0455 55.3203 57.0832C55.3586 57.0832 55.3586 57.1399 55.3203 57.1399C55.1481 57.1965 54.9566 57.0643 54.8418 56.9322L54.8801 56.9133" fill="#3F150A"/>
<path d="M55.052 56.7247C55.1477 56.8757 55.2817 56.9324 55.4156 57.0268C55.4348 57.0456 55.4348 57.0834 55.3965 57.0834C55.2051 57.0834 55.0711 56.8946 55.0137 56.7436L55.052 56.7247" fill="#3F150A"/>
<path d="M55.3006 56.5551C55.3389 56.7249 55.4346 56.8193 55.5303 56.9704L55.492 57.0081C55.3197 56.9326 55.2623 56.7249 55.2432 56.5551L55.3006 56.5551" fill="#3F150A"/>
<path d="M58.7221 61.3257C59.7351 61.3257 60.6142 61.4577 60.6142 61.4577C60.6142 61.4577 60.1364 63.3622 58.7221 63.3622C57.3079 63.3622 56.8301 61.4577 56.8301 61.4577C56.8301 61.4577 57.6901 61.3257 58.7221 61.3257" fill="#3F150A"/>
<path d="M57.1924 61.8542L57.0586 61.4201C57.3835 61.3823 58.0142 61.3257 58.7213 61.3257C59.4476 61.3257 60.0782 61.3823 60.4031 61.4201L60.2502 61.8542H57.1924" fill="white"/>
<path d="M62.2575 61.1371C62.5824 61.1371 62.8499 61.0429 63.0602 60.8543C63.1366 60.8166 63.213 60.7789 63.2704 60.7223C63.5188 60.5337 63.5953 60.2509 63.5762 59.968C63.6526 59.5721 63.5379 59.1195 63.2322 58.8555C63.041 58.6293 62.7926 58.5161 62.5632 58.5161C62.2383 58.5161 61.9135 58.6858 61.6459 58.931C61.3019 59.1384 61.0343 59.4212 60.9961 59.7795C60.9005 60.496 61.4548 61.0806 62.181 61.1183H62.2575" fill="#F9B378"/>
<path d="M55.4911 61.1748C56.1791 61.1748 56.8862 60.8354 56.9627 60.1C57.0391 59.3646 56.4084 58.8932 55.7395 58.7801C55.6249 58.7612 55.5102 58.7612 55.3955 58.7612H55.3382C54.7457 58.7801 54.0959 59.0064 53.9239 59.6098C53.6946 60.3452 54.4208 61.0806 55.1662 61.1371C55.2426 61.156 55.3382 61.1748 55.4337 61.1748C55.4337 61.1748 55.472 61.1748 55.4911 61.1748" fill="#F9B378"/>
<path d="M46.8913 64.173C48.4967 64.5879 49.07 66.2661 48.8598 68.3968C48.726 69.6979 46.4326 70.603 44.7699 70.6407C43.4129 70.6784 42.9925 69.943 42.4574 68.8682C42.3236 69.0191 41.9031 69.1322 41.6738 68.6797C41.4253 68.2083 42.1325 66.926 42.5147 66.4735C43.5658 65.2478 44.1392 65.2855 44.2156 64.4181C44.273 63.5319 46.0886 63.9467 46.8913 64.173" fill="#F8A580"/>
</g>
</g>
<path d="M88.5162 28.13C88.2529 27.9739 88.0579 27.6618 87.9312 27.1936C87.8044 26.7253 87.7411 26.2425 87.7411 25.745C87.7411 25.5109 87.9019 25.3353 88.2237 25.2182C88.5455 25.1011 88.9306 25.0426 89.3791 25.0426C89.7594 25.0426 90.008 24.9646 90.125 24.8085C90.242 24.6427 90.3005 24.4134 90.3005 24.1208V9.98604C90.3005 9.6934 90.242 9.46904 90.125 9.31296C90.008 9.14713 89.7594 9.06421 89.3791 9.06421C88.2871 9.06421 87.7411 8.81058 87.7411 8.30333C87.7411 7.82535 87.8044 7.35711 87.9312 6.89864C88.0579 6.43041 88.2529 6.12313 88.5162 5.97681C90.1348 6.10362 91.2999 6.16703 92.0117 6.16703C92.899 6.16703 94.1031 6.1085 95.6242 5.99144C95.8387 6.14752 95.9947 6.45967 96.0922 6.9279C96.1995 7.39613 96.2531 7.88388 96.2531 8.39113C96.2531 8.62524 96.0922 8.80083 95.7704 8.91789C95.4487 9.03495 95.0636 9.09347 94.615 9.09347C94.4005 9.09347 94.225 9.12274 94.0885 9.18127C93.952 9.23004 93.8545 9.30808 93.796 9.41538C93.7473 9.52269 93.7131 9.62024 93.6936 9.70803C93.6839 9.78607 93.679 9.89825 93.679 10.0446V15.0342C93.679 15.239 93.7716 15.3414 93.9569 15.3414H105.482C105.667 15.3414 105.76 15.239 105.76 15.0342V10.0153C105.76 9.72266 105.701 9.4983 105.584 9.34222C105.467 9.17639 105.219 9.09347 104.838 9.09347C104.39 9.09347 104.005 9.03495 103.683 8.91789C103.361 8.80083 103.2 8.62524 103.2 8.39113C103.2 7.88388 103.264 7.39613 103.39 6.9279C103.517 6.45967 103.712 6.14752 103.975 5.99144C105.477 6.1085 106.642 6.16703 107.471 6.16703C108.358 6.16703 109.562 6.1085 111.083 5.99144C111.298 6.14752 111.454 6.45967 111.551 6.9279C111.659 7.39613 111.712 7.88388 111.712 8.39113C111.712 8.62524 111.551 8.80083 111.23 8.91789C110.908 9.03495 110.523 9.09347 110.074 9.09347C109.86 9.09347 109.684 9.12274 109.548 9.18127C109.411 9.23004 109.314 9.30808 109.255 9.41538C109.206 9.52269 109.172 9.62024 109.153 9.70803C109.143 9.78607 109.138 9.89825 109.138 10.0446V24.0915C109.138 24.2378 109.143 24.3549 109.153 24.4427C109.172 24.5207 109.206 24.6134 109.255 24.7207C109.314 24.828 109.411 24.9109 109.548 24.9695C109.684 25.0182 109.86 25.0426 110.074 25.0426C110.523 25.0426 110.908 25.1011 111.23 25.2182C111.551 25.3353 111.712 25.5109 111.712 25.745C111.712 26.2522 111.659 26.74 111.551 27.2082C111.454 27.6667 111.298 27.9739 111.083 28.13C109.689 28.0227 108.485 27.9691 107.471 27.9691C106.515 27.9691 105.35 28.0227 103.975 28.13C103.712 27.9739 103.517 27.6618 103.39 27.1936C103.264 26.7253 103.2 26.2425 103.2 25.745C103.2 25.5109 103.361 25.3353 103.683 25.2182C104.005 25.1011 104.39 25.0426 104.838 25.0426C105.219 25.0426 105.467 24.9646 105.584 24.8085C105.701 24.6427 105.76 24.4134 105.76 24.1208V17.9313C105.76 17.7265 105.667 17.6241 105.482 17.6241H93.9569C93.7716 17.6241 93.679 17.7265 93.679 17.9313V24.0915C93.679 24.2378 93.6839 24.3549 93.6936 24.4427C93.7131 24.5207 93.7473 24.6134 93.796 24.7207C93.8545 24.828 93.952 24.9109 94.0885 24.9695C94.225 25.0182 94.4005 25.0426 94.615 25.0426C95.0636 25.0426 95.4487 25.1011 95.7704 25.2182C96.0922 25.3353 96.2531 25.5109 96.2531 25.745C96.2531 26.2522 96.1995 26.74 96.0922 27.2082C95.9947 27.6667 95.8387 27.9739 95.6242 28.13C94.2299 28.0227 93.0257 27.9691 92.0117 27.9691C91.0562 27.9691 89.891 28.0227 88.5162 28.13Z" fill="white"/>
<path d="M116.524 9.75193C116.29 9.75193 116.051 9.73242 115.807 9.6934C115.564 9.64462 115.295 9.56171 115.003 9.44465C114.72 9.32759 114.486 9.14225 114.301 8.88862C114.125 8.635 114.038 8.3326 114.038 7.98142C114.038 6.78158 114.847 6.18166 116.466 6.18166C116.924 6.18166 117.309 6.24019 117.621 6.35724C117.943 6.4743 118.177 6.63038 118.323 6.82548C118.479 7.02057 118.586 7.21079 118.645 7.39613C118.703 7.58148 118.732 7.78145 118.732 7.99606C118.732 8.43502 118.596 8.79595 118.323 9.07884C118.05 9.36173 117.757 9.54707 117.445 9.63487C117.143 9.71291 116.836 9.75193 116.524 9.75193ZM118.937 13.6295V24.2964C118.937 24.4427 118.942 24.5598 118.952 24.6475C118.971 24.7256 119.005 24.8183 119.054 24.9256C119.113 25.0329 119.21 25.1158 119.347 25.1743C119.483 25.2231 119.659 25.2475 119.873 25.2475C120.244 25.2475 120.561 25.306 120.824 25.4231C121.087 25.5401 121.219 25.7157 121.219 25.9498C121.219 27.0911 121.058 27.8032 120.736 28.0861C119.859 28.0081 118.786 27.9691 117.519 27.9691C116.202 27.9691 114.974 28.0081 113.833 28.0861C113.511 27.7935 113.35 27.0814 113.35 25.9498C113.35 25.7157 113.482 25.5401 113.745 25.4231C114.008 25.306 114.325 25.2475 114.696 25.2475C115.076 25.2475 115.325 25.1694 115.442 25.0134C115.559 24.8475 115.617 24.6183 115.617 24.3256V16.4681C115.617 15.9511 115.466 15.5853 115.164 15.3707C114.871 15.1561 114.301 15.0293 113.453 14.9903C113.326 14.961 113.243 14.8976 113.204 14.8C113.175 14.7025 113.16 14.4928 113.16 14.1709C113.16 13.6734 113.214 13.2344 113.321 12.854C113.428 12.4735 113.536 12.254 113.643 12.1955C114.394 12.3028 115.12 12.3565 115.822 12.3565C116.29 12.3565 116.782 12.3321 117.299 12.2833C117.816 12.2248 118.089 12.1955 118.118 12.1955C118.459 12.1955 118.679 12.2833 118.776 12.4589C118.884 12.6247 118.937 13.0149 118.937 13.6295Z" fill="white"/>
<path d="M135.537 24.0915C135.537 25.0768 135.235 25.8962 134.63 26.5497C134.036 27.1936 133.246 27.6569 132.261 27.9398C131.276 28.2227 130.111 28.3641 128.766 28.3641C126.699 28.3641 125.08 28.0666 123.91 27.4716C122.75 26.8765 122.169 25.9645 122.169 24.7353C122.169 23.3404 123.023 22.6429 124.729 22.6429C125.002 22.6429 125.182 22.6966 125.27 22.8039C125.358 22.9112 125.402 23.116 125.402 23.4184V25.4084C125.762 25.6035 126.294 25.7547 126.996 25.862C127.708 25.9693 128.424 26.023 129.146 26.023C130.004 26.023 130.711 25.8474 131.267 25.4962C131.832 25.1353 132.115 24.6427 132.115 24.0184C132.115 23.5794 131.973 23.1892 131.691 22.8478C131.408 22.4966 131.037 22.2137 130.579 21.9991C130.121 21.7845 129.594 21.5699 129 21.3553C128.415 21.1309 127.815 20.9261 127.201 20.7407C126.596 20.5554 125.996 20.3213 125.402 20.0384C124.817 19.7555 124.295 19.4482 123.837 19.1166C123.379 18.7849 123.008 18.3508 122.725 17.8143C122.442 17.2778 122.301 16.673 122.301 15.9999C122.301 15.1317 122.623 14.3806 123.266 13.7465C123.91 13.1125 124.695 12.654 125.621 12.3711C126.557 12.0882 127.557 11.9468 128.619 11.9468C132.987 11.9468 135.172 13.2149 135.172 15.7511C135.172 15.9072 135.142 16.0731 135.084 16.2486C135.035 16.4242 134.933 16.6291 134.777 16.8632C134.63 17.0973 134.377 17.2924 134.016 17.4485C133.665 17.5948 133.231 17.668 132.714 17.668C132.617 17.668 132.534 17.6582 132.466 17.6387C132.407 17.6192 132.359 17.5997 132.32 17.5802C132.29 17.5509 132.261 17.507 132.232 17.4485C132.212 17.3802 132.198 17.3314 132.188 17.3022C132.188 17.2729 132.178 17.2095 132.159 17.1119C132.149 17.0046 132.144 16.9315 132.144 16.8925L131.939 14.8439C131.803 14.7074 131.379 14.5562 130.667 14.3903C129.965 14.2245 129.36 14.1416 128.853 14.1416C127.859 14.1416 127.118 14.3269 126.63 14.6976C126.152 15.0683 125.914 15.5365 125.914 16.1023C125.914 16.512 126.089 16.873 126.44 17.1851C126.801 17.4973 127.264 17.7655 127.83 17.9899C128.395 18.2045 129.019 18.4191 129.702 18.6337C130.384 18.8483 131.067 19.1068 131.749 19.4092C132.432 19.7019 133.056 20.0384 133.621 20.4188C134.187 20.7993 134.645 21.3065 134.996 21.9406C135.357 22.5649 135.537 23.2819 135.537 24.0915Z" fill="white"/>
<path d="M146.828 25.0426C147.121 25.5986 147.267 26.1205 147.267 26.6083C147.267 26.8814 147.145 27.1204 146.901 27.3252C146.667 27.5203 146.36 27.6715 145.98 27.7788C145.6 27.8862 145.219 27.9642 144.839 28.013C144.459 28.0617 144.088 28.0861 143.727 28.0861C143.181 28.0861 142.674 28.0081 142.206 27.852C141.738 27.6959 141.29 27.4423 140.861 27.0911C140.442 26.7302 140.11 26.2132 139.866 25.5401C139.623 24.8573 139.501 24.0476 139.501 23.1112V14.6245H138.872C137.721 14.6245 137.092 14.6293 136.985 14.6391C136.663 14.522 136.502 14.1465 136.502 13.5124C136.502 12.7418 136.746 12.3565 137.234 12.3565H139.501C139.54 12.0443 139.574 11.6395 139.603 11.142C139.642 10.6347 139.676 10.2348 139.705 9.94214C139.735 9.6495 139.779 9.3032 139.837 8.90326C139.905 8.50331 139.993 8.19115 140.1 7.96679C140.217 7.73268 140.364 7.50344 140.539 7.27908C140.715 7.05472 140.939 6.89376 141.212 6.79621C141.495 6.68891 141.826 6.63526 142.206 6.63526C142.47 6.63526 142.674 6.67915 142.821 6.76695V12.3565H144.766C145.926 12.3565 146.536 12.3321 146.594 12.2833C147.082 12.2833 147.325 12.7028 147.325 13.5417C147.325 14.1757 147.164 14.5513 146.843 14.6684C146.521 14.6391 145.892 14.6245 144.956 14.6245H142.821V23.0234C142.821 24.6427 143.347 25.4523 144.4 25.4523C145.083 25.4523 145.892 25.3158 146.828 25.0426Z" fill="white"/>
<path d="M149.168 23.7257C148.7 22.6527 148.466 21.4577 148.466 20.1408C148.466 18.8239 148.7 17.6338 149.168 16.5706C149.636 15.5073 150.26 14.6488 151.04 13.9953C151.82 13.3319 152.693 12.8247 153.658 12.4735C154.623 12.1223 155.633 11.9468 156.686 11.9468C157.729 11.9468 158.733 12.1223 159.699 12.4735C160.664 12.8247 161.532 13.3319 162.302 13.9953C163.082 14.6488 163.706 15.5073 164.174 16.5706C164.642 17.6338 164.876 18.8239 164.876 20.1408C164.876 21.4577 164.642 22.6527 164.174 23.7257C163.706 24.789 163.082 25.6523 162.302 26.3156C161.532 26.979 160.664 27.4862 159.699 27.8374C158.733 28.1886 157.729 28.3641 156.686 28.3641C155.633 28.3641 154.623 28.1886 153.658 27.8374C152.693 27.4862 151.82 26.979 151.04 26.3156C150.26 25.6523 149.636 24.789 149.168 23.7257ZM153.307 15.9414C152.361 16.9461 151.888 18.3459 151.888 20.1408C151.888 21.9357 152.361 23.3404 153.307 24.3549C154.253 25.3597 155.369 25.862 156.656 25.862C157.271 25.862 157.861 25.7401 158.426 25.4962C158.992 25.2523 159.499 24.9012 159.947 24.4427C160.405 23.9745 160.771 23.3697 161.044 22.6283C161.317 21.8869 161.454 21.0578 161.454 20.1408C161.454 19.2239 161.317 18.3947 161.044 17.6533C160.771 16.912 160.405 16.312 159.947 15.8536C159.499 15.3951 158.992 15.0439 158.426 14.8C157.861 14.5562 157.271 14.4342 156.656 14.4342C155.369 14.4342 154.253 14.9366 153.307 15.9414Z" fill="white"/>
<path d="M171.326 13.6295V14.5806C171.765 13.8782 172.418 13.2637 173.286 12.7369C174.153 12.2101 174.982 11.9468 175.772 11.9468C176.289 11.9468 176.781 12.0346 177.249 12.2101C177.717 12.376 178.122 12.6784 178.463 13.1173C178.814 13.5563 178.99 14.0928 178.99 14.7269C178.99 16.4632 178.068 17.3314 176.225 17.3314C176.186 17.3314 176.147 17.3265 176.108 17.3168C176.069 17.307 176.035 17.2924 176.006 17.2729C175.986 17.2534 175.967 17.2339 175.947 17.2144C175.928 17.1949 175.908 17.1656 175.889 17.1266C175.879 17.0876 175.869 17.0534 175.86 17.0242C175.85 16.9949 175.84 16.951 175.83 16.8925C175.821 16.8242 175.811 16.7705 175.801 16.7315C175.801 16.6925 175.796 16.6388 175.787 16.5706C175.787 16.4925 175.782 16.4291 175.772 16.3803L175.596 14.8586C175.333 14.7318 175.046 14.6684 174.734 14.6684C174.168 14.6684 173.598 14.8781 173.022 15.2975C172.457 15.7072 172.038 16.1852 171.765 16.7315V24.1354C171.765 24.2817 171.769 24.3988 171.779 24.4866C171.799 24.5646 171.833 24.6573 171.882 24.7646C171.94 24.8719 172.038 24.9548 172.174 25.0134C172.311 25.0621 172.486 25.0865 172.701 25.0865C173.071 25.0865 173.388 25.145 173.651 25.2621C173.914 25.3792 174.046 25.5547 174.046 25.7889C174.046 26.2571 173.968 26.7204 173.812 27.1789C173.656 27.6374 173.427 27.9398 173.125 28.0861C172.442 28.0081 171.443 27.9691 170.126 27.9691C168.81 27.9691 167.801 28.0081 167.099 28.0861C166.777 27.9398 166.543 27.6423 166.397 27.1936C166.251 26.7351 166.178 26.2669 166.178 25.7889C166.178 25.5547 166.309 25.3792 166.572 25.2621C166.836 25.145 167.153 25.0865 167.523 25.0865C167.903 25.0865 168.152 25.0085 168.269 24.8524C168.386 24.6866 168.445 24.4573 168.445 24.1647V16.4681C168.445 15.9511 168.293 15.5853 167.991 15.3707C167.699 15.1561 167.128 15.0293 166.28 14.9903C166.153 14.961 166.07 14.8976 166.031 14.8C166.002 14.7025 165.987 14.4928 165.987 14.1709C165.987 13.6734 166.041 13.2344 166.148 12.854C166.256 12.4735 166.363 12.254 166.47 12.1955C167.162 12.3028 167.84 12.3565 168.503 12.3565C168.913 12.3565 169.342 12.3321 169.79 12.2833C170.248 12.2248 170.492 12.1955 170.521 12.1955C170.863 12.1955 171.082 12.2833 171.18 12.4589C171.277 12.6247 171.326 13.0149 171.326 13.6295Z" fill="white"/>
<path d="M186.112 15.8975L189.871 24.2671L193.132 15.8975C193.181 15.7511 193.206 15.6195 193.206 15.5024C193.206 15.3171 193.128 15.1805 192.972 15.0927C192.825 15.0049 192.66 14.9561 192.474 14.9464C192.299 14.9366 192.133 14.8878 191.977 14.8C191.831 14.7025 191.758 14.5513 191.758 14.3464V14.244C191.904 12.9369 192.07 12.1711 192.255 11.9468C193.21 12.2004 194.239 12.3272 195.341 12.3272C196.511 12.3272 197.588 12.2004 198.573 11.9468C198.953 12.1223 199.143 12.5857 199.143 13.3368C199.143 13.9319 199.026 14.3513 198.792 14.5952C198.558 14.8293 198.149 14.9464 197.564 14.9464C197.427 14.9464 197.306 14.961 197.198 14.9903C197.091 15.0195 197.003 15.0488 196.935 15.0781C196.877 15.1073 196.818 15.161 196.76 15.239C196.701 15.3171 196.662 15.3805 196.643 15.4292C196.623 15.4683 196.589 15.5414 196.54 15.6487C196.501 15.756 196.472 15.8292 196.452 15.8682L190.602 29.3591C190.027 30.637 189.34 31.5686 188.54 32.1539C187.75 32.7489 186.78 33.0465 185.63 33.0465C184.713 33.0465 183.923 32.866 183.26 32.5051C182.597 32.1539 182.266 31.7539 182.266 31.3052C182.266 30.7297 182.314 30.3395 182.412 30.1346C182.509 29.9395 182.685 29.842 182.938 29.842C183.036 29.842 183.372 29.9103 183.948 30.0468C184.533 30.1932 185.074 30.2663 185.571 30.2663C185.795 30.2663 185.971 30.2566 186.098 30.2371C186.224 30.2273 186.356 30.1785 186.492 30.0907C186.629 30.0029 186.731 29.92 186.8 29.842C186.868 29.764 186.975 29.5981 187.121 29.3445C187.268 29.0909 187.389 28.8519 187.487 28.6275C187.584 28.4129 187.75 28.0617 187.984 27.574C188.228 27.0765 188.457 26.6083 188.672 26.1693C188.311 26.1693 188.043 26.14 187.867 26.0815C187.692 26.0132 187.56 25.8767 187.472 25.6718L182.792 15.8682C182.782 15.8389 182.753 15.7658 182.704 15.6487C182.656 15.5317 182.622 15.4585 182.602 15.4292C182.583 15.3902 182.539 15.3317 182.47 15.2536C182.412 15.1659 182.349 15.1073 182.28 15.0781C182.222 15.0488 182.139 15.0195 182.032 14.9903C181.934 14.961 181.817 14.9464 181.681 14.9464C181.096 14.9464 180.686 14.8293 180.452 14.5952C180.218 14.3513 180.101 13.9319 180.101 13.3368C180.101 12.5857 180.291 12.1223 180.671 11.9468C181.559 12.2004 182.636 12.3272 183.904 12.3272C185.191 12.3272 186.317 12.2004 187.282 11.9468C187.467 12.1711 187.633 12.9369 187.779 14.244V14.3464C187.779 14.5513 187.687 14.7025 187.502 14.8C187.316 14.8976 187.116 14.9512 186.902 14.961C186.687 14.9708 186.488 15.0195 186.302 15.1073C186.117 15.1854 186.024 15.3171 186.024 15.5024C186.024 15.6585 186.054 15.7902 186.112 15.8975Z" fill="white"/>
<path d="M90.5053 70.0836H89.0866C88.4528 67.323 88.1359 65.2403 88.1359 63.8356C88.1359 63.6113 88.3553 63.4259 88.7941 63.2796C89.2329 63.1333 89.6911 63.0601 90.1689 63.0601C90.3639 63.0601 90.5199 63.0747 90.6369 63.104C90.9489 63.8942 91.3828 64.5965 91.9386 65.2111C92.4943 65.8256 93.0989 66.3085 93.7521 66.6596C94.4152 67.0108 95.0733 67.2791 95.7266 67.4644C96.3896 67.64 97.0282 67.7278 97.6425 67.7278C98.7638 67.7278 99.6755 67.4791 100.377 66.9816C101.089 66.4743 101.445 65.7329 101.445 64.7575C101.445 64.1039 101.284 63.5332 100.963 63.0455C100.65 62.548 100.226 62.148 99.6901 61.8456C99.1636 61.5335 98.5542 61.2603 97.8619 61.0262C97.1794 60.7921 96.453 60.5726 95.6827 60.3678C94.9222 60.1629 94.1568 59.9483 93.3865 59.724C92.626 59.4996 91.8996 59.2167 91.2073 58.8753C90.5248 58.5339 89.9154 58.1388 89.3791 57.6901C88.8526 57.2316 88.4284 56.6414 88.1067 55.9196C87.7947 55.1977 87.6387 54.3686 87.6387 53.4321C87.6387 52.2323 88.0092 51.1982 88.7502 50.3301C89.4912 49.4521 90.4224 48.8132 91.5437 48.4132C92.6747 48.0035 93.9033 47.7987 95.2293 47.7987C97.2964 47.7987 99.0514 48.3157 100.494 49.3497C100.592 49.1546 100.665 48.9644 100.714 48.779C100.772 48.5937 100.802 48.4669 100.802 48.3986C100.802 48.3303 100.841 48.2669 100.919 48.2084C101.006 48.1499 101.114 48.1206 101.24 48.1206C101.367 48.1108 101.596 48.106 101.928 48.106C102.22 48.106 102.683 48.1303 103.317 48.1791C103.931 50.9007 104.239 52.8371 104.239 53.9881C104.239 54.1442 103.98 54.271 103.463 54.3686C102.956 54.4661 102.459 54.5149 101.972 54.5149H101.606C101.245 53.237 100.529 52.1884 99.4561 51.369C98.3835 50.5398 97.0331 50.1252 95.4048 50.1252C94.03 50.1252 92.9965 50.3983 92.3042 50.9446C91.6119 51.4909 91.2658 52.2371 91.2658 53.1833C91.2658 53.7394 91.4218 54.232 91.7338 54.6612C92.0556 55.0904 92.4846 55.4465 93.0209 55.7294C93.5571 56.0025 94.1714 56.2512 94.8637 56.4756C95.5559 56.7 96.2872 56.9194 97.0575 57.1341C97.8278 57.3487 98.598 57.5779 99.3683 57.8218C100.139 58.0656 100.87 58.368 101.562 58.729C102.254 59.0899 102.869 59.5045 103.405 59.9727C103.941 60.4409 104.365 61.0409 104.677 61.7725C104.999 62.4943 105.16 63.3137 105.16 64.2307C105.16 65.2745 104.955 66.2012 104.546 67.0108C104.136 67.8107 103.576 68.4448 102.864 68.913C102.162 69.3812 101.372 69.7324 100.494 69.9665C99.6267 70.2006 98.6907 70.3177 97.6864 70.3177C96.6139 70.3177 95.5462 70.1372 94.4834 69.7763C93.4304 69.4154 92.4748 68.913 91.6168 68.2692L91.3682 69.7178C91.3487 69.8056 91.3194 69.8739 91.2804 69.9226C91.2512 69.9617 91.1732 69.9958 91.0464 70.0251C90.9197 70.0641 90.7393 70.0836 90.5053 70.0836Z" fill="white"/>
<path d="M116.641 66.9962C116.934 67.5522 117.08 68.0741 117.08 68.5618C117.08 68.835 116.958 69.074 116.714 69.2788C116.48 69.4739 116.173 69.6251 115.793 69.7324C115.412 69.8397 115.032 69.9178 114.652 69.9665C114.272 70.0153 113.901 70.0397 113.54 70.0397C112.994 70.0397 112.487 69.9617 112.019 69.8056C111.551 69.6495 111.103 69.3959 110.674 69.0447C110.255 68.6838 109.923 68.1668 109.679 67.4937C109.436 66.8108 109.314 66.0012 109.314 65.0647V56.578H108.685C107.534 56.578 106.905 56.5829 106.798 56.5927C106.476 56.4756 106.315 56.1 106.315 55.466C106.315 54.6953 106.559 54.31 107.047 54.31H109.314C109.353 53.9979 109.387 53.5931 109.416 53.0956C109.455 52.5883 109.489 52.1884 109.518 51.8957C109.548 51.6031 109.592 51.2568 109.65 50.8568C109.718 50.4569 109.806 50.1447 109.913 49.9204C110.03 49.6862 110.177 49.457 110.352 49.2326C110.528 49.0083 110.752 48.8473 111.025 48.7498C111.308 48.6425 111.639 48.5888 112.019 48.5888C112.283 48.5888 112.487 48.6327 112.634 48.7205V54.31H114.579C115.739 54.31 116.349 54.2856 116.407 54.2369C116.895 54.2369 117.138 54.6563 117.138 55.4952C117.138 56.1293 116.977 56.5049 116.656 56.6219C116.334 56.5927 115.705 56.578 114.769 56.578H112.634V64.9769C112.634 66.5962 113.16 67.4059 114.213 67.4059C114.896 67.4059 115.705 67.2693 116.641 66.9962Z" fill="white"/>
<path d="M118.981 65.6793C118.513 64.6063 118.279 63.4113 118.279 62.0944C118.279 60.7775 118.513 59.5874 118.981 58.5241C119.449 57.4608 120.073 56.6024 120.853 55.9488C121.633 55.2855 122.506 54.7783 123.471 54.4271C124.436 54.0759 125.446 53.9003 126.499 53.9003C127.542 53.9003 128.546 54.0759 129.511 54.4271C130.477 54.7783 131.345 55.2855 132.115 55.9488C132.895 56.6024 133.519 57.4608 133.987 58.5241C134.455 59.5874 134.689 60.7775 134.689 62.0944C134.689 63.4113 134.455 64.6063 133.987 65.6793C133.519 66.7426 132.895 67.6059 132.115 68.2692C131.345 68.9325 130.477 69.4398 129.511 69.7909C128.546 70.1421 127.542 70.3177 126.499 70.3177C125.446 70.3177 124.436 70.1421 123.471 69.7909C122.506 69.4398 121.633 68.9325 120.853 68.2692C120.073 67.6059 119.449 66.7426 118.981 65.6793ZM123.12 57.8949C122.174 58.8997 121.701 60.2995 121.701 62.0944C121.701 63.8893 122.174 65.294 123.12 66.3085C124.066 67.3132 125.182 67.8156 126.469 67.8156C127.084 67.8156 127.674 67.6937 128.239 67.4498C128.805 67.2059 129.312 66.8547 129.76 66.3963C130.218 65.928 130.584 65.3232 130.857 64.5819C131.13 63.8405 131.267 63.0113 131.267 62.0944C131.267 61.1774 131.13 60.3483 130.857 59.6069C130.584 58.8655 130.218 58.2656 129.76 57.8071C129.312 57.3487 128.805 56.9975 128.239 56.7536C127.674 56.5097 127.084 56.3878 126.469 56.3878C125.182 56.3878 124.066 56.8902 123.12 57.8949Z" fill="white"/>
<path d="M141.139 55.583V56.5341C141.578 55.8318 142.231 55.2172 143.099 54.6905C143.966 54.1637 144.795 53.9003 145.585 53.9003C146.102 53.9003 146.594 53.9881 147.062 54.1637C147.53 54.3295 147.935 54.6319 148.276 55.0709C148.627 55.5099 148.803 56.0464 148.803 56.6805C148.803 58.4168 147.881 59.285 146.038 59.285C145.999 59.285 145.96 59.2801 145.921 59.2704C145.882 59.2606 145.848 59.246 145.819 59.2265C145.799 59.207 145.78 59.1874 145.76 59.1679C145.741 59.1484 145.721 59.1192 145.702 59.0801C145.692 59.0411 145.682 59.007 145.673 58.9777C145.663 58.9485 145.653 58.9046 145.643 58.846C145.634 58.7777 145.624 58.7241 145.614 58.6851C145.614 58.6461 145.609 58.5924 145.6 58.5241C145.6 58.4461 145.595 58.3827 145.585 58.3339L145.409 56.8121C145.146 56.6853 144.859 56.6219 144.546 56.6219C143.981 56.6219 143.411 56.8317 142.835 57.2511C142.27 57.6608 141.851 58.1388 141.578 58.6851V66.089C141.578 66.2353 141.582 66.3524 141.592 66.4402C141.612 66.5182 141.646 66.6109 141.695 66.7182C141.753 66.8255 141.851 66.9084 141.987 66.9669C142.124 67.0157 142.299 67.0401 142.514 67.0401C142.884 67.0401 143.201 67.0986 143.464 67.2157C143.727 67.3327 143.859 67.5083 143.859 67.7424C143.859 68.2107 143.781 68.674 143.625 69.1325C143.469 69.591 143.24 69.8934 142.938 70.0397C142.255 69.9617 141.256 69.9226 139.939 69.9226C138.623 69.9226 137.614 69.9617 136.912 70.0397C136.59 69.8934 136.356 69.5958 136.21 69.1471C136.064 68.6886 135.991 68.2204 135.991 67.7424C135.991 67.5083 136.122 67.3327 136.385 67.2157C136.649 67.0986 136.966 67.0401 137.336 67.0401C137.716 67.0401 137.965 66.962 138.082 66.806C138.199 66.6401 138.258 66.4109 138.258 66.1183V58.4217C138.258 57.9047 138.106 57.5389 137.804 57.3243C137.512 57.1097 136.941 56.9829 136.093 56.9438C135.966 56.9146 135.883 56.8512 135.844 56.7536C135.815 56.6561 135.8 56.4463 135.8 56.1244C135.8 55.6269 135.854 55.188 135.961 54.8075C136.069 54.4271 136.176 54.2076 136.283 54.1491C136.975 54.2564 137.653 54.31 138.316 54.31C138.726 54.31 139.155 54.2856 139.603 54.2369C140.061 54.1783 140.305 54.1491 140.334 54.1491C140.676 54.1491 140.895 54.2369 140.992 54.4125C141.09 54.5783 141.139 54.9685 141.139 55.583Z" fill="white"/>
<path d="M155.925 57.851L159.684 66.2207L162.945 57.851C162.994 57.7047 163.018 57.573 163.018 57.456C163.018 57.2706 162.94 57.1341 162.784 57.0463C162.638 56.9585 162.472 56.9097 162.287 56.8999C162.112 56.8902 161.946 56.8414 161.79 56.7536C161.644 56.6561 161.571 56.5049 161.571 56.3V56.1976C161.717 54.8904 161.883 54.1247 162.068 53.9003C163.023 54.154 164.052 54.2808 165.154 54.2808C166.324 54.2808 167.401 54.154 168.386 53.9003C168.766 54.0759 168.956 54.5393 168.956 55.2904C168.956 55.8854 168.839 56.3049 168.605 56.5488C168.371 56.7829 167.962 56.8999 167.377 56.8999C167.24 56.8999 167.119 56.9146 167.011 56.9438C166.904 56.9731 166.816 57.0024 166.748 57.0316C166.689 57.0609 166.631 57.1145 166.572 57.1926C166.514 57.2706 166.475 57.334 166.455 57.3828C166.436 57.4218 166.402 57.495 166.353 57.6023C166.314 57.7096 166.285 57.7828 166.265 57.8218L160.415 71.3127C159.84 72.5906 159.152 73.5222 158.353 74.1075C157.563 74.7025 156.593 75 155.442 75C154.526 75 153.736 74.8196 153.073 74.4586C152.41 74.1075 152.079 73.7075 152.079 73.2588C152.079 72.6833 152.127 72.2931 152.225 72.0882C152.322 71.8931 152.498 71.7956 152.751 71.7956C152.849 71.7956 153.185 71.8638 153.761 72.0004C154.346 72.1467 154.887 72.2199 155.384 72.2199C155.608 72.2199 155.784 72.2101 155.911 72.1906C156.037 72.1809 156.169 72.1321 156.305 72.0443C156.442 71.9565 156.544 71.8736 156.613 71.7956C156.681 71.7175 156.788 71.5517 156.934 71.2981C157.081 71.0444 157.202 70.8054 157.3 70.5811C157.397 70.3665 157.563 70.0153 157.797 69.5276C158.041 69.0301 158.27 68.5618 158.485 68.1229C158.124 68.1229 157.856 68.0936 157.68 68.0351C157.505 67.9668 157.373 67.8302 157.285 67.6254L152.605 57.8218C152.595 57.7925 152.566 57.7193 152.517 57.6023C152.469 57.4852 152.435 57.4121 152.415 57.3828C152.396 57.3438 152.352 57.2853 152.283 57.2072C152.225 57.1194 152.162 57.0609 152.093 57.0316C152.035 57.0024 151.952 56.9731 151.845 56.9438C151.747 56.9146 151.63 56.8999 151.494 56.8999C150.909 56.8999 150.499 56.7829 150.265 56.5488C150.031 56.3049 149.914 55.8854 149.914 55.2904C149.914 54.5393 150.104 54.0759 150.484 53.9003C151.372 54.154 152.449 54.2808 153.717 54.2808C155.004 54.2808 156.13 54.154 157.095 53.9003C157.28 54.1247 157.446 54.8904 157.592 56.1976V56.3C157.592 56.5049 157.5 56.6561 157.315 56.7536C157.129 56.8512 156.929 56.9048 156.715 56.9146C156.5 56.9243 156.301 56.9731 156.115 57.0609C155.93 57.1389 155.837 57.2706 155.837 57.456C155.837 57.612 155.867 57.7437 155.925 57.851Z" fill="white"/>
<path d="M180.408 66.9962C180.701 67.5522 180.847 68.0741 180.847 68.5618C180.847 68.835 180.725 69.074 180.481 69.2788C180.247 69.4739 179.94 69.6251 179.56 69.7324C179.18 69.8397 178.799 69.9178 178.419 69.9665C178.039 70.0153 177.668 70.0397 177.308 70.0397C176.762 70.0397 176.255 69.9617 175.787 69.8056C175.319 69.6495 174.87 69.3959 174.441 69.0447C174.022 68.6838 173.69 68.1668 173.446 67.4937C173.203 66.8108 173.081 66.0012 173.081 65.0647V56.578H172.452C171.301 56.578 170.673 56.5829 170.565 56.5927C170.243 56.4756 170.083 56.1 170.083 55.466C170.083 54.6953 170.326 54.31 170.814 54.31H173.081C173.12 53.9979 173.154 53.5931 173.183 53.0956C173.222 52.5883 173.256 52.1884 173.286 51.8957C173.315 51.6031 173.359 51.2568 173.417 50.8568C173.485 50.4569 173.573 50.1447 173.68 49.9204C173.797 49.6862 173.944 49.457 174.119 49.2326C174.295 49.0083 174.519 48.8473 174.792 48.7498C175.075 48.6425 175.406 48.5888 175.787 48.5888C176.05 48.5888 176.255 48.6327 176.401 48.7205V54.31H178.346C179.506 54.31 180.116 54.2856 180.174 54.2369C180.662 54.2369 180.905 54.6563 180.905 55.4952C180.905 56.1293 180.745 56.5049 180.423 56.6219C180.101 56.5927 179.472 56.578 178.536 56.578H176.401V64.9769C176.401 66.5962 176.927 67.4059 177.98 67.4059C178.663 67.4059 179.472 67.2693 180.408 66.9962Z" fill="white"/>
<path d="M185.469 51.7055C185.235 51.7055 184.996 51.686 184.752 51.647C184.508 51.5982 184.24 51.5153 183.948 51.3982C183.665 51.2812 183.431 51.0958 183.246 50.8422C183.07 50.5886 182.982 50.2862 182.982 49.935C182.982 48.7351 183.792 48.1352 185.41 48.1352C185.868 48.1352 186.254 48.1938 186.566 48.3108C186.887 48.4279 187.121 48.5839 187.268 48.779C187.424 48.9741 187.531 49.1644 187.589 49.3497C187.648 49.535 187.677 49.735 187.677 49.9496C187.677 50.3886 187.541 50.7495 187.268 51.0324C186.995 51.3153 186.702 51.5006 186.39 51.5884C186.088 51.6665 185.781 51.7055 185.469 51.7055ZM187.882 55.583V66.2499C187.882 66.3963 187.887 66.5133 187.896 66.6011C187.916 66.6792 187.95 66.7718 187.999 66.8791C188.057 66.9864 188.155 67.0693 188.291 67.1279C188.428 67.1767 188.603 67.201 188.818 67.201C189.188 67.201 189.505 67.2596 189.769 67.3766C190.032 67.4937 190.163 67.6693 190.163 67.9034C190.163 69.0447 190.003 69.7568 189.681 70.0397C188.803 69.9617 187.731 69.9226 186.463 69.9226C185.147 69.9226 183.918 69.9617 182.778 70.0397C182.456 69.747 182.295 69.0349 182.295 67.9034C182.295 67.6693 182.427 67.4937 182.69 67.3766C182.953 67.2596 183.27 67.201 183.64 67.201C184.021 67.201 184.269 67.123 184.386 66.9669C184.503 66.8011 184.562 66.5719 184.562 66.2792V58.4217C184.562 57.9047 184.411 57.5389 184.108 57.3243C183.816 57.1097 183.246 56.9829 182.397 56.9438C182.271 56.9146 182.188 56.8512 182.149 56.7536C182.119 56.6561 182.105 56.4463 182.105 56.1244C182.105 55.6269 182.158 55.188 182.266 54.8075C182.373 54.4271 182.48 54.2076 182.587 54.1491C183.338 54.2564 184.065 54.31 184.767 54.31C185.235 54.31 185.727 54.2856 186.244 54.2369C186.761 54.1783 187.034 54.1491 187.063 54.1491C187.404 54.1491 187.623 54.2369 187.721 54.4125C187.828 54.5783 187.882 54.9685 187.882 55.583Z" fill="white"/>
<path d="M196.833 55.583V56.3878C197.535 55.6562 198.373 55.0612 199.348 54.6027C200.333 54.1344 201.303 53.9003 202.259 53.9003C203.126 53.9003 203.911 54.1149 204.613 54.5441C205.325 54.9734 205.896 55.6367 206.325 56.5341C207.192 55.7537 208.163 55.1246 209.235 54.6466C210.317 54.1588 211.351 53.915 212.336 53.915C213.662 53.915 214.739 54.3978 215.568 55.3636C216.397 56.3293 216.811 57.8413 216.811 59.8995V66.1768C216.811 66.8108 217.06 67.1474 217.557 67.1864C217.654 67.1962 217.786 67.2059 217.952 67.2157C218.127 67.2254 218.264 67.2352 218.361 67.2449C218.459 67.2547 218.581 67.2693 218.727 67.2888C218.873 67.2986 218.99 67.3132 219.078 67.3327C219.166 67.3425 219.263 67.362 219.371 67.3913C219.478 67.4108 219.561 67.4352 219.619 67.4644C219.687 67.4937 219.751 67.5278 219.809 67.5668C219.868 67.6059 219.907 67.6546 219.926 67.7132C219.956 67.7619 219.97 67.8205 219.97 67.8888C219.97 69.0301 219.809 69.747 219.488 70.0397C218.347 69.9617 217.362 69.9226 216.533 69.9226C216.055 69.9226 215.563 69.9421 215.056 69.9812C214.549 70.0202 214.198 70.0397 214.003 70.0397C213.662 70.0397 213.491 69.6641 213.491 68.913V60.1629C213.491 58.8948 213.286 57.9681 212.877 57.3828C212.467 56.7878 211.931 56.4902 211.268 56.4902C210.605 56.4902 209.874 56.6902 209.074 57.0902C208.275 57.4804 207.524 57.9876 206.822 58.6119C206.871 59.0509 206.895 59.4801 206.895 59.8995V66.1768C206.895 66.8108 207.139 67.1474 207.626 67.1864C207.724 67.1962 207.851 67.2059 208.007 67.2157C208.172 67.2254 208.299 67.2352 208.387 67.2449C208.484 67.2547 208.601 67.2693 208.738 67.2888C208.874 67.2986 208.982 67.3132 209.06 67.3327C209.138 67.3425 209.225 67.362 209.323 67.3913C209.43 67.4108 209.513 67.4352 209.571 67.4644C209.63 67.4937 209.684 67.5278 209.732 67.5668C209.791 67.6059 209.83 67.6546 209.849 67.7132C209.879 67.7619 209.893 67.8205 209.893 67.8888C209.893 69.0301 209.732 69.747 209.411 70.0397C208.475 69.9617 207.617 69.9226 206.836 69.9226C206.349 69.9226 205.813 69.9421 205.228 69.9812C204.643 70.0202 204.258 70.0397 204.072 70.0397C203.741 70.0397 203.575 69.6641 203.575 68.913V60.1629C203.575 58.8948 203.37 57.9681 202.961 57.3828C202.551 56.7878 202.015 56.4902 201.352 56.4902C200.689 56.4902 199.963 56.6951 199.173 57.1048C198.383 57.5145 197.647 58.0413 196.964 58.6851V66.2499C196.964 66.3865 196.974 66.5036 196.994 66.6011C197.013 66.6889 197.052 66.7865 197.111 66.8938C197.169 66.9913 197.267 67.0693 197.403 67.1279C197.549 67.1767 197.73 67.201 197.944 67.201C198.315 67.201 198.632 67.2596 198.895 67.3766C199.158 67.4937 199.29 67.6693 199.29 67.9034C199.29 69.0447 199.129 69.7568 198.807 70.0397C197.852 69.9617 196.672 69.9226 195.268 69.9226C193.756 69.9226 192.635 69.9617 191.904 70.0397C191.582 69.747 191.421 69.0349 191.421 67.9034C191.421 67.6693 191.553 67.4937 191.816 67.3766C192.079 67.2596 192.396 67.201 192.767 67.201C193.108 67.201 193.337 67.1328 193.454 66.9962C193.581 66.8596 193.644 66.6206 193.644 66.2792V58.4217C193.644 57.9047 193.493 57.5389 193.191 57.3243C192.898 57.1097 192.328 56.9829 191.48 56.9438C191.353 56.9146 191.27 56.8512 191.231 56.7536C191.202 56.6561 191.187 56.4463 191.187 56.1244C191.187 55.6269 191.241 55.188 191.348 54.8075C191.455 54.4271 191.563 54.2076 191.67 54.1491C192.421 54.2564 193.147 54.31 193.849 54.31C194.288 54.31 194.751 54.2856 195.238 54.2369C195.726 54.1783 195.984 54.1491 196.014 54.1491C196.355 54.1491 196.574 54.2369 196.672 54.4125C196.779 54.5783 196.833 54.9685 196.833 55.583Z" fill="white"/>
<path d="M236 61.275C236 61.7237 235.883 62.07 235.649 62.3139C235.424 62.548 234.995 62.665 234.362 62.665H224.27C224.309 63.5527 224.465 64.3185 224.738 64.9623C225.011 65.6061 225.372 66.1134 225.82 66.4841C226.269 66.845 226.761 67.1132 227.298 67.2888C227.834 67.4547 228.419 67.5376 229.053 67.5376C229.94 67.5376 230.847 67.3815 231.773 67.0693C232.699 66.7572 233.538 66.3182 234.289 65.7524C234.844 66.406 235.122 67.0498 235.122 67.6839C235.122 68.1034 234.844 68.5179 234.289 68.9276C233.733 69.3276 232.982 69.6593 232.036 69.9226C231.09 70.186 230.106 70.3177 229.082 70.3177C228.243 70.3177 227.444 70.2348 226.683 70.069C225.933 69.9031 225.191 69.6154 224.46 69.2057C223.739 68.7862 223.115 68.2594 222.588 67.6254C222.062 66.9913 221.638 66.1768 221.316 65.1818C220.994 64.1868 220.833 63.0601 220.833 61.8017C220.833 60.5726 221.067 59.4459 221.535 58.4217C222.003 57.3974 222.622 56.5634 223.393 55.9196C224.163 55.266 225.021 54.7636 225.967 54.4125C226.922 54.0613 227.902 53.8857 228.906 53.8857C229.647 53.8857 230.359 53.9784 231.042 54.1637C231.724 54.3491 232.368 54.6417 232.972 55.0416C233.577 55.4318 234.103 55.9147 234.552 56.4902C235 57.056 235.351 57.7486 235.605 58.568C235.868 59.3874 236 60.2897 236 61.275ZM233.045 60.397C232.958 59.0411 232.529 58.012 231.758 57.3096C230.998 56.5975 230.086 56.2415 229.023 56.2415C227.892 56.2415 226.864 56.6219 225.937 57.3828C225.021 58.1339 224.494 59.1387 224.358 60.397H233.045Z" fill="white"/>
</svg>
